<?xml version="1.0" encoding="UTF-8" ?>
<!DOCTYPE svg PUBLIC "-//W3C//DTD SVG 1.1//EN" "http://www.w3.org/Graphics/SVG/1.1/DTD/svg11.dtd">
<svg id="weather34 weatherflow" width="1226pt" height="759pt" viewBox="0 0 1226 759" version="1.1" xmlns="http://www.w3.org/2000/svg">
<path fill="#ffffff" opacity="1.00" d=" M 209.60 55.78 C 213.97 55.69 218.33 55.38 222.70 55.31 L 222.31 54.66 C 237.76 53.98 253.23 53.97 268.67 54.67 L 268.30 55.25 C 269.14 55.30 270.81 55.40 271.64 55.45 C 294.79 58.22 317.89 62.25 340.02 69.73 C 346.90 71.76 353.45 74.72 360.30 76.83 C 360.26 78.14 360.23 79.46 360.21 80.79 C 283.85 80.62 207.48 80.83 131.12 80.68 C 131.04 79.34 130.97 78.01 130.92 76.67 C 133.50 75.18 136.38 74.31 139.17 73.30 C 140.17 72.91 141.18 72.52 142.19 72.11 C 144.25 71.36 146.36 70.79 148.46 70.15 L 148.43 69.55 C 149.21 69.53 150.78 69.47 151.56 69.45 L 151.44 68.83 C 153.65 68.29 155.84 67.67 157.95 66.82 C 159.15 66.63 160.35 66.45 161.56 66.29 L 161.31 65.62 C 162.03 65.54 163.46 65.38 164.18 65.30 C 165.73 64.76 167.30 64.29 168.85 63.76 C 170.08 63.61 171.31 63.48 172.55 63.35 L 172.40 62.77 C 176.84 62.26 181.08 60.76 185.52 60.27 L 185.48 59.71 C 187.54 59.60 189.58 59.44 191.64 59.33 L 191.38 58.69 C 193.29 58.55 195.21 58.38 197.12 58.14 C 201.27 57.26 205.49 56.62 209.74 56.46 L 209.60 55.78 Z" />
<path fill="#7f7f7f" opacity="0.50" d=" M 271.64 55.45 C 275.77 54.92 279.90 55.47 283.97 56.13 C 308.04 59.19 331.72 65.18 354.39 73.80 C 356.45 74.61 358.46 75.58 360.30 76.83 C 353.45 74.72 346.90 71.76 340.02 69.73 C 317.89 62.25 294.79 58.22 271.64 55.45 Z" />
<path fill="#ebebeb" opacity="1.00" d=" M 129.47 82.97 C 129.60 80.82 129.15 78.29 130.92 76.67 C 130.97 78.01 131.04 79.34 131.12 80.68 C 207.48 80.83 283.85 80.62 360.21 80.79 C 360.25 96.08 360.22 111.38 360.22 126.68 C 352.78 126.91 345.26 126.22 337.88 127.23 L 337.87 127.23 C 329.70 127.32 321.52 127.32 313.34 127.26 C 298.19 127.14 283.03 127.46 267.88 127.19 L 267.19 126.74 L 266.82 125.88 C 264.29 125.75 261.76 125.71 259.22 125.71 C 250.61 125.75 242.00 125.75 233.38 125.72 C 230.31 125.70 227.24 125.72 224.18 125.89 L 223.81 126.74 L 223.12 127.19 C 208.43 127.45 193.73 127.14 179.04 127.27 C 170.85 127.23 162.65 127.51 154.48 127.13 C 154.13 127.06 153.45 126.92 153.11 126.85 C 145.24 126.68 137.37 126.65 129.51 126.73 C 129.44 112.14 129.50 97.56 129.47 82.97 Z" />
<path fill="#515151" opacity="1.00" d=" M 224.18 125.89 C 227.24 125.72 230.31 125.70 233.38 125.72 C 234.09 126.64 234.79 127.58 235.50 128.51 C 242.53 128.56 249.56 128.56 256.60 128.52 C 257.47 127.58 258.34 126.65 259.22 125.71 C 261.76 125.71 264.29 125.75 266.82 125.88 L 267.19 126.74 C 267.65 131.08 267.13 135.46 267.50 139.81 C 266.15 140.65 264.68 141.39 263.04 141.25 C 251.35 141.34 239.65 141.28 227.96 141.26 C 226.31 141.40 224.85 140.66 223.51 139.81 C 223.89 135.46 223.37 131.08 223.81 126.74 L 224.18 125.89 Z" />
<path fill="#ff6948" opacity="1.00" d=" M 233.38 125.72 C 242.00 125.75 250.61 125.75 259.22 125.71 C 258.34 126.65 257.47 127.58 256.60 128.52 C 249.56 128.56 242.53 128.56 235.50 128.51 C 234.79 127.58 234.09 126.64 233.38 125.72 Z" />
<path fill="#f16042" opacity="1.00" d=" M 154.48 127.13 C 162.65 127.51 170.85 127.23 179.04 127.27 C 178.54 128.82 177.70 130.21 176.70 131.49 C 170.44 131.33 164.19 131.58 157.94 131.39 C 155.61 131.51 155.17 128.76 154.48 127.13 Z" />
<path fill="#f26142" opacity="1.00" d=" M 313.34 127.26 C 321.52 127.32 329.70 127.32 337.87 127.23 C 337.60 128.88 336.64 130.23 335.61 131.49 C 329.35 131.32 323.09 131.59 316.83 131.38 C 314.53 131.55 314.21 128.77 313.34 127.26 Z" />
<path fill="#848484" opacity="0.52" d=" M 199.94 145.19 C 207.48 143.87 215.09 142.82 222.53 140.97 C 223.97 141.45 225.43 141.91 226.98 141.84 C 236.65 141.86 246.33 141.79 256.00 141.83 C 260.15 141.80 264.39 142.22 268.43 141.03 C 278.56 143.42 288.92 144.67 299.12 146.68 C 318.69 150.08 338.25 153.58 357.83 156.92 C 359.30 157.30 360.67 157.98 362.07 158.58 C 361.24 159.46 360.67 160.47 360.35 161.63 C 360.36 160.85 360.38 159.30 360.39 158.53 C 337.25 154.15 313.99 150.36 290.81 146.18 C 281.87 145.02 273.11 142.08 264.02 142.62 C 251.67 142.73 239.32 142.74 226.97 142.61 C 217.88 142.02 209.13 144.98 200.20 146.14 C 180.74 149.61 161.24 152.90 141.77 156.37 C 137.68 156.98 133.61 157.72 129.61 158.78 C 133.73 167.38 138.25 175.85 141.31 184.92 C 138.84 181.39 137.56 177.26 135.72 173.41 C 133.71 168.82 131.28 164.42 129.30 159.82 C 128.70 157.83 131.28 157.48 132.62 156.96 C 155.06 153.02 177.52 149.22 199.94 145.19 Z" />
<path fill="#ffffff" opacity="1.00" d=" M 200.20 146.14 C 209.13 144.98 217.88 142.02 226.97 142.61 C 239.32 142.74 251.67 142.73 264.02 142.62 C 273.11 142.08 281.87 145.02 290.81 146.18 C 313.99 150.36 337.25 154.15 360.39 158.53 C 360.38 159.30 360.36 160.85 360.35 161.63 L 360.34 161.84 C 359.30 163.52 358.40 165.27 357.42 166.99 C 357.40 167.24 357.34 167.74 357.31 167.99 C 356.42 169.60 355.63 171.27 354.74 172.88 C 353.65 175.65 352.43 178.36 351.31 181.12 C 350.21 183.52 349.13 185.94 348.27 188.45 L 347.95 188.49 C 347.43 189.60 347.01 190.75 346.68 191.93 C 345.79 194.30 344.77 196.63 343.71 198.94 C 341.50 204.16 339.94 209.63 337.72 214.85 C 337.63 215.51 337.44 216.84 337.34 217.51 L 336.57 217.45 C 336.48 218.13 336.30 219.48 336.21 220.16 C 335.34 222.25 334.74 224.43 334.22 226.64 L 333.64 226.44 C 333.53 227.79 333.42 229.15 333.33 230.51 L 332.76 230.50 C 332.22 232.67 331.60 234.82 330.73 236.89 C 330.56 238.09 330.41 239.30 330.28 240.52 L 329.75 240.36 C 329.10 244.16 327.80 247.80 327.24 251.62 L 326.68 251.43 C 326.55 252.66 326.41 253.89 326.26 255.11 C 325.15 258.11 324.56 261.27 324.21 264.45 L 323.65 264.44 C 323.55 266.14 323.42 267.84 323.33 269.55 L 322.71 269.35 C 322.37 272.57 321.65 275.74 320.78 278.85 C 320.60 280.76 320.44 282.68 320.33 284.59 L 319.68 284.37 C 319.57 286.30 319.42 288.23 319.25 290.16 C 317.07 300.67 316.08 311.41 315.12 322.09 C 314.40 326.50 314.47 330.99 314.25 335.45 L 313.73 335.50 C 313.43 349.22 313.25 362.93 313.33 376.65 L 312.22 376.62 C 312.62 377.31 313.41 378.71 313.81 379.40 L 312.67 379.34 C 312.64 417.31 312.17 455.28 312.33 493.25 C 267.77 493.27 223.21 493.25 178.66 493.26 C 178.70 459.95 178.20 426.64 178.30 393.34 L 177.61 393.74 C 177.38 370.85 178.34 347.87 175.89 325.09 C 175.61 321.55 175.49 318.01 175.29 314.47 L 174.66 314.63 C 174.60 307.18 172.93 299.88 172.27 292.48 L 171.72 292.53 C 171.55 289.55 171.40 286.57 171.45 283.59 C 171.27 285.03 171.11 286.46 170.93 287.91 C 170.64 285.12 170.39 282.33 170.23 279.54 L 169.81 279.44 C 169.44 276.40 168.62 273.44 168.27 270.40 L 167.66 270.54 C 167.57 268.85 167.45 267.16 167.36 265.47 C 167.22 265.46 166.92 265.44 166.78 265.43 C 166.42 262.25 165.85 259.08 164.76 256.07 C 164.60 254.84 164.46 253.61 164.34 252.38 L 163.68 252.57 C 163.53 251.34 163.37 250.11 163.20 248.89 C 162.32 246.44 161.70 243.90 161.29 241.33 L 160.82 241.54 C 160.50 238.06 159.14 234.83 158.31 231.46 L 157.70 231.44 C 157.60 230.10 157.50 228.75 157.41 227.42 L 156.82 227.62 C 156.28 225.42 155.68 223.25 155.06 221.08 C 154.27 218.76 153.49 216.43 152.66 214.13 C 152.04 212.46 151.43 210.78 150.70 209.15 C 150.60 208.49 150.42 207.15 150.33 206.48 L 149.79 206.62 C 149.23 204.76 148.62 202.92 148.05 201.06 C 147.39 199.67 146.70 198.29 146.06 196.88 C 145.32 194.96 144.60 193.03 143.77 191.14 C 142.97 189.06 142.04 187.02 141.31 184.92 C 138.25 175.85 133.73 167.38 129.61 158.78 C 133.61 157.72 137.68 156.98 141.77 156.37 C 161.24 152.90 180.74 149.61 200.20 146.14 M 244.40 418.33 C 242.33 418.90 241.74 421.10 240.79 422.76 C 242.62 422.72 244.45 422.67 246.28 422.60 C 248.18 424.90 249.10 427.90 247.38 430.63 C 242.04 440.32 231.37 444.79 222.62 450.69 C 229.59 450.33 236.13 447.45 242.45 444.70 C 246.07 443.26 248.86 440.30 252.59 439.13 C 252.40 442.17 251.81 445.34 249.83 447.76 C 243.52 456.35 233.38 460.45 224.88 466.33 C 234.49 464.71 243.87 461.39 252.17 456.25 C 257.21 452.81 262.47 447.54 261.69 440.89 C 261.95 437.15 258.83 434.66 256.49 432.26 C 258.94 427.37 256.90 421.62 252.52 418.65 C 249.86 418.28 246.98 416.93 244.40 418.33 Z" />
<path fill="#959595" opacity="1.00" d=" M 616.50 286.24 C 625.46 286.46 634.48 285.71 643.40 286.86 C 651.82 288.02 657.72 295.85 659.12 303.84 C 660.64 312.84 660.45 323.07 654.75 330.67 C 651.20 335.62 644.99 337.99 639.04 338.00 C 631.52 338.03 624.01 337.98 616.50 338.00 C 616.50 320.75 616.50 303.49 616.50 286.24 M 627.00 295.24 C 626.99 306.58 627.00 317.91 627.00 329.24 C 632.30 329.06 637.86 329.92 642.94 328.03 C 648.02 325.53 648.64 319.10 648.86 314.10 C 648.94 308.45 648.97 301.66 644.25 297.68 C 639.24 294.22 632.72 295.57 627.00 295.24 Z" />
<path fill="#959595" opacity="1.00" d=" M 748.50 286.25 C 751.83 286.25 755.16 286.25 758.50 286.25 C 758.49 289.41 758.49 292.58 758.50 295.75 C 755.16 295.75 751.83 295.75 748.50 295.75 C 748.50 292.58 748.50 289.41 748.50 286.25 Z" />
<path fill="#959595" opacity="1.00" d=" M 920.75 286.25 C 924.16 286.25 927.58 286.25 931.00 286.25 C 931.00 303.50 931.00 320.75 931.00 338.00 C 927.82 338.00 924.64 338.00 921.47 337.99 C 921.49 336.40 921.52 334.82 921.59 333.23 C 918.45 336.83 913.87 339.42 908.98 338.97 C 902.52 338.67 897.13 333.44 895.37 327.43 C 893.79 321.88 893.85 315.87 895.51 310.35 C 897.09 305.18 901.55 300.87 906.95 299.97 C 912.00 298.82 917.08 300.79 920.78 304.22 C 920.72 298.23 920.76 292.24 920.75 286.25 M 909.34 308.34 C 903.69 311.69 904.18 319.33 905.35 324.89 C 906.39 329.66 912.42 332.75 916.62 329.78 C 921.60 326.23 921.40 319.13 920.23 313.77 C 919.41 309.01 913.66 305.84 909.34 308.34 Z" />
<path fill="#fdfdfd" opacity="1.00" d=" M 427.09 289.11 C 436.96 287.52 446.99 287.10 456.99 287.18 C 469.36 287.06 481.77 287.94 493.94 290.19 C 495.33 290.40 496.74 290.60 498.15 290.81 C 502.38 291.96 506.74 292.68 510.90 294.13 C 511.47 294.26 512.60 294.53 513.16 294.66 C 514.16 295.09 515.17 295.52 516.19 295.93 C 518.49 296.82 520.77 297.74 523.05 298.69 C 523.59 299.01 524.68 299.67 525.22 300.00 C 523.83 314.94 523.82 329.99 522.73 344.97 C 522.40 351.25 522.80 357.60 521.77 363.83 C 521.55 370.39 521.27 376.95 521.29 383.52 L 520.76 383.54 C 520.32 402.13 518.85 420.68 518.38 439.28 C 517.53 448.00 517.53 456.76 517.29 465.51 L 516.73 465.50 C 516.73 472.85 516.22 480.18 516.28 487.52 L 515.75 487.51 C 515.34 506.66 513.57 525.77 513.72 544.94 C 513.70 546.23 513.66 547.52 513.60 548.81 L 513.21 549.29 C 513.32 544.53 513.28 539.77 513.17 535.02 C 475.68 534.96 438.20 535.06 400.72 534.93 C 400.60 539.72 400.60 544.52 400.87 549.32 C 430.25 549.02 459.64 549.18 489.03 549.12 C 496.90 549.28 504.80 548.76 512.65 549.54 C 508.16 550.51 503.58 550.42 499.03 550.29 C 472.01 550.30 445.00 550.29 417.99 550.28 C 412.70 550.20 407.41 550.19 402.14 550.62 L 402.02 550.63 L 400.38 549.49 C 400.06 546.70 400.06 543.89 399.93 541.09 C 399.76 525.55 398.66 510.06 398.24 494.53 L 397.71 494.54 C 397.78 487.51 397.28 480.50 397.28 473.48 L 396.73 473.45 C 396.10 446.11 394.13 418.83 393.27 391.49 L 392.74 391.49 C 392.78 384.14 392.31 376.81 392.27 369.47 L 391.74 369.49 C 391.58 362.28 391.36 355.08 391.14 347.88 C 389.99 339.29 390.62 330.57 389.73 321.96 C 389.48 314.52 389.04 307.10 388.78 299.67 C 392.08 297.93 395.59 296.64 399.07 295.31 C 404.19 293.24 409.69 292.45 414.96 290.86 C 416.79 290.60 418.63 290.40 420.48 290.24 L 420.49 289.69 C 422.69 289.54 424.89 289.35 427.09 289.11 M 458.79 435.56 C 457.11 436.32 456.70 438.32 455.78 439.75 C 457.61 439.72 459.45 439.66 461.29 439.60 C 463.17 441.89 464.11 444.86 462.41 447.58 C 457.09 457.30 446.40 461.81 437.61 467.68 C 441.83 467.65 445.83 466.18 449.77 464.85 C 455.43 462.79 461.08 460.38 465.76 456.50 C 466.23 456.52 467.18 456.57 467.65 456.60 C 467.27 459.46 466.75 462.45 464.85 464.75 C 458.55 473.31 448.45 477.45 439.95 483.29 C 449.54 481.70 458.89 478.37 467.16 473.25 C 472.19 469.82 477.43 464.56 476.68 457.94 C 476.94 454.18 473.84 451.67 471.48 449.25 C 474.01 444.26 471.76 438.47 467.32 435.47 C 464.48 435.32 461.59 434.90 458.79 435.56 Z" />
<path fill="#959595" opacity="1.00" d=" M 669.72 305.72 C 676.15 297.36 690.69 297.69 696.84 306.20 C 700.23 310.81 700.50 316.75 700.84 322.24 C 692.48 322.27 684.12 322.22 675.76 322.27 C 675.90 326.73 679.04 331.62 683.99 331.29 C 687.26 331.56 689.08 328.52 690.31 325.99 C 693.63 326.58 696.96 327.11 700.29 327.67 C 698.98 330.68 697.44 333.77 694.70 335.73 C 689.48 339.55 682.31 339.78 676.33 337.83 C 670.75 336.05 666.96 330.71 666.04 325.07 C 664.83 318.54 665.41 311.06 669.72 305.72 M 675.81 315.99 C 680.79 315.99 685.78 316.05 690.76 315.94 C 690.41 312.14 688.33 307.80 684.02 307.53 C 679.14 306.84 676.10 311.71 675.81 315.99 Z" />
<path fill="#959595" opacity="1.00" d=" M 710.57 302.65 C 715.91 298.94 722.96 299.37 729.09 300.33 C 734.03 301.08 737.55 305.16 739.03 309.73 C 735.89 310.39 732.74 310.96 729.59 311.49 C 728.37 309.41 726.70 307.28 724.08 307.14 C 721.25 306.92 716.87 306.58 715.87 310.02 C 716.17 311.12 716.85 311.86 717.93 312.23 C 724.01 314.60 731.00 314.66 736.49 318.49 C 740.16 320.95 740.66 325.97 739.58 329.92 C 737.99 334.51 733.56 337.63 728.89 338.44 C 723.14 339.47 716.82 339.30 711.61 336.40 C 708.12 334.48 706.00 330.93 704.76 327.25 C 708.10 326.74 711.46 326.24 714.81 325.72 C 715.98 327.96 717.22 330.71 720.01 331.21 C 722.97 331.78 726.49 331.86 728.98 329.89 C 730.35 328.87 729.46 327.09 729.46 325.69 C 723.17 323.55 716.26 323.06 710.47 319.62 C 704.74 315.82 705.05 306.50 710.57 302.65 Z" />
<path fill="#959595" opacity="1.00" d=" M 769.75 305.94 C 773.58 300.21 781.57 298.16 787.83 300.81 C 790.08 301.79 791.76 303.64 793.53 305.29 C 793.51 303.69 793.49 302.09 793.49 300.50 C 796.65 300.50 799.83 300.50 803.00 300.50 C 802.99 311.99 803.01 323.48 802.99 334.97 C 802.85 340.03 802.53 345.87 798.55 349.56 C 794.00 353.31 787.71 353.46 782.10 353.20 C 777.65 352.91 772.63 351.98 769.72 348.26 C 767.82 346.06 767.64 343.05 767.25 340.32 C 771.06 340.70 774.87 341.20 778.68 341.63 C 780.29 346.67 787.05 346.21 790.80 344.05 C 793.91 341.17 792.38 336.46 792.80 332.73 C 789.97 335.67 786.34 338.35 782.03 338.04 C 774.79 338.74 768.66 332.70 767.10 325.99 C 765.53 319.36 765.84 311.74 769.75 305.94 M 781.34 308.31 C 777.43 310.23 776.55 315.02 776.71 318.97 C 776.56 322.89 777.81 327.46 781.66 329.26 C 785.77 331.24 790.87 328.39 792.15 324.19 C 793.44 320.13 793.42 315.44 791.48 311.59 C 789.72 308.00 784.87 306.37 781.34 308.31 Z" />
<path fill="#959595" opacity="1.00" d=" M 812.50 300.49 C 815.59 300.50 818.68 300.50 821.78 300.50 C 821.74 302.19 821.70 303.88 821.68 305.58 C 826.59 299.54 836.09 297.59 842.55 302.27 C 846.23 304.89 846.62 309.76 846.74 313.91 C 846.79 321.94 846.73 329.97 846.75 338.00 C 843.33 338.00 839.91 338.00 836.50 338.00 C 836.49 330.66 836.51 323.32 836.51 315.98 C 836.40 313.47 836.37 310.48 834.22 308.79 C 831.51 306.44 827.21 307.50 824.92 309.91 C 822.77 312.06 822.77 315.29 822.55 318.11 C 822.40 324.73 822.54 331.37 822.50 337.99 C 819.16 338.00 815.83 338.00 812.50 338.00 C 812.50 325.50 812.50 313.00 812.50 300.49 Z" />
<path fill="#959595" opacity="1.00" d=" M 858.23 305.16 C 865.04 297.20 879.50 297.94 885.28 306.76 C 888.31 311.30 888.62 316.95 888.85 322.24 C 880.48 322.27 872.12 322.22 863.76 322.27 C 864.07 326.66 866.97 331.64 871.97 331.29 C 875.26 331.56 877.16 328.62 878.29 325.99 C 881.65 326.58 885.02 327.12 888.40 327.69 C 887.00 330.65 885.48 333.75 882.75 335.71 C 877.52 339.63 870.27 339.74 864.26 337.79 C 858.72 335.99 855.06 330.67 854.08 325.10 C 852.81 318.33 853.52 310.53 858.23 305.16 M 863.91 315.91 C 868.85 316.05 873.81 316.04 878.76 315.93 C 878.60 311.74 875.67 307.10 870.99 307.50 C 866.58 307.62 864.24 312.01 863.91 315.91 Z" />
<path fill="#959595" opacity="1.00" d=" M 748.50 300.50 C 751.83 300.50 755.16 300.50 758.50 300.50 C 758.50 313.00 758.50 325.50 758.50 338.00 C 755.16 338.00 751.83 338.00 748.50 338.00 C 748.50 325.50 748.50 313.00 748.50 300.50 Z" />
<path fill="#00a4b4" opacity="1.00" d=" M 616.50 424.50 C 616.50 407.25 616.49 390.00 616.50 372.75 C 624.34 372.76 632.19 372.74 640.03 372.74 C 643.74 372.88 647.73 372.86 651.01 374.87 C 655.92 377.49 658.58 383.64 657.01 389.01 C 656.35 392.48 653.62 394.93 650.96 396.99 C 653.58 398.21 656.22 399.70 657.86 402.19 C 662.63 409.38 658.90 420.64 650.62 423.35 C 647.19 424.45 643.52 424.38 639.96 424.50 C 632.14 424.51 624.32 424.49 616.50 424.50 M 627.25 381.50 C 627.25 385.42 627.25 389.33 627.25 393.24 C 632.64 392.99 638.20 393.91 643.48 392.52 C 647.98 391.10 648.30 383.87 643.82 382.25 C 638.40 380.97 632.76 381.68 627.25 381.50 M 627.25 402.01 C 627.25 406.50 627.25 411.00 627.25 415.50 C 633.13 415.18 639.15 416.20 644.93 414.92 C 650.24 413.29 650.21 404.67 644.96 402.99 C 639.22 401.40 633.13 402.19 627.25 402.01 Z" />
<path fill="#959595" opacity="1.00" d=" M 723.45 372.75 C 727.10 372.75 730.75 372.75 734.40 372.74 C 737.02 384.33 739.48 395.94 742.08 407.53 C 745.24 395.95 748.25 384.33 751.37 372.74 C 755.58 372.75 759.79 372.75 764.00 372.75 C 766.99 384.52 769.81 396.33 772.90 408.08 C 775.54 396.31 778.09 384.53 780.68 372.75 C 784.28 372.75 787.89 372.75 791.49 372.75 C 787.25 389.99 783.13 407.27 778.88 424.51 C 775.11 424.49 771.34 424.49 767.58 424.50 C 764.26 411.82 760.85 399.17 757.49 386.50 C 754.07 399.16 750.75 411.84 747.37 424.51 C 743.51 424.49 739.66 424.50 735.82 424.50 C 731.71 407.25 727.60 389.99 723.45 372.75 Z" />
<path fill="#959595" opacity="1.00" d=" M 796.50 372.75 C 809.33 372.75 822.17 372.75 835.00 372.75 C 834.99 375.75 834.99 378.75 835.00 381.76 C 825.74 381.75 816.49 381.75 807.25 381.75 C 807.25 385.50 807.25 389.25 807.25 393.00 C 815.83 393.00 824.41 393.00 833.00 393.00 C 832.99 395.92 832.99 398.83 833.00 401.76 C 824.41 401.75 815.83 401.75 807.25 401.76 C 807.25 406.33 807.25 410.91 807.24 415.49 C 816.83 415.50 826.41 415.50 835.99 415.50 C 835.99 418.49 835.99 421.49 836.00 424.50 C 822.83 424.50 809.67 424.50 796.50 424.50 C 796.50 407.25 796.50 390.00 796.50 372.75 Z" />
<path fill="#959595" opacity="1.00" d=" M 859.32 372.75 C 863.06 372.75 866.81 372.76 870.56 372.72 C 877.52 389.97 884.38 407.25 891.30 424.50 C 887.41 424.50 883.51 424.49 879.63 424.50 C 878.15 420.57 876.64 416.65 875.10 412.75 C 868.34 412.75 861.59 412.75 854.83 412.75 C 853.39 416.64 851.99 420.54 850.62 424.46 C 846.80 424.51 842.99 424.50 839.18 424.50 C 845.88 407.25 852.63 390.01 859.32 372.75 M 864.80 385.60 C 862.47 391.71 860.30 397.87 858.03 404.00 C 862.61 404.00 867.20 404.00 871.80 404.00 C 869.40 397.89 867.34 391.65 864.80 385.60 Z" />
<path fill="#959595" opacity="1.00" d=" M 887.50 381.75 C 887.49 378.75 887.49 375.75 887.51 372.75 C 901.25 372.75 915.00 372.75 928.76 372.75 C 928.74 375.75 928.74 378.75 928.75 381.75 C 923.66 381.75 918.58 381.75 913.50 381.75 C 913.49 396.00 913.50 410.25 913.50 424.50 C 909.91 424.50 906.33 424.50 902.75 424.50 C 902.75 410.25 902.74 396.00 902.75 381.76 C 897.66 381.75 892.58 381.75 887.50 381.75 Z" />
<path fill="#959595" opacity="1.00" d=" M 935.25 372.75 C 938.74 372.75 942.24 372.75 945.75 372.75 C 945.75 379.50 945.75 386.25 945.75 393.00 C 952.50 393.00 959.25 393.00 966.00 393.00 C 966.00 386.25 966.00 379.50 966.00 372.75 C 969.49 372.75 972.99 372.75 976.50 372.75 C 976.50 390.00 976.50 407.25 976.50 424.50 C 972.99 424.50 969.49 424.50 966.00 424.50 C 966.00 417.00 966.00 409.50 966.00 402.00 C 959.25 402.00 952.50 402.00 945.75 402.00 C 945.75 409.50 945.76 417.00 945.75 424.50 C 942.24 424.50 938.74 424.50 935.24 424.50 C 935.25 407.25 935.25 390.00 935.25 372.75 Z" />
<path fill="#959595" opacity="1.00" d=" M 987.25 372.75 C 999.99 372.75 1012.74 372.75 1025.50 372.75 C 1025.49 375.74 1025.49 378.74 1025.51 381.74 C 1016.26 381.77 1007.00 381.74 997.75 381.75 C 997.75 385.50 997.75 389.25 997.75 393.00 C 1006.42 393.00 1015.09 392.99 1023.76 393.00 C 1023.74 395.92 1023.74 398.83 1023.75 401.75 C 1015.08 401.75 1006.42 401.75 997.75 401.75 C 997.75 406.33 997.75 410.91 997.75 415.50 C 1007.33 415.50 1016.91 415.50 1026.50 415.50 C 1026.49 418.50 1026.49 421.50 1026.50 424.50 C 1013.41 424.50 1000.33 424.50 987.24 424.50 C 987.25 407.25 987.25 390.00 987.25 372.75 Z" />
<path fill="#959595" opacity="1.00" d=" M 1035.25 372.75 C 1043.51 372.77 1051.78 372.71 1060.05 372.77 C 1063.79 372.96 1067.74 373.10 1071.11 374.94 C 1079.15 379.67 1079.92 392.85 1072.54 398.53 C 1070.25 400.33 1067.36 401.04 1064.61 401.80 C 1072.82 407.18 1076.51 416.69 1081.89 424.50 C 1077.62 424.50 1073.36 424.50 1069.10 424.50 C 1065.78 419.63 1062.48 414.74 1059.21 409.84 C 1057.43 407.37 1055.69 404.46 1052.61 403.50 C 1050.37 402.90 1048.03 403.02 1045.75 402.92 C 1045.75 410.11 1045.75 417.31 1045.75 424.50 C 1042.24 424.50 1038.74 424.50 1035.25 424.50 C 1035.24 407.25 1035.25 390.00 1035.25 372.75 M 1045.75 381.75 C 1045.75 386.00 1045.75 390.25 1045.75 394.50 C 1050.14 394.45 1054.53 394.63 1058.92 394.42 C 1060.88 394.24 1063.11 394.18 1064.66 392.75 C 1068.14 389.71 1066.85 382.68 1061.92 382.03 C 1056.56 381.38 1051.13 381.92 1045.75 381.75 Z" />
<path fill="#00a4b4" opacity="1.00" d=" M 1089.72 376.70 C 1097.32 369.62 1112.31 371.42 1116.09 381.78 C 1118.44 387.52 1115.15 393.79 1109.98 396.59 C 1113.76 397.78 1117.14 400.53 1118.43 404.37 C 1119.88 409.46 1118.95 415.38 1115.34 419.38 C 1108.65 427.52 1094.26 427.59 1087.83 419.11 C 1085.84 416.69 1085.09 413.58 1084.42 410.61 C 1087.67 410.22 1090.93 409.83 1094.19 409.43 C 1095.03 411.84 1095.69 414.71 1098.14 416.03 C 1101.07 417.92 1105.24 416.88 1107.16 414.03 C 1109.81 410.08 1109.30 403.55 1104.75 401.23 C 1102.42 399.84 1099.71 400.93 1097.26 401.20 C 1097.64 398.55 1097.99 395.89 1098.34 393.23 C 1100.58 392.73 1103.24 392.72 1104.92 390.88 C 1107.97 387.93 1106.75 381.29 1102.04 381.00 C 1097.87 380.15 1095.10 384.13 1094.52 387.76 C 1091.40 387.28 1088.31 386.76 1085.22 386.21 C 1086.12 382.82 1087.11 379.22 1089.72 376.70 Z" />
<path fill="#00a4b4" opacity="1.00" d=" M 1124.86 402.90 C 1131.84 392.79 1138.71 382.60 1145.70 372.49 C 1148.54 372.50 1151.39 372.50 1154.25 372.50 C 1154.25 383.42 1154.25 394.33 1154.25 405.24 C 1156.32 405.24 1158.41 405.25 1160.50 405.25 C 1160.49 408.25 1160.49 411.25 1160.50 414.25 C 1158.40 414.24 1156.32 414.25 1154.25 414.25 C 1154.24 417.66 1154.24 421.08 1154.25 424.50 C 1150.99 424.50 1147.74 424.50 1144.50 424.50 C 1144.49 421.08 1144.49 417.67 1144.50 414.25 C 1137.42 414.25 1130.34 414.25 1123.26 414.25 C 1123.55 410.46 1122.16 406.08 1124.86 402.90 M 1144.50 388.02 C 1140.66 393.77 1136.81 399.52 1132.93 405.25 C 1136.78 405.25 1140.63 405.24 1144.50 405.25 C 1144.50 399.50 1144.49 393.76 1144.50 388.02 Z" />
<path fill="#00a4b4" opacity="1.00" d=" M 663.67 387.01 C 667.30 386.99 670.94 386.98 674.59 387.05 C 677.44 395.69 680.23 404.37 683.33 412.93 C 686.24 404.31 688.96 395.63 691.86 387.00 C 695.37 387.00 698.88 386.99 702.39 387.01 C 697.85 399.67 693.13 412.26 688.55 424.89 C 686.81 429.33 685.61 434.50 681.57 437.46 C 677.28 440.26 671.88 439.89 667.04 439.19 C 666.70 436.52 666.41 433.84 666.07 431.18 C 669.02 431.35 672.64 432.31 675.00 429.93 C 676.62 428.04 678.51 425.36 677.24 422.81 C 672.72 410.87 668.16 398.96 663.67 387.01 Z" />
<path fill="#2ba4b4" opacity="1.00" d=" M 244.40 418.33 C 246.98 416.93 249.86 418.28 252.52 418.65 C 256.90 421.62 258.94 427.37 256.49 432.26 C 258.83 434.66 261.95 437.15 261.69 440.89 C 262.47 447.54 257.21 452.81 252.17 456.25 C 243.87 461.39 234.49 464.71 224.88 466.33 C 233.38 460.45 243.52 456.35 249.83 447.76 C 251.81 445.34 252.40 442.17 252.59 439.13 C 248.86 440.30 246.07 443.26 242.45 444.70 C 236.13 447.45 229.59 450.33 222.62 450.69 C 231.37 444.79 242.04 440.32 247.38 430.63 C 249.10 427.90 248.18 424.90 246.28 422.60 C 244.45 422.67 242.62 422.72 240.79 422.76 C 241.74 421.10 242.33 418.90 244.40 418.33 Z" />
<path fill="#2ba4b4" opacity="1.00" d=" M 458.79 435.56 C 461.59 434.90 464.48 435.32 467.32 435.47 C 471.76 438.47 474.01 444.26 471.48 449.25 C 473.84 451.67 476.94 454.18 476.68 457.94 C 477.43 464.56 472.19 469.82 467.16 473.25 C 458.89 478.37 449.54 481.70 439.95 483.29 C 448.45 477.45 458.55 473.31 464.85 464.75 C 466.75 462.45 467.27 459.46 467.65 456.60 C 467.18 456.57 466.23 456.52 465.76 456.50 C 461.08 460.38 455.43 462.79 449.77 464.85 C 445.83 466.18 441.83 467.65 437.61 467.68 C 446.40 461.81 457.09 457.30 462.41 447.58 C 464.11 444.86 463.17 441.89 461.29 439.60 C 459.45 439.66 457.61 439.72 455.78 439.75 C 456.70 438.32 457.11 436.32 458.79 435.56 Z" />
<path fill="#00a4b4" opacity="1.00" d=" M 1039.57 460.63 C 1044.43 457.06 1050.89 458.14 1056.36 459.47 C 1055.89 461.84 1055.46 464.22 1055.01 466.61 C 1052.47 466.51 1049.24 465.16 1047.19 467.25 C 1046.23 469.08 1046.58 471.25 1046.39 473.24 C 1048.83 473.24 1051.29 473.25 1053.75 473.25 C 1053.74 475.91 1053.74 478.58 1053.75 481.25 C 1051.33 481.25 1048.90 481.24 1046.50 481.25 C 1046.50 491.16 1046.49 501.08 1046.51 510.99 C 1043.08 511.00 1039.66 511.00 1036.25 511.00 C 1036.25 501.08 1036.25 491.16 1036.25 481.25 C 1034.40 481.24 1032.57 481.24 1030.76 481.25 C 1030.72 479.26 1030.66 477.26 1030.71 475.28 C 1030.78 474.93 1030.90 474.23 1030.96 473.88 L 1031.08 473.22 C 1032.75 473.22 1034.48 473.25 1036.18 473.27 C 1036.44 469.00 1035.72 463.57 1039.57 460.63 Z" />
<path fill="#959595" opacity="1.00" d=" M 616.52 459.23 C 628.43 459.27 640.34 459.24 652.25 459.24 C 652.24 462.16 652.25 465.08 652.25 468.00 C 643.91 468.00 635.58 467.99 627.25 468.00 C 627.25 472.00 627.25 476.00 627.25 480.00 C 634.41 480.00 641.58 479.99 648.76 480.00 C 648.75 483.00 648.75 486.00 648.76 489.00 C 641.58 489.00 634.41 488.99 627.25 489.00 C 627.25 496.33 627.25 503.67 627.25 511.00 C 623.66 511.00 620.08 511.00 616.50 511.00 C 616.51 493.74 616.47 476.48 616.52 459.23 Z" />
<path fill="#959595" opacity="1.00" d=" M 747.43 459.24 C 751.09 459.25 754.75 459.25 758.42 459.25 C 760.98 470.66 763.21 482.16 766.08 493.49 C 769.30 482.12 772.19 470.66 775.27 459.25 C 779.48 459.25 783.69 459.25 787.90 459.23 C 791.03 470.99 793.85 482.82 796.83 494.61 C 799.41 482.83 802.05 471.05 804.58 459.25 C 808.17 459.24 811.75 459.25 815.35 459.24 C 811.27 476.51 806.97 493.74 802.83 511.00 C 799.07 511.00 795.31 511.00 791.56 510.99 C 788.24 498.29 784.76 485.64 781.47 472.94 C 777.94 485.59 774.70 498.32 771.29 511.00 C 767.46 511.00 763.63 511.00 759.80 511.00 C 755.65 493.75 751.56 476.49 747.43 459.24 Z" />
<path fill="#00a4b4" opacity="1.00" d=" M 1059.25 459.25 C 1062.57 459.25 1065.91 459.25 1069.25 459.25 C 1069.25 476.50 1069.25 493.75 1069.25 511.00 C 1065.91 511.00 1062.57 511.00 1059.25 511.00 C 1059.25 493.75 1059.25 476.50 1059.25 459.25 Z" />
<path fill="#959595" opacity="1.00" d=" M 899.58 466.23 C 902.64 463.73 906.34 462.13 909.72 460.08 C 909.77 464.47 909.74 468.85 909.75 473.24 C 911.99 473.24 914.25 473.24 916.50 473.25 C 916.49 476.00 916.49 478.75 916.50 481.50 C 914.24 481.50 911.99 481.49 909.75 481.50 C 909.86 487.95 909.54 494.42 909.88 500.86 C 910.25 504.34 914.20 503.01 916.46 502.49 C 916.77 505.12 917.07 507.75 917.36 510.39 C 912.77 511.84 907.31 512.79 902.99 510.10 C 900.48 508.68 899.91 505.58 899.74 502.96 C 899.24 495.82 899.61 488.65 899.50 481.50 C 897.99 481.49 896.49 481.50 895.01 481.51 C 894.99 478.75 894.99 475.99 895.00 473.25 C 896.49 473.24 897.99 473.24 899.50 473.25 C 899.49 470.91 899.38 468.56 899.58 466.23 Z" />
<path fill="#959595" opacity="1.00" d=" M 923.00 459.25 C 926.41 459.24 929.83 459.24 933.25 459.25 C 933.23 465.32 933.30 471.38 933.20 477.45 C 938.40 472.02 947.59 470.55 953.59 475.51 C 956.51 478.09 957.24 482.20 957.25 485.92 C 957.26 494.28 957.24 502.64 957.25 511.00 C 953.91 511.00 950.57 511.00 947.24 511.00 C 947.05 502.31 947.68 493.58 946.86 484.92 C 946.29 479.18 937.96 479.05 935.14 483.11 C 933.34 485.69 933.23 488.97 933.23 492.00 C 933.25 498.33 933.25 504.67 933.25 511.00 C 929.83 511.00 926.41 511.00 923.00 511.00 C 923.00 493.75 923.00 476.50 923.00 459.25 Z" />
<path fill="#959595" opacity="1.00" d=" M 670.46 473.57 C 676.97 471.50 684.80 472.20 690.12 476.77 C 699.05 483.98 699.14 499.13 690.80 506.83 C 683.42 513.73 670.81 513.26 663.46 506.56 C 654.16 497.08 657.03 477.70 670.46 473.57 M 674.31 481.43 C 668.24 484.00 667.44 492.04 669.35 497.57 C 670.90 502.41 677.03 505.16 681.51 502.43 C 686.71 499.40 687.36 492.28 685.72 487.03 C 684.39 482.39 678.83 479.36 674.31 481.43 Z" />
<path fill="#959595" opacity="1.00" d=" M 713.18 478.24 C 714.87 476.18 716.43 473.69 719.11 472.86 C 722.27 471.75 725.53 473.08 728.51 474.13 C 727.49 477.13 726.43 480.11 725.36 483.09 C 723.30 482.50 721.20 481.04 719.01 481.83 C 716.14 482.45 715.09 485.55 714.65 488.10 C 713.68 495.69 714.08 503.37 714.00 511.00 C 710.66 511.00 707.33 511.00 704.00 511.00 C 704.00 498.42 704.00 485.83 704.00 473.25 C 707.09 473.24 710.18 473.24 713.27 473.25 C 713.24 474.91 713.21 476.57 713.18 478.24 Z" />
<path fill="#959595" opacity="1.00" d=" M 820.43 478.42 C 826.86 470.25 841.00 470.50 847.27 478.73 C 850.80 483.34 851.29 489.39 851.31 494.99 C 842.97 495.03 834.62 494.95 826.28 495.04 C 826.72 499.22 829.21 504.00 833.97 504.09 C 837.50 504.67 839.73 501.61 840.92 498.78 C 844.26 499.32 847.60 499.91 850.94 500.53 C 849.66 503.20 848.42 506.04 846.07 507.96 C 840.94 512.30 833.47 512.59 827.27 510.74 C 821.44 508.99 817.51 503.43 816.60 497.58 C 815.66 491.07 816.04 483.69 820.43 478.42 M 832.35 480.51 C 828.48 481.25 826.98 485.24 826.48 488.69 C 831.46 488.79 836.44 488.75 841.43 488.74 C 841.29 484.15 837.37 479.01 832.35 480.51 Z" />
<path fill="#959595" opacity="1.00" d=" M 863.53 474.60 C 868.57 471.99 874.56 472.18 880.04 472.95 C 884.10 473.51 888.43 476.15 889.12 480.50 C 890.88 490.58 887.37 501.37 891.80 511.01 C 888.47 510.99 885.14 510.99 881.81 511.00 C 881.37 509.74 880.93 508.48 880.53 507.23 C 875.25 512.02 866.66 513.61 860.62 509.35 C 854.55 505.03 855.19 494.18 862.15 491.08 C 867.82 488.59 874.16 488.38 879.97 486.27 C 879.47 484.32 879.51 481.49 877.12 480.86 C 873.06 479.23 867.98 480.54 866.51 484.97 C 863.42 484.44 860.34 483.89 857.27 483.30 C 858.55 479.94 860.18 476.35 863.53 474.60 M 869.12 495.92 C 866.25 496.94 865.91 500.99 868.01 502.93 C 870.73 505.78 875.44 504.47 877.94 501.96 C 880.11 499.57 879.55 496.09 879.87 493.14 C 876.29 494.08 872.56 494.52 869.12 495.92 Z" />
<path fill="#959595" opacity="1.00" d=" M 968.92 477.91 C 975.83 469.82 990.67 470.79 996.19 480.00 C 998.96 484.46 999.34 489.87 999.30 494.99 C 990.99 495.03 982.68 494.96 974.37 495.03 C 974.70 499.21 977.28 503.96 981.97 504.09 C 985.47 504.66 987.75 501.64 988.94 498.79 C 992.30 499.33 995.66 499.89 999.03 500.52 C 997.54 503.66 995.91 506.96 992.90 508.91 C 987.76 512.31 981.02 512.46 975.27 510.73 C 969.30 508.94 965.39 503.09 964.55 497.12 C 963.63 490.54 964.31 483.08 968.92 477.91 M 974.52 488.71 C 979.50 488.77 984.49 488.77 989.48 488.71 C 989.20 484.35 986.03 479.61 981.16 480.31 C 976.94 480.77 974.91 484.93 974.52 488.71 Z" />
<path fill="#959595" opacity="1.00" d=" M 1016.17 478.02 C 1017.81 476.00 1019.34 473.55 1022.01 472.81 C 1025.02 471.85 1028.08 473.03 1030.96 473.88 C 1030.90 474.23 1030.78 474.93 1030.71 475.28 C 1030.02 477.94 1029.03 480.51 1028.15 483.11 C 1026.14 482.48 1024.12 481.11 1021.95 481.78 C 1018.98 482.31 1017.88 485.54 1017.40 488.13 C 1016.50 495.71 1016.80 503.37 1016.76 511.00 C 1013.41 511.00 1010.08 511.00 1006.75 511.00 C 1006.75 498.42 1006.75 485.83 1006.75 473.25 C 1009.92 473.24 1013.10 473.24 1016.28 473.25 C 1016.24 474.84 1016.20 476.43 1016.17 478.02 Z" />
<path fill="#00a4b4" opacity="1.00" d=" M 1089.45 473.49 C 1095.99 471.50 1103.84 472.27 1109.08 476.96 C 1118.51 484.79 1117.70 501.63 1107.49 508.46 C 1098.12 515.01 1082.33 511.77 1078.29 500.46 C 1074.23 490.47 1078.36 476.66 1089.45 473.49 M 1094.18 481.07 C 1087.41 482.80 1086.08 491.30 1087.92 497.06 C 1089.24 501.89 1095.06 505.10 1099.70 502.71 C 1105.22 500.08 1106.12 492.82 1104.62 487.51 C 1103.51 483.08 1098.71 479.72 1094.18 481.07 Z" />
<path fill="#00a4b4" opacity="1.00" d=" M 1118.15 473.24 C 1121.45 473.25 1124.75 473.25 1128.06 473.25 C 1130.38 481.25 1132.63 489.28 1134.95 497.28 C 1137.14 489.29 1139.16 481.26 1141.32 473.26 C 1144.56 473.24 1147.81 473.24 1151.07 473.25 C 1153.03 481.32 1155.20 489.34 1157.17 497.41 C 1159.46 489.35 1161.87 481.31 1164.18 473.25 C 1167.54 473.24 1170.90 473.25 1174.28 473.25 C 1170.23 485.83 1166.19 498.42 1162.15 511.00 C 1158.90 511.00 1155.67 511.00 1152.44 510.99 C 1150.34 503.13 1148.25 495.27 1146.13 487.42 C 1144.04 495.28 1141.95 503.13 1139.92 511.00 C 1136.64 511.00 1133.37 511.00 1130.10 511.00 C 1126.11 498.41 1122.13 485.83 1118.15 473.24 Z" />
<path fill="#2ba4b4" opacity="1.00" d=" M 178.66 493.26 C 223.21 493.25 267.77 493.27 312.33 493.25 C 312.25 502.18 312.63 511.13 312.15 520.04 C 312.12 520.42 312.05 521.18 312.01 521.56 C 304.50 519.53 296.66 520.69 288.99 520.29 C 265.69 519.66 242.38 519.57 219.07 519.34 C 205.62 518.40 192.14 518.66 178.67 518.52 C 178.65 510.10 178.66 501.68 178.66 493.26 Z" />
<path fill="#ffffff" opacity="1.00" d=" M 168.22 527.50 C 169.36 522.69 173.69 518.73 178.67 518.52 C 192.14 518.66 205.62 518.40 219.07 519.34 C 242.38 519.57 265.69 519.66 288.99 520.29 C 296.66 520.69 304.50 519.53 312.01 521.56 C 312.05 521.18 312.12 520.42 312.15 520.04 C 312.23 520.57 312.39 521.61 312.48 522.13 C 313.92 523.51 315.23 525.04 316.52 526.58 C 316.55 527.31 316.61 528.77 316.64 529.50 L 317.30 529.38 C 317.54 530.56 317.79 531.75 318.07 532.94 C 318.40 533.91 318.74 534.88 319.09 535.85 C 319.47 537.17 319.85 538.52 320.31 539.84 C 320.45 540.41 320.73 541.56 320.87 542.14 C 321.54 544.14 322.15 546.16 322.78 548.19 C 323.10 549.51 323.51 550.79 323.95 552.10 C 324.60 554.23 325.21 556.37 325.78 558.54 L 326.31 558.50 C 326.41 559.85 326.52 561.20 326.63 562.55 L 327.23 562.40 C 327.71 564.58 328.32 566.75 328.98 568.90 C 329.61 570.99 330.32 573.06 330.89 575.18 C 331.58 577.28 332.16 579.43 332.72 581.58 L 333.31 581.53 C 333.40 582.88 333.50 584.24 333.59 585.60 L 334.19 585.44 C 334.66 587.65 335.24 589.85 336.10 591.97 C 336.31 593.14 336.52 594.33 336.72 595.52 L 337.19 595.32 C 338.08 599.70 339.67 603.91 340.82 608.23 C 341.94 611.63 343.05 615.05 343.77 618.57 L 344.31 618.49 C 344.48 619.65 344.66 620.82 344.86 621.99 C 345.67 624.30 346.44 626.62 347.29 628.92 C 347.44 630.07 347.59 631.24 347.75 632.41 L 348.31 632.42 C 348.82 634.60 349.41 636.77 350.26 638.87 C 350.34 639.57 350.51 640.98 350.60 641.68 L 351.27 641.51 C 351.44 642.70 351.63 643.88 351.84 645.08 C 352.71 647.18 353.27 649.39 353.78 651.61 L 354.37 651.47 C 354.46 652.82 354.55 654.17 354.65 655.54 L 355.29 655.41 C 355.80 657.74 356.44 660.04 356.86 662.40 L 357.35 662.49 C 357.34 665.05 357.35 667.61 357.35 670.18 C 356.06 673.74 353.91 678.30 349.36 677.76 C 349.41 677.90 349.51 678.18 349.56 678.32 C 273.70 678.41 197.83 678.79 121.96 679.00 C 120.23 679.10 118.57 678.65 117.15 677.69 L 116.86 677.33 C 116.52 676.99 115.83 676.30 115.49 675.96 C 115.44 675.76 115.35 675.37 115.31 675.17 C 113.05 671.37 114.27 666.65 114.60 662.46 L 115.41 662.62 C 115.44 661.83 115.50 660.27 115.53 659.48 L 116.21 659.51 C 116.54 658.36 116.90 657.23 117.28 656.11 C 117.49 655.62 117.92 654.64 118.13 654.14 C 118.68 652.69 119.30 651.27 119.83 649.82 C 120.51 648.09 121.16 646.34 121.79 644.59 L 122.36 644.53 C 122.43 643.77 122.56 642.26 122.62 641.50 L 123.25 641.54 C 123.93 639.27 124.90 637.12 125.66 634.89 C 126.08 633.87 126.49 632.86 126.91 631.85 C 127.70 629.96 128.38 628.03 129.18 626.16 C 129.74 624.72 130.33 623.30 130.89 621.88 C 131.55 620.09 132.21 618.30 132.82 616.50 L 133.17 616.50 C 133.54 615.36 133.92 614.24 134.31 613.12 C 135.08 610.99 135.99 608.93 136.79 606.83 C 137.46 605.20 138.10 603.56 138.70 601.91 C 139.26 600.66 139.73 599.36 140.29 598.12 C 141.03 596.02 141.92 593.98 142.72 591.90 C 143.04 590.72 143.44 589.57 143.92 588.46 L 144.21 588.33 C 144.82 586.58 145.46 584.86 146.14 583.15 C 146.68 581.70 147.31 580.30 147.85 578.86 C 148.49 577.23 149.13 575.61 149.72 573.97 C 150.35 572.70 150.74 571.34 151.37 570.09 C 152.11 567.98 152.98 565.93 153.74 563.84 C 154.97 560.97 156.04 558.03 157.25 555.15 C 158.02 553.06 158.91 551.02 159.64 548.93 C 160.04 547.91 160.44 546.89 160.84 545.88 C 161.42 544.66 161.83 543.36 162.38 542.13 C 162.57 541.64 162.96 540.65 163.15 540.16 C 163.70 538.71 164.29 537.28 164.81 535.83 C 165.51 534.21 166.18 532.57 166.81 530.93 C 167.18 529.80 167.54 528.67 167.89 527.55 L 168.22 527.50 M 188.55 564.78 C 177.31 590.86 166.00 616.92 154.72 642.99 C 153.53 645.61 153.43 648.52 153.23 651.36 C 154.86 652.90 156.41 655.04 158.96 654.64 C 193.30 654.82 227.66 654.55 261.99 655.05 C 278.35 655.10 294.73 655.25 311.09 655.10 C 316.37 655.00 317.61 648.50 315.92 644.46 C 307.13 618.43 298.12 592.45 289.32 566.41 C 288.52 563.55 286.28 560.68 283.06 560.64 C 268.71 560.16 254.32 560.89 239.99 559.70 C 225.33 559.61 210.66 559.45 196.00 559.41 C 192.57 559.15 189.65 561.68 188.55 564.78 Z" />
<path fill="#a9abb1" opacity="1.00" d=" M 400.72 534.93 C 438.20 535.06 475.68 534.96 513.17 535.02 C 513.28 539.77 513.32 544.53 513.21 549.29 C 512.86 549.71 512.16 550.54 511.81 550.96 C 507.54 550.37 503.22 550.65 498.93 550.63 C 466.67 550.64 434.40 550.63 402.14 550.62 C 407.41 550.19 412.70 550.20 417.99 550.28 C 445.00 550.29 472.01 550.30 499.03 550.29 C 503.58 550.42 508.16 550.51 512.65 549.54 C 504.80 548.76 496.90 549.28 489.03 549.12 C 459.64 549.18 430.25 549.02 400.87 549.32 C 400.60 544.52 400.60 539.72 400.72 534.93 Z" />
<path fill="#0a0a0a" opacity="0.08" d=" M 399.93 541.09 C 400.06 543.89 400.06 546.70 400.38 549.49 C 396.68 546.21 391.56 546.65 386.97 546.71 C 379.59 546.96 371.73 546.23 365.04 550.03 C 374.13 552.81 383.70 552.01 393.06 552.28 C 396.14 552.44 399.14 551.63 402.02 550.63 L 402.14 550.62 C 434.40 550.63 466.67 550.64 498.93 550.63 C 503.22 550.65 507.54 550.37 511.81 550.96 C 515.47 551.77 519.20 552.37 522.97 552.20 C 531.98 551.96 541.42 552.70 549.90 549.00 C 543.32 546.03 535.99 546.95 528.99 546.75 C 523.83 546.79 518.24 546.00 513.60 548.81 C 513.66 547.52 513.70 546.23 513.72 544.94 C 515.16 543.49 516.64 541.69 518.93 541.89 C 530.27 541.64 541.61 542.08 552.95 542.20 C 558.62 542.26 564.21 543.34 569.77 544.32 C 569.85 547.47 569.85 550.62 569.77 553.78 C 566.55 554.38 563.30 554.82 560.04 555.02 C 552.02 555.51 544.07 557.01 536.01 556.84 C 478.66 556.59 421.30 557.10 363.96 556.78 C 360.68 556.71 357.44 556.15 354.21 555.61 C 353.90 551.53 353.88 547.44 354.21 543.38 C 366.78 541.83 379.44 542.12 392.07 542.21 C 394.73 542.30 397.35 541.74 399.93 541.09 Z" />
<path fill="#111111" opacity="0.14" d=" M 365.04 550.03 C 371.73 546.23 379.59 546.96 386.97 546.71 C 391.56 546.65 396.68 546.21 400.38 549.49 L 402.02 550.63 C 399.14 551.63 396.14 552.44 393.06 552.28 C 383.70 552.01 374.13 552.81 365.04 550.03 Z" />
<path fill="#111111" opacity="0.14" d=" M 513.60 548.81 C 518.24 546.00 523.83 546.79 528.99 546.75 C 535.99 546.95 543.32 546.03 549.90 549.00 C 541.42 552.70 531.98 551.96 522.97 552.20 C 519.20 552.37 515.47 551.77 511.81 550.96 C 512.16 550.54 512.86 549.71 513.21 549.29 L 513.60 548.81 Z" />
<path fill="#a9abb1" opacity="1.00" d=" M 188.55 564.78 C 189.65 561.68 192.57 559.15 196.00 559.41 C 210.66 559.45 225.33 559.61 239.99 559.70 C 254.32 560.89 268.71 560.16 283.06 560.64 C 286.28 560.68 288.52 563.55 289.32 566.41 C 298.12 592.45 307.13 618.43 315.92 644.46 C 317.61 648.50 316.37 655.00 311.09 655.10 C 294.73 655.25 278.35 655.10 261.99 655.05 C 227.66 654.55 193.30 654.82 158.96 654.64 C 156.41 655.04 154.86 652.90 153.23 651.36 C 153.43 648.52 153.53 645.61 154.72 642.99 C 166.00 616.92 177.31 590.86 188.55 564.78 Z" />
</svg>
