<?xml version="1.0" encoding="UTF-8" ?>
<!DOCTYPE svg PUBLIC "-//W3C//DTD SVG 1.1//EN" "http://www.w3.org/Graphics/SVG/1.1/DTD/svg11.dtd">
<svg id="weather34 weatherflow setup graphic" width="1226pt" height="759pt" viewBox="0 0 1226 759" version="1.1" xmlns="http://www.w3.org/2000/svg">
<path fill="#ffffff" opacity="1.00" d=" M 209.65 55.78 C 213.98 55.69 218.31 55.37 222.64 55.32 L 222.37 54.65 C 237.78 53.98 253.20 53.98 268.60 54.66 L 268.36 55.27 C 269.20 55.31 270.87 55.40 271.70 55.45 C 294.82 58.23 317.89 62.25 340.00 69.73 C 346.88 71.76 353.44 74.71 360.30 76.83 C 360.25 78.16 360.22 79.50 360.21 80.84 C 283.82 80.59 207.44 80.85 131.05 80.72 C 130.96 79.37 130.89 78.02 130.82 76.67 C 134.43 74.80 138.36 73.64 142.15 72.18 C 144.40 71.36 146.71 70.68 148.89 69.66 C 149.55 69.59 150.88 69.44 151.55 69.37 L 151.45 68.81 C 153.66 68.29 155.87 67.69 157.96 66.81 C 159.15 66.62 160.34 66.46 161.53 66.30 L 161.34 65.76 C 163.90 65.29 166.42 64.61 168.90 63.78 C 170.10 63.63 171.31 63.48 172.52 63.34 L 172.44 62.75 C 176.85 62.28 181.07 60.74 185.50 60.28 L 185.51 59.70 C 187.54 59.60 189.56 59.44 191.60 59.34 L 191.43 58.68 C 193.32 58.54 195.22 58.38 197.10 58.14 C 201.24 57.27 205.45 56.62 209.69 56.47 L 209.65 55.78 Z" />
<path fill="#7f7f7f" opacity="0.50" d=" M 271.70 55.45 C 277.17 54.70 282.57 56.07 287.98 56.66 C 307.87 59.50 327.51 64.24 346.46 70.93 C 351.16 72.65 356.10 74.01 360.30 76.83 C 353.44 74.71 346.88 71.76 340.00 69.73 C 317.89 62.25 294.82 58.23 271.70 55.45 Z" />
<path fill="#ebebeb" opacity="1.00" d=" M 129.47 83.00 C 129.52 80.82 129.30 78.45 130.82 76.67 C 130.89 78.02 130.96 79.37 131.05 80.72 C 207.44 80.85 283.82 80.59 360.21 80.84 C 360.25 96.11 360.21 111.39 360.23 126.67 C 352.79 126.93 345.28 126.21 337.90 127.23 L 337.87 127.23 C 329.70 127.32 321.53 127.33 313.37 127.26 C 298.02 127.15 282.68 127.43 267.34 127.21 L 267.21 125.73 C 264.53 125.72 261.85 125.72 259.18 125.73 C 250.50 125.75 241.82 125.71 233.14 125.77 C 230.02 125.73 226.90 125.66 223.79 125.79 L 223.70 126.81 L 223.66 127.33 C 208.78 127.27 193.90 127.23 179.02 127.27 C 170.83 127.22 162.64 127.52 154.46 127.12 C 154.12 127.05 153.43 126.91 153.08 126.84 C 145.22 126.68 137.35 126.67 129.49 126.71 C 129.46 112.14 129.49 97.57 129.47 83.00 Z" />
<path fill="#515151" opacity="1.00" d=" M 223.79 125.79 C 226.90 125.66 230.02 125.73 233.14 125.77 C 234.34 126.70 235.23 128.46 236.96 128.44 C 243.50 128.81 250.06 128.42 256.62 128.53 C 257.47 127.60 258.32 126.66 259.18 125.73 C 261.85 125.72 264.53 125.72 267.21 125.73 L 267.34 127.21 C 267.51 131.40 267.19 135.61 267.49 139.80 C 265.61 141.14 263.28 141.63 261.00 141.32 C 251.33 141.30 241.66 141.11 231.99 141.38 C 229.12 141.22 225.95 141.71 223.52 139.82 C 223.84 135.49 223.48 131.14 223.70 126.81 L 223.79 125.79 Z" />
<path fill="#ff6948" opacity="1.00" d=" M 233.14 125.77 C 241.82 125.71 250.50 125.75 259.18 125.73 C 258.32 126.66 257.47 127.60 256.62 128.53 C 250.06 128.42 243.50 128.81 236.96 128.44 C 235.23 128.46 234.34 126.70 233.14 125.77 Z" />
<path fill="#f16042" opacity="1.00" d=" M 154.46 127.12 C 162.64 127.52 170.83 127.22 179.02 127.27 C 178.53 128.83 177.67 130.21 176.67 131.49 C 170.44 131.33 164.21 131.59 157.98 131.39 C 155.55 131.62 155.20 128.75 154.46 127.12 Z" />
<path fill="#f26142" opacity="1.00" d=" M 313.37 127.26 C 321.53 127.33 329.70 127.32 337.87 127.23 C 337.56 128.86 336.63 130.21 335.63 131.49 C 329.40 131.33 323.17 131.59 316.94 131.38 C 314.46 131.76 314.27 128.84 313.37 127.26 Z" />
<path fill="#848484" opacity="0.52" d=" M 132.64 156.95 C 162.81 151.66 193.03 146.57 223.17 141.05 C 225.58 142.30 228.39 141.74 231.00 141.83 C 241.33 141.86 251.66 141.76 261.98 141.85 C 264.16 141.87 266.34 141.64 268.44 141.03 C 279.55 143.62 290.91 144.99 302.10 147.22 C 320.44 150.32 338.73 153.72 357.08 156.77 C 358.80 157.03 360.36 157.86 361.96 158.55 C 361.41 159.55 360.86 160.54 360.30 161.52 C 360.33 160.78 360.40 159.29 360.43 158.54 C 345.18 155.52 329.81 153.16 314.53 150.32 C 299.63 147.93 284.84 144.84 269.91 142.67 C 254.63 142.67 239.33 142.67 224.04 142.75 C 217.57 142.43 211.31 144.35 204.99 145.35 C 194.92 146.90 184.95 148.99 174.89 150.54 C 159.83 153.43 144.59 155.44 129.63 158.78 C 133.67 167.29 138.15 175.65 141.18 184.60 C 138.88 181.40 137.68 177.61 136.02 174.07 C 133.93 169.25 131.39 164.64 129.30 159.82 C 128.68 157.82 131.29 157.48 132.64 156.95 Z" />
<path fill="#ffffff" opacity="1.00" d=" M 204.99 145.35 C 211.31 144.35 217.57 142.43 224.04 142.75 C 239.33 142.67 254.63 142.67 269.91 142.67 C 284.84 144.84 299.63 147.93 314.53 150.32 C 329.81 153.16 345.18 155.52 360.43 158.54 C 360.40 159.29 360.33 160.78 360.30 161.52 L 360.30 161.85 C 359.07 163.85 358.04 165.96 357.08 168.10 C 356.32 169.69 355.58 171.29 354.80 172.87 C 353.62 175.62 352.43 178.36 351.33 181.15 C 350.86 182.10 350.39 183.07 349.94 184.05 C 349.37 185.51 348.80 186.99 348.27 188.48 L 347.89 188.48 C 347.51 189.63 347.10 190.77 346.67 191.91 C 345.75 194.27 344.84 196.64 343.71 198.92 C 341.51 204.15 339.94 209.64 337.72 214.87 C 337.62 215.52 337.44 216.84 337.35 217.49 L 336.56 217.47 C 336.47 218.13 336.31 219.47 336.22 220.14 C 335.36 222.23 334.72 224.41 334.24 226.62 L 333.63 226.46 C 333.53 227.80 333.43 229.14 333.33 230.49 L 332.74 230.52 C 332.22 232.69 331.61 234.85 330.72 236.90 C 330.56 238.09 330.42 239.28 330.29 240.49 L 329.73 240.41 C 329.13 244.19 327.77 247.81 327.25 251.61 L 326.67 251.47 C 326.54 252.67 326.41 253.89 326.27 255.10 C 325.03 258.26 324.80 261.69 323.73 264.90 C 323.56 266.43 323.40 267.97 323.28 269.51 L 322.68 269.40 C 322.38 272.62 321.63 275.77 320.78 278.88 C 320.60 280.77 320.44 282.66 320.33 284.56 L 319.67 284.41 C 319.57 286.31 319.43 288.22 319.25 290.13 C 317.63 297.83 316.48 305.69 316.30 313.56 L 315.64 313.39 C 315.51 316.28 315.34 319.18 315.12 322.07 C 314.23 326.64 314.85 331.37 313.82 335.92 C 313.33 348.82 313.29 361.73 313.36 374.64 L 312.69 374.39 C 312.71 376.13 312.71 377.88 312.68 379.63 L 313.36 379.32 L 313.33 381.57 L 312.63 381.39 C 312.66 418.67 312.15 455.96 312.33 493.25 C 267.77 493.27 223.21 493.26 178.66 493.26 C 178.70 459.97 178.20 426.69 178.31 393.40 L 177.60 393.67 C 177.65 376.12 177.62 358.55 177.25 341.00 C 176.34 332.61 176.07 324.15 175.19 315.76 C 174.41 312.37 174.36 308.89 174.30 305.44 L 173.66 305.57 C 173.66 301.16 172.65 296.87 172.27 292.50 L 171.73 292.52 C 171.57 289.63 171.32 286.74 171.44 283.85 C 171.24 284.99 171.04 286.13 170.83 287.27 C 170.62 284.82 170.42 282.37 170.18 279.92 C 169.36 276.80 168.63 273.65 168.30 270.44 L 167.65 270.50 C 167.57 268.81 167.45 267.13 167.37 265.45 L 166.78 265.57 C 166.40 262.35 165.90 259.11 164.75 256.07 C 164.60 254.84 164.47 253.61 164.35 252.39 L 163.67 252.56 C 163.53 251.34 163.37 250.12 163.20 248.90 C 162.33 246.44 161.69 243.90 161.30 241.33 L 160.80 241.53 C 160.39 236.65 158.00 232.24 157.19 227.44 L 156.80 227.59 C 156.31 225.39 155.68 223.23 155.04 221.07 C 154.31 218.74 153.47 216.45 152.66 214.15 C 152.06 212.45 151.45 210.77 150.69 209.15 C 150.60 208.48 150.42 207.16 150.33 206.49 L 149.76 206.61 C 149.24 204.74 148.63 202.89 148.03 201.05 C 147.38 199.67 146.69 198.31 146.09 196.91 C 145.34 195.00 144.61 193.07 143.79 191.19 C 142.94 188.98 141.96 186.83 141.18 184.60 C 138.15 175.65 133.67 167.29 129.63 158.78 C 144.59 155.44 159.83 153.43 174.89 150.54 C 184.95 148.99 194.92 146.90 204.99 145.35 M 244.38 418.28 C 242.43 418.96 241.74 421.01 240.81 422.64 C 242.53 422.69 244.26 422.65 245.99 422.85 C 247.67 423.91 248.69 426.02 248.28 428.01 C 247.28 432.42 243.90 435.68 240.70 438.63 C 235.31 443.53 228.71 446.71 222.52 450.42 C 228.54 450.89 234.15 447.94 239.66 445.94 C 244.33 444.35 248.05 440.97 252.56 439.07 C 252.50 442.66 251.42 446.25 248.94 448.92 C 242.73 456.07 234.32 460.83 225.95 465.04 C 225.79 465.40 225.47 466.13 225.31 466.49 C 235.15 464.24 245.03 461.16 253.42 455.38 C 257.92 451.99 262.44 447.01 261.69 440.93 C 261.99 437.16 258.83 434.66 256.47 432.25 C 258.97 427.37 256.88 421.62 252.52 418.64 C 249.86 418.30 246.94 416.85 244.38 418.28 Z" />
<path fill="#a1a1a1" opacity="1.00" d=" M 547.04 200.27 C 550.68 200.24 554.33 200.25 557.99 200.25 C 560.56 211.89 563.15 223.54 565.64 235.21 C 568.83 223.57 571.87 211.90 574.99 200.25 C 579.18 200.25 583.37 200.25 587.57 200.25 C 590.53 212.02 593.36 223.84 596.55 235.56 C 599.12 223.79 601.72 212.03 604.30 200.26 C 607.90 200.24 611.50 200.25 615.11 200.24 C 610.91 217.48 606.71 234.71 602.55 251.96 C 598.75 252.02 594.95 252.01 591.16 251.99 C 587.83 239.37 584.43 226.76 581.10 214.14 C 577.64 226.74 574.38 239.39 570.98 252.00 C 567.11 252.00 563.24 252.00 559.37 252.00 C 555.29 234.75 551.16 217.51 547.04 200.27 Z" />
<path fill="#a1a1a1" opacity="1.00" d=" M 722.78 200.23 C 726.10 200.25 729.42 200.25 732.75 200.25 C 732.74 206.48 732.78 212.72 732.72 218.95 C 735.72 215.96 739.60 213.48 744.02 213.71 C 749.62 213.29 755.76 216.93 756.50 222.82 C 757.57 232.50 756.74 242.28 757.00 252.00 C 753.58 252.00 750.16 252.00 746.75 252.00 C 746.74 244.31 746.76 236.62 746.76 228.94 C 746.66 226.88 746.70 224.43 744.98 222.99 C 741.98 220.27 736.82 221.43 734.62 224.61 C 732.96 227.07 733.01 230.16 732.80 233.00 C 732.67 239.33 732.78 245.66 732.76 251.99 C 729.42 252.00 726.08 252.00 722.75 252.00 C 722.77 234.74 722.71 217.48 722.78 200.23 Z" />
<path fill="#00a4b4" opacity="1.00" d=" M 838.93 202.07 C 843.73 198.20 850.42 199.43 855.98 200.55 C 855.58 202.94 855.12 205.31 854.74 207.70 C 852.23 207.66 849.33 206.50 847.14 208.18 C 845.72 209.95 846.20 212.41 845.92 214.52 C 848.44 214.50 850.96 214.50 853.50 214.49 C 853.49 217.16 853.49 219.84 853.50 222.51 C 851.00 222.50 848.52 222.49 846.04 222.47 C 845.95 232.31 846.02 242.16 846.00 252.00 C 842.66 252.00 839.33 252.00 836.00 252.00 C 835.97 242.15 836.06 232.30 835.95 222.45 C 834.13 222.48 832.31 222.50 830.51 222.52 C 830.49 219.84 830.48 217.16 830.49 214.49 C 832.29 214.50 834.11 214.51 835.93 214.54 C 836.11 210.33 835.38 205.15 838.93 202.07 Z" />
<path fill="#00a4b4" opacity="1.00" d=" M 858.78 200.23 C 862.18 200.25 865.58 200.25 868.99 200.24 C 869.01 217.49 868.99 234.75 869.00 252.00 C 865.58 252.00 862.16 252.00 858.75 252.00 C 858.77 234.74 858.71 217.48 858.78 200.23 Z" />
<path fill="#a1a1a1" opacity="1.00" d=" M 699.23 207.15 C 702.65 205.13 706.08 203.14 709.51 201.15 C 709.49 205.60 709.50 210.05 709.50 214.50 C 711.74 214.50 714.00 214.50 716.26 214.50 C 716.25 217.26 716.24 220.02 716.22 222.78 C 713.97 222.76 711.73 222.75 709.50 222.74 C 709.62 229.45 709.24 236.18 709.67 242.87 C 710.77 245.53 714.12 244.05 716.16 243.64 C 716.41 246.34 716.72 249.03 716.93 251.74 C 712.26 252.98 706.88 254.01 702.53 251.25 C 699.76 249.55 699.48 245.98 699.29 243.07 C 699.16 236.30 699.29 229.53 699.25 222.76 C 697.73 222.75 696.23 222.74 694.74 222.74 C 694.74 219.99 694.75 217.25 694.74 214.50 C 696.24 214.50 697.73 214.49 699.25 214.50 C 699.24 212.04 699.24 209.60 699.23 207.15 Z" />
<path fill="#a1a1a1" opacity="1.00" d=" M 620.34 219.32 C 627.05 211.27 641.54 211.85 647.41 220.60 C 650.54 225.17 650.88 230.89 651.09 236.25 C 642.68 236.33 634.27 236.08 625.86 236.39 C 626.43 240.61 629.07 245.49 633.96 245.29 C 637.30 245.68 639.49 242.78 640.48 239.98 C 643.86 240.57 647.25 241.11 650.64 241.70 C 648.93 245.74 646.32 249.71 642.12 251.44 C 636.69 253.67 630.26 253.55 624.92 251.11 C 619.49 248.65 616.58 242.73 615.99 237.04 C 615.29 230.92 616.21 224.13 620.34 219.32 M 626.20 229.94 C 631.16 230.02 636.12 230.09 641.08 229.87 C 640.78 225.67 637.76 220.94 633.03 221.53 C 628.73 221.77 626.44 226.08 626.20 229.94 Z" />
<path fill="#a1a1a1" opacity="1.00" d=" M 656.93 224.43 C 658.42 219.67 661.80 215.15 667.03 214.32 C 673.12 213.43 680.19 212.87 685.53 216.51 C 689.83 219.53 689.20 225.37 689.26 229.98 C 689.55 237.33 688.09 245.10 691.36 252.01 C 688.00 252.00 684.65 252.01 681.30 251.97 C 680.94 250.79 680.60 249.60 680.26 248.42 C 675.09 252.95 667.12 254.74 661.02 251.05 C 654.41 247.20 654.47 235.97 661.42 232.49 C 667.05 229.78 673.46 229.58 679.37 227.67 C 679.10 225.89 679.39 223.65 677.66 222.53 C 673.61 220.26 667.71 221.41 666.12 226.18 C 663.04 225.63 659.98 225.08 656.93 224.43 M 669.07 236.99 C 666.73 237.87 665.33 240.92 666.90 243.09 C 669.02 246.96 674.70 246.22 677.34 243.32 C 679.85 241.06 679.13 237.39 679.32 234.39 C 675.91 235.27 672.36 235.72 669.07 236.99 Z" />
<path fill="#a1a1a1" opacity="1.00" d=" M 767.85 219.92 C 774.21 211.48 788.73 211.57 795.04 220.03 C 798.48 224.66 798.99 230.67 799.08 236.25 C 790.69 236.31 782.30 236.12 773.91 236.36 C 774.52 240.54 777.09 245.48 781.98 245.28 C 785.40 245.73 787.54 242.79 788.57 239.96 C 791.95 240.54 795.33 241.12 798.70 241.73 C 797.17 245.25 795.07 248.74 791.62 250.67 C 786.41 253.63 779.89 253.60 774.32 251.73 C 768.56 249.74 764.99 243.96 764.19 238.14 C 763.31 231.93 763.92 225.05 767.85 219.92 M 774.25 229.94 C 779.22 230.05 784.20 230.01 789.17 229.96 C 788.71 226.06 786.42 221.57 781.96 221.46 C 777.30 221.21 774.39 225.73 774.25 229.94 Z" />
<path fill="#a1a1a1" opacity="1.00" d=" M 806.25 214.50 C 809.41 214.50 812.57 214.50 815.74 214.50 C 815.74 216.05 815.74 217.60 815.76 219.16 C 817.65 216.86 819.64 213.94 822.94 213.77 C 825.50 213.64 828.52 213.77 830.45 215.69 C 829.93 218.67 828.78 221.48 827.83 224.33 C 825.65 223.63 823.34 222.06 821.03 223.12 C 818.22 224.11 817.35 227.40 816.97 230.03 C 816.12 237.30 816.61 244.65 816.54 251.95 C 813.10 252.01 809.67 252.01 806.24 251.99 C 806.26 239.49 806.24 226.99 806.25 214.50 Z" />
<path fill="#00a4b4" opacity="1.00" d=" M 889.39 214.59 C 895.89 212.78 903.59 213.51 908.77 218.18 C 917.48 225.49 917.50 240.58 909.06 248.11 C 899.95 256.79 881.81 253.66 877.76 241.21 C 873.95 231.17 878.29 217.56 889.39 214.59 M 894.15 222.18 C 886.99 223.76 885.76 232.64 887.66 238.56 C 889.19 243.37 895.17 246.36 899.74 243.72 C 904.95 240.85 905.52 234.01 904.32 228.80 C 903.29 224.42 898.63 221.08 894.15 222.18 Z" />
<path fill="#00a4b4" opacity="1.00" d=" M 917.84 214.51 C 921.15 214.49 924.46 214.49 927.78 214.54 C 930.02 222.51 932.30 230.47 934.60 238.42 C 936.82 230.48 938.83 222.47 940.95 214.50 C 944.21 214.49 947.47 214.49 950.74 214.54 C 952.73 222.45 954.71 230.36 956.77 238.25 C 959.37 230.41 961.46 222.41 963.84 214.50 C 967.19 214.50 970.55 214.49 973.92 214.53 C 969.88 227.01 965.87 239.50 961.89 252.00 C 958.61 252.00 955.33 252.00 952.05 252.00 C 949.92 244.26 948.03 236.46 945.71 228.78 C 943.70 236.52 941.63 244.23 939.64 251.98 C 936.33 252.00 933.02 252.00 929.71 252.01 C 925.72 239.52 921.78 227.02 917.84 214.51 Z" />
<path fill="#fdfdfd" opacity="1.00" d=" M 427.07 289.11 C 436.64 287.58 446.38 287.12 456.08 287.18 C 468.75 287.05 481.49 287.85 493.94 290.20 C 495.32 290.41 496.72 290.60 498.12 290.80 C 503.14 292.09 508.22 293.15 513.17 294.71 C 514.17 295.12 515.18 295.52 516.20 295.91 C 518.49 296.82 520.77 297.75 523.05 298.68 C 523.59 299.01 524.68 299.67 525.22 300.00 C 523.84 314.97 523.81 330.06 522.72 345.06 C 522.38 351.31 522.82 357.64 521.76 363.83 C 521.55 370.70 521.26 377.58 521.27 384.46 L 520.72 384.54 C 520.26 403.05 518.83 421.52 518.34 440.03 C 517.49 447.65 517.66 455.34 517.31 463.00 C 516.36 471.11 516.40 479.31 516.28 487.47 L 515.74 487.55 C 515.34 506.69 513.56 525.79 513.72 544.95 C 513.71 546.22 513.68 547.49 513.63 548.76 L 513.25 549.20 C 513.35 544.47 513.30 539.74 513.19 535.02 C 475.79 534.97 438.39 535.03 400.98 534.95 C 401.87 526.05 401.02 516.98 398.84 508.32 C 398.34 504.08 398.41 499.79 398.28 495.54 L 397.73 495.43 C 397.80 488.12 397.28 480.81 397.29 473.50 L 396.73 473.43 C 396.56 465.93 396.38 458.44 396.09 450.95 C 394.97 442.67 395.63 434.25 394.73 425.95 C 394.34 414.47 393.50 403.02 393.27 391.54 L 392.73 391.44 C 392.79 384.14 392.31 376.84 392.28 369.54 L 391.73 369.43 C 391.58 362.25 391.36 355.07 391.14 347.90 C 389.99 339.30 390.62 330.57 389.73 321.95 C 389.49 314.52 389.03 307.09 388.78 299.67 C 398.70 294.78 409.50 291.58 420.46 290.23 L 420.49 289.69 C 422.68 289.54 424.88 289.36 427.07 289.11 M 458.87 435.54 C 457.22 436.28 456.70 438.20 455.77 439.60 C 458.03 439.95 461.20 438.87 462.54 441.36 C 464.86 445.38 461.41 449.75 458.76 452.67 C 452.96 459.31 444.70 462.76 437.64 467.73 C 444.38 467.30 450.72 464.59 456.85 461.96 C 460.69 460.47 463.71 457.47 467.59 456.11 C 467.66 464.99 459.65 470.58 453.13 475.16 C 448.93 478.18 443.93 479.96 440.01 483.41 C 449.79 481.53 459.45 478.25 467.83 472.79 C 472.58 469.39 477.41 464.28 476.69 457.96 C 476.96 454.19 473.85 451.65 471.46 449.25 C 474.03 444.25 471.74 438.43 467.28 435.46 C 464.48 435.32 461.64 434.91 458.87 435.54 Z" />
<path fill="#2a2e33" opacity="1.00" d=" M 746.51 314.94 C 746.47 311.75 748.10 307.15 751.96 307.28 C 755.00 307.25 758.20 306.82 761.16 307.73 C 763.74 309.52 764.54 312.95 764.41 315.95 C 764.33 336.54 764.44 357.13 764.35 377.73 C 758.42 378.03 752.50 378.35 746.57 378.50 C 746.46 357.31 746.56 336.12 746.51 314.94 Z" />
<path fill="#a50312" opacity="1.00" d=" M 618.84 312.78 C 621.38 308.47 626.70 309.83 630.85 309.79 C 632.80 309.73 633.94 311.51 635.19 312.73 C 629.83 311.20 624.17 311.15 618.84 312.78 Z" />
<path fill="#2a2e33" opacity="1.00" d=" M 618.84 312.78 C 624.17 311.15 629.83 311.20 635.19 312.73 C 635.63 315.13 635.98 317.56 635.94 320.02 C 635.88 341.06 635.93 362.11 635.91 383.16 C 629.98 383.46 624.05 383.59 618.12 383.82 C 618.13 362.22 618.13 340.62 618.11 319.02 C 618.12 316.92 618.47 314.84 618.84 312.78 Z" />
<path fill="#a9abb1" opacity="1.00" d=" M 952.33 348.45 C 954.09 347.59 956.10 347.52 958.04 347.52 C 1018.37 347.57 1078.69 347.50 1139.02 347.56 C 1144.28 347.09 1148.15 351.96 1147.85 356.94 C 1147.99 408.30 1147.86 459.66 1147.92 511.01 C 1147.99 514.15 1147.28 517.68 1144.55 519.60 C 1142.18 521.65 1138.86 521.32 1135.96 521.44 C 1075.99 521.46 1016.02 521.47 956.06 521.43 C 951.63 521.51 947.39 517.66 948.00 513.05 C 948.00 460.69 948.01 408.34 947.99 355.98 C 947.66 352.84 949.29 349.58 952.33 348.45 M 953.57 350.57 L 954.97 351.02 C 952.47 351.84 951.03 354.37 951.23 356.93 C 951.20 408.62 951.23 460.31 951.20 512.00 C 950.98 514.56 952.41 517.08 954.89 517.95 L 953.48 518.47 C 966.61 519.65 979.86 518.69 993.05 519.00 C 1037.69 518.99 1082.33 519.02 1126.97 518.99 C 1131.15 518.83 1135.46 519.39 1139.51 518.05 C 1141.93 518.34 1144.29 516.79 1143.92 514.13 C 1144.10 466.43 1143.95 418.72 1144.00 371.01 C 1144.06 365.29 1143.64 359.53 1144.53 353.85 C 1143.13 352.80 1141.74 351.71 1140.16 350.98 L 1141.53 350.45 C 1136.70 349.72 1131.82 350.04 1126.97 350.00 C 1073.98 349.99 1020.99 349.98 968.00 350.00 C 963.18 350.01 958.33 349.68 953.57 350.57 Z" />
<path fill="#848588" opacity="1.00" d=" M 953.57 350.57 C 958.33 349.68 963.18 350.01 968.00 350.00 C 1020.99 349.98 1073.98 349.99 1126.97 350.00 C 1131.82 350.04 1136.70 349.72 1141.53 350.45 L 1140.16 350.98 C 1078.44 351.25 1016.70 351.13 954.97 351.02 L 953.57 350.57 Z" />
<path fill="#ffffff" opacity="1.00" d=" M 954.97 351.02 C 1016.70 351.13 1078.44 351.25 1140.16 350.98 C 1141.74 351.71 1143.13 352.80 1144.53 353.85 C 1143.64 359.53 1144.06 365.29 1144.00 371.01 C 1143.95 418.72 1144.10 466.43 1143.92 514.13 C 1144.29 516.79 1141.93 518.34 1139.51 518.05 C 1077.97 517.71 1016.43 517.88 954.89 517.95 C 952.41 517.08 950.98 514.56 951.20 512.00 C 951.23 460.31 951.20 408.62 951.23 356.93 C 951.03 354.37 952.47 351.84 954.97 351.02 M 962.12 365.48 C 960.61 363.91 959.06 362.38 957.47 360.93 C 957.28 364.30 960.19 366.22 962.21 368.40 C 960.68 368.40 959.16 368.42 957.66 368.43 C 957.63 368.98 957.59 370.07 957.57 370.61 C 961.30 370.62 965.04 370.62 968.79 370.66 C 968.77 370.13 968.74 369.09 968.73 368.57 C 967.15 368.41 965.58 368.29 964.07 367.92 C 964.42 365.62 967.09 365.02 968.67 363.72 C 968.69 362.99 968.71 361.54 968.73 360.81 C 966.49 362.32 964.29 363.88 962.12 365.48 M 957.25 372.68 C 957.64 376.29 961.97 374.40 964.40 374.99 C 962.22 376.60 959.95 378.07 957.66 379.50 C 957.62 380.07 957.54 381.20 957.50 381.77 C 961.26 381.83 965.02 381.84 968.78 381.78 C 968.73 381.22 968.64 380.12 968.60 379.56 C 966.29 379.56 963.97 379.55 961.68 379.51 C 964.25 377.44 968.50 376.46 969.01 372.67 C 965.08 372.62 961.16 372.61 957.25 372.68 M 957.44 384.28 C 957.51 384.80 957.66 385.85 957.73 386.37 C 961.17 386.40 964.61 386.40 968.05 386.22 C 966.59 388.07 966.44 390.37 966.43 392.62 C 963.46 392.60 960.50 392.60 957.55 392.61 C 957.62 393.38 957.70 394.15 957.79 394.92 C 961.39 394.81 964.99 394.80 968.60 394.86 C 968.49 391.31 968.33 387.75 968.60 384.21 C 964.88 384.22 961.15 384.21 957.44 384.28 M 963.54 397.22 C 963.53 398.70 963.53 400.19 963.55 401.68 C 964.01 401.70 964.94 401.72 965.41 401.74 C 965.38 400.24 965.38 398.74 965.39 397.26 C 964.92 397.25 964.00 397.23 963.54 397.22 M 959.34 403.37 C 956.76 405.24 957.84 408.81 957.46 411.52 C 961.14 411.57 964.82 411.59 968.51 411.63 C 968.51 411.06 968.49 409.91 968.48 409.34 C 967.21 409.37 965.95 409.41 964.71 409.46 C 964.35 407.51 964.62 405.26 963.26 403.66 C 962.06 403.00 960.61 403.12 959.34 403.37 M 957.58 412.80 C 957.57 415.73 957.56 418.66 957.54 421.60 L 959.59 421.66 C 959.57 420.84 959.51 419.19 959.49 418.37 C 962.47 418.39 965.46 418.41 968.45 418.44 L 968.51 416.20 C 965.52 416.22 962.53 416.24 959.55 416.31 C 959.53 415.14 959.53 413.97 959.54 412.82 L 957.58 412.80 M 1076.38 421.33 C 1076.44 423.30 1076.48 425.26 1076.60 427.24 C 1074.77 426.48 1072.84 424.89 1070.83 426.07 C 1065.69 427.89 1065.91 436.79 1071.06 438.49 C 1072.76 438.98 1074.42 438.15 1076.09 437.85 C 1077.30 438.15 1078.52 438.45 1079.76 438.76 C 1079.74 432.93 1079.68 427.11 1079.79 421.29 C 1078.64 421.29 1077.50 421.30 1076.38 421.33 M 1031.37 422.23 C 1031.05 423.61 1030.76 425.00 1030.47 426.39 C 1028.37 424.92 1026.41 426.16 1024.63 427.36 C 1023.69 426.13 1022.19 425.86 1020.81 425.53 C 1020.75 429.85 1020.79 434.18 1020.76 438.50 C 1021.64 438.51 1023.39 438.53 1024.26 438.53 C 1024.34 435.69 1023.92 432.70 1024.92 429.98 C 1026.67 428.81 1028.83 428.55 1030.84 428.02 C 1031.15 431.16 1031.04 434.35 1031.50 437.48 C 1032.92 439.22 1035.66 438.25 1037.63 438.53 C 1036.83 437.18 1035.72 436.09 1034.74 434.91 C 1034.27 432.93 1034.43 430.87 1034.36 428.86 C 1035.59 428.48 1036.83 427.98 1037.37 426.70 C 1034.67 426.48 1034.09 424.64 1034.32 422.32 C 1033.32 422.28 1032.34 422.25 1031.37 422.23 M 1038.73 421.27 C 1038.81 427.12 1038.69 432.97 1038.80 438.83 C 1040.08 438.54 1041.35 438.18 1042.60 437.73 C 1044.33 438.48 1046.39 439.18 1048.21 438.22 C 1052.73 435.64 1052.28 427.28 1047.05 425.76 C 1045.02 425.14 1043.39 426.67 1041.74 427.54 C 1042.01 425.49 1042.22 423.43 1042.33 421.36 C 1041.43 421.34 1039.63 421.29 1038.73 421.27 M 1091.60 421.25 C 1091.62 423.21 1091.68 425.18 1091.77 427.14 C 1089.95 426.48 1088.03 424.98 1086.06 426.00 C 1081.11 427.88 1081.03 435.89 1085.58 438.28 C 1087.45 439.12 1089.51 438.53 1091.24 437.62 C 1092.38 438.47 1093.80 438.54 1095.19 438.65 C 1095.07 432.89 1095.17 427.12 1095.18 421.36 C 1094.28 421.34 1092.49 421.28 1091.60 421.25 M 1120.02 421.38 C 1120.10 423.39 1120.19 425.40 1120.33 427.41 C 1118.66 426.56 1116.95 425.09 1114.97 425.86 C 1109.81 427.33 1109.27 435.55 1113.81 438.07 C 1115.66 439.26 1117.97 438.49 1119.80 437.60 C 1120.93 438.20 1122.15 438.61 1123.45 438.82 C 1123.49 432.97 1123.42 427.11 1123.49 421.26 C 1122.63 421.29 1120.89 421.35 1120.02 421.38 M 973.30 426.41 C 971.43 427.30 970.49 430.25 972.38 431.62 C 974.82 433.00 977.61 433.63 980.11 434.94 C 979.15 435.66 978.12 436.22 977.03 436.62 C 974.99 435.57 973.10 434.12 970.68 434.16 C 971.66 438.74 977.15 439.76 980.88 437.98 C 982.62 436.92 983.06 434.64 982.43 432.81 C 980.18 430.99 977.19 430.63 974.52 429.77 C 976.02 425.74 980.18 430.39 982.98 429.88 C 981.66 425.88 976.82 424.48 973.30 426.41 M 984.99 426.92 C 984.61 430.76 984.94 434.62 984.86 438.48 C 985.74 438.51 987.50 438.56 988.38 438.58 C 988.37 435.50 988.42 432.42 988.47 429.34 C 989.80 428.91 991.28 427.90 992.51 429.19 C 992.91 432.28 992.70 435.41 992.70 438.53 C 993.59 438.53 995.36 438.54 996.25 438.55 C 996.28 435.53 996.07 432.48 996.60 429.50 C 997.51 428.07 999.48 427.95 1000.49 429.37 C 1000.99 432.38 1000.76 435.47 1000.79 438.52 C 1001.68 438.53 1003.45 438.55 1004.34 438.56 C 1004.11 434.84 1004.99 430.85 1003.47 427.35 C 1001.62 424.60 998.11 425.77 995.75 427.06 C 993.58 425.49 991.06 425.34 988.79 426.79 C 987.59 426.56 985.36 424.84 984.99 426.92 M 1005.92 429.67 C 1007.03 429.67 1008.16 429.68 1009.30 429.68 C 1011.07 428.16 1014.64 426.40 1014.68 430.25 C 1012.08 431.23 1009.11 431.26 1006.79 432.86 C 1005.58 434.92 1006.31 438.39 1009.06 438.59 C 1012.11 438.57 1015.16 438.23 1018.22 438.50 C 1017.66 434.70 1018.21 430.77 1017.29 427.04 C 1013.56 424.36 1007.96 425.46 1005.92 429.67 M 1056.91 438.18 C 1060.46 439.77 1064.42 437.95 1066.07 434.54 C 1063.78 434.40 1061.89 435.62 1059.84 436.34 C 1057.93 436.76 1057.10 434.53 1056.06 433.38 C 1059.36 433.15 1062.68 433.12 1065.98 432.81 C 1066.03 428.72 1062.41 424.39 1058.03 425.92 C 1052.45 427.16 1051.67 435.97 1056.91 438.18 M 1100.04 437.94 C 1103.56 439.88 1108.10 438.20 1109.66 434.50 C 1107.27 434.45 1105.31 435.81 1103.12 436.44 C 1101.43 436.27 1100.75 434.48 1099.76 433.38 C 1103.02 433.15 1106.30 433.11 1109.59 432.88 C 1109.69 428.85 1106.32 424.64 1101.99 425.83 C 1096.44 426.79 1095.30 435.23 1100.04 437.94 M 1136.80 450.65 C 1136.81 461.29 1136.81 471.92 1136.80 482.56 C 1138.85 482.54 1140.91 482.52 1142.98 482.49 C 1142.81 471.89 1142.85 461.29 1142.95 450.69 C 1140.89 450.67 1138.84 450.66 1136.80 450.65 M 982.07 504.26 C 982.05 507.46 982.05 510.68 982.05 513.89 C 1007.76 513.87 1033.47 513.84 1059.18 513.91 C 1059.19 510.69 1059.18 507.47 1059.16 504.26 C 1033.47 504.33 1007.77 504.33 982.07 504.26 M 1062.23 504.26 C 1062.22 507.29 1062.22 510.33 1062.15 513.37 C 1077.75 513.43 1093.36 513.40 1108.97 513.38 C 1108.89 510.34 1108.88 507.30 1108.90 504.27 C 1093.34 504.32 1077.78 504.33 1062.23 504.26 Z" />
<path fill="#808080" opacity="1.00" d=" M 962.12 365.48 C 964.29 363.88 966.49 362.32 968.73 360.81 C 968.71 361.54 968.69 362.99 968.67 363.72 C 967.09 365.02 964.42 365.62 964.07 367.92 C 965.58 368.29 967.15 368.41 968.73 368.57 C 968.74 369.09 968.77 370.13 968.79 370.66 C 965.04 370.62 961.30 370.62 957.57 370.61 C 957.59 370.07 957.63 368.98 957.66 368.43 C 959.16 368.42 960.68 368.40 962.21 368.40 C 960.19 366.22 957.28 364.30 957.47 360.93 C 959.06 362.38 960.61 363.91 962.12 365.48 Z" />
<path fill="#8d8d8d" opacity="1.00" d=" M 957.25 372.68 C 961.16 372.61 965.08 372.62 969.01 372.67 C 968.50 376.46 964.25 377.44 961.68 379.51 C 963.97 379.55 966.29 379.56 968.60 379.56 C 968.64 380.12 968.73 381.22 968.78 381.78 C 965.02 381.84 961.26 381.83 957.50 381.77 C 957.54 381.20 957.62 380.07 957.66 379.50 C 959.95 378.07 962.22 376.60 964.40 374.99 C 961.97 374.40 957.64 376.29 957.25 372.68 Z" />
<path fill="#9d0413" opacity="1.00" d=" M 764.35 377.73 C 771.93 377.46 779.50 377.08 787.07 376.77 C 790.37 376.42 792.55 379.20 793.57 381.97 C 786.77 380.91 779.89 380.34 773.02 380.92 C 720.51 383.08 667.97 384.61 615.47 386.95 C 609.94 386.87 604.46 386.09 598.94 385.79 C 597.33 385.54 595.27 386.28 595.01 388.08 C 594.27 393.02 594.95 398.03 595.04 403.00 C 595.56 422.67 595.51 442.36 596.18 462.03 C 596.35 466.12 595.88 470.29 596.72 474.34 C 597.68 477.08 600.84 477.88 603.27 478.83 C 599.79 478.01 593.37 479.17 593.06 474.15 C 592.90 446.10 593.15 418.03 593.13 389.98 C 592.90 387.81 593.79 384.89 596.38 384.79 C 603.61 384.32 610.88 384.32 618.12 383.82 C 624.05 383.59 629.98 383.46 635.91 383.16 C 672.79 381.50 709.68 380.03 746.57 378.50 C 752.50 378.35 758.42 378.03 764.35 377.73 Z" />
<path fill="#3e3d3d" opacity="1.00" d=" M 615.47 386.95 C 667.97 384.61 720.51 383.08 773.02 380.92 C 779.89 380.34 786.77 380.91 793.57 381.97 C 815.57 384.87 837.67 387.08 859.61 390.34 C 814.77 392.74 769.88 394.31 725.02 396.44 C 714.37 396.60 703.75 397.85 693.10 397.45 C 690.63 395.84 687.90 394.54 684.92 394.34 C 670.27 392.98 655.64 391.50 641.01 389.98 C 632.49 389.05 623.90 388.62 615.47 386.95 Z" />
<path fill="#808080" opacity="1.00" d=" M 957.44 384.28 C 961.15 384.21 964.88 384.22 968.60 384.21 C 968.33 387.75 968.49 391.31 968.60 394.86 C 964.99 394.80 961.39 394.81 957.79 394.92 C 957.70 394.15 957.62 393.38 957.55 392.61 C 960.50 392.60 963.46 392.60 966.43 392.62 C 966.44 390.37 966.59 388.07 968.05 386.22 C 964.61 386.40 961.17 386.40 957.73 386.37 C 957.66 385.85 957.51 384.80 957.44 384.28 Z" />
<path fill="#515151" opacity="1.00" d=" M 595.01 388.08 C 595.27 386.28 597.33 385.54 598.94 385.79 C 604.46 386.09 609.94 386.87 615.47 386.95 C 623.90 388.62 632.49 389.05 641.01 389.98 C 655.64 391.50 670.27 392.98 684.92 394.34 C 687.90 394.54 690.63 395.84 693.10 397.45 C 691.48 398.99 689.08 400.39 689.26 402.97 C 688.83 433.30 688.81 463.65 688.50 493.99 C 688.59 498.04 687.42 503.41 691.92 505.55 C 690.30 505.67 688.64 505.79 687.07 505.31 C 659.12 496.55 631.26 487.45 603.27 478.83 C 600.84 477.88 597.68 477.08 596.72 474.34 C 595.88 470.29 596.35 466.12 596.18 462.03 C 595.51 442.36 595.56 422.67 595.04 403.00 C 594.95 398.03 594.27 393.02 595.01 388.08 Z" />
<path fill="#970816" opacity="1.00" d=" M 859.61 390.34 C 873.43 390.10 887.24 389.24 901.05 388.68 C 903.06 388.27 904.57 389.73 906.06 390.85 C 905.93 421.24 906.03 451.63 906.00 482.02 C 906.45 484.75 904.17 487.13 901.51 487.24 C 831.66 493.40 761.77 499.30 691.92 505.55 C 687.42 503.41 688.59 498.04 688.50 493.99 C 688.81 463.65 688.83 433.30 689.26 402.97 C 689.08 400.39 691.48 398.99 693.10 397.45 C 703.75 397.85 714.37 396.60 725.02 396.44 C 769.88 394.31 814.77 392.74 859.61 390.34 M 839.43 404.73 C 803.62 406.30 767.80 407.71 731.99 409.20 C 730.21 409.31 727.99 409.32 727.09 411.19 C 725.60 414.20 726.38 417.74 726.22 420.99 C 726.35 441.01 726.41 461.04 726.47 481.07 C 726.40 483.20 726.86 485.84 729.09 486.77 C 733.41 487.04 737.71 486.27 742.02 486.01 C 779.36 483.02 816.69 479.88 854.04 476.97 C 856.05 476.75 858.69 476.74 859.48 474.41 C 860.47 471.40 860.06 468.15 860.12 465.04 C 859.72 446.34 859.92 427.64 859.72 408.95 C 859.79 406.82 858.67 403.73 856.05 404.16 C 850.50 404.16 844.97 404.62 839.43 404.73 M 875.17 403.99 C 872.97 405.16 872.99 407.82 873.01 409.97 C 873.24 428.32 873.34 446.67 873.49 465.02 C 873.40 467.12 874.02 469.54 876.17 470.45 C 879.14 470.59 882.20 470.05 884.97 468.95 C 887.40 467.83 887.92 464.93 887.82 462.53 C 887.45 448.35 887.19 434.18 886.72 420.00 C 886.50 415.61 886.90 411.16 886.19 406.81 C 884.60 402.49 878.75 403.37 875.17 403.99 M 717.15 433.20 C 715.15 434.09 716.13 437.07 718.04 437.44 C 719.35 437.07 720.22 436.24 720.66 434.94 C 720.19 433.66 718.48 432.03 717.15 433.20 M 894.28 433.43 C 889.41 434.72 888.45 441.86 892.46 444.69 C 896.64 447.94 903.94 444.50 903.15 438.95 C 902.96 434.62 898.22 431.93 894.28 433.43 M 717.17 442.09 C 714.22 443.47 717.55 448.06 719.71 445.55 C 722.03 444.11 718.98 440.59 717.17 442.09 M 700.40 447.41 C 696.30 449.59 696.25 456.25 700.31 458.50 C 704.39 461.17 710.87 458.09 710.50 452.96 C 710.81 447.86 704.49 444.94 700.40 447.41 M 717.18 451.04 C 714.84 451.96 716.50 456.22 718.96 454.85 C 722.08 454.35 719.66 449.22 717.18 451.04 M 717.11 459.95 C 714.09 461.29 717.47 465.87 719.67 463.51 C 721.94 462.03 719.22 458.29 717.11 459.95 M 717.29 468.41 C 715.79 469.74 718.13 472.03 719.45 470.54 C 720.89 469.21 718.59 466.96 717.29 468.41 Z" />
<path fill="#747474" opacity="1.00" d=" M 963.54 397.22 C 964.00 397.23 964.92 397.25 965.39 397.26 C 965.38 398.74 965.38 400.24 965.41 401.74 C 964.94 401.72 964.01 401.70 963.55 401.68 C 963.53 400.19 963.53 398.70 963.54 397.22 Z" />
<path fill="#7d7d7d" opacity="1.00" d=" M 959.34 403.37 C 960.61 403.12 962.06 403.00 963.26 403.66 C 964.62 405.26 964.35 407.51 964.71 409.46 C 965.95 409.41 967.21 409.37 968.48 409.34 C 968.49 409.91 968.51 411.06 968.51 411.63 C 964.82 411.59 961.14 411.57 957.46 411.52 C 957.84 408.81 956.76 405.24 959.34 403.37 M 959.58 405.44 C 959.47 406.77 959.37 408.10 959.29 409.44 C 960.44 409.43 961.61 409.43 962.78 409.43 C 962.67 408.08 962.56 406.73 962.47 405.39 C 961.49 405.40 960.53 405.42 959.58 405.44 Z" />
<path fill="#2a2e33" opacity="1.00" d=" M 839.43 404.73 C 844.97 404.62 850.50 404.16 856.05 404.16 C 858.67 403.73 859.79 406.82 859.72 408.95 C 859.92 427.64 859.72 446.34 860.12 465.04 C 860.06 468.15 860.47 471.40 859.48 474.41 C 858.69 476.74 856.05 476.75 854.04 476.97 C 816.69 479.88 779.36 483.02 742.02 486.01 C 737.71 486.27 733.41 487.04 729.09 486.77 C 726.86 485.84 726.40 483.20 726.47 481.07 C 726.41 461.04 726.35 441.01 726.22 420.99 C 726.38 417.74 725.60 414.20 727.09 411.19 C 727.99 409.32 730.21 409.31 731.99 409.20 C 767.80 407.71 803.62 406.30 839.43 404.73 M 842.39 412.66 C 841.90 413.88 841.45 415.11 840.99 416.34 C 839.46 416.53 837.83 416.49 836.45 417.27 C 835.99 419.28 835.56 422.10 837.72 423.32 C 839.73 423.71 841.79 423.30 843.82 423.17 C 843.63 419.65 844.04 415.91 842.39 412.66 M 812.74 414.71 C 812.75 415.38 812.77 416.73 812.78 417.41 C 811.20 417.51 809.30 416.85 808.05 418.11 C 806.67 420.05 807.11 423.56 809.61 424.36 C 811.62 424.71 813.65 424.20 815.66 424.03 C 815.39 420.72 815.11 417.41 814.81 414.11 C 814.29 414.26 813.25 414.56 812.74 414.71 M 823.27 413.42 C 823.08 414.20 822.71 415.77 822.52 416.56 C 821.09 416.80 819.66 416.98 818.28 417.40 C 816.35 419.00 816.85 422.82 819.16 423.89 C 821.15 424.15 823.17 423.97 825.19 423.94 C 824.67 420.48 826.10 416.07 823.27 413.42 M 789.06 414.35 C 788.72 417.91 788.92 421.49 789.31 425.04 C 791.70 424.75 794.87 425.92 796.60 423.72 C 797.18 422.13 797.12 420.22 796.21 418.77 C 794.87 417.81 793.07 417.93 791.54 417.54 C 790.72 416.46 789.88 415.41 789.06 414.35 M 783.58 415.98 C 783.20 416.95 782.82 417.93 782.45 418.91 C 783.04 420.79 783.51 422.73 784.40 424.51 C 785.50 424.80 786.62 425.06 787.76 425.28 C 787.02 424.17 786.25 423.08 785.64 421.91 C 785.88 420.64 786.30 419.43 786.69 418.20 C 785.65 417.45 784.61 416.71 783.58 415.98 M 829.71 416.50 C 826.21 416.96 825.97 422.58 829.16 423.71 C 831.19 424.73 833.15 423.41 834.78 422.26 C 832.74 422.03 830.74 421.86 828.72 421.68 C 830.83 421.04 832.97 420.42 835.10 419.82 C 833.79 418.12 832.26 415.49 829.71 416.50 M 798.95 423.04 C 800.31 425.93 804.35 425.25 806.05 423.04 C 804.11 422.91 802.21 422.79 800.32 422.46 C 802.33 421.86 804.39 421.35 806.46 420.88 C 805.49 419.22 804.43 416.82 802.07 417.25 C 799.15 417.11 797.27 420.67 798.95 423.04 M 766.70 420.48 C 768.56 420.43 770.41 420.32 772.28 420.23 C 770.49 420.99 768.70 421.74 766.92 422.49 C 766.41 426.84 771.48 425.53 774.20 425.64 C 773.80 423.19 774.78 419.30 771.69 418.35 C 769.65 417.57 767.88 418.97 766.70 420.48 M 775.58 418.63 C 775.87 421.18 776.13 423.78 777.07 426.20 C 778.88 425.16 778.41 423.05 778.47 421.33 C 779.46 420.27 780.47 419.23 781.48 418.18 C 779.50 418.31 777.54 418.46 775.58 418.63 M 743.84 421.65 C 745.76 422.74 747.68 423.81 749.61 424.89 C 747.88 424.74 746.18 424.60 744.46 424.50 C 746.13 427.89 751.44 427.22 752.12 423.45 C 750.26 422.64 748.41 421.83 746.57 421.02 C 748.26 420.97 749.96 420.90 751.67 420.82 C 750.48 420.16 749.53 418.73 748.03 418.90 C 746.08 418.69 745.06 420.51 743.84 421.65 M 753.33 419.33 C 753.40 421.50 753.47 423.69 753.53 425.87 C 754.02 425.87 755.00 425.89 755.48 425.90 C 755.73 423.56 754.66 419.91 758.28 420.26 C 758.33 422.07 758.41 423.90 758.48 425.73 C 758.98 425.75 759.99 425.78 760.50 425.79 C 760.56 423.92 759.82 421.78 760.99 420.14 C 764.11 419.87 762.92 424.22 763.69 426.21 C 766.42 425.03 765.34 421.03 764.10 419.07 C 760.51 419.15 756.92 419.42 753.33 419.33 M 841.64 430.83 C 840.95 432.93 840.85 435.10 841.51 437.23 C 842.04 437.60 843.11 438.35 843.65 438.72 C 845.12 438.43 846.94 438.25 847.71 436.72 C 849.15 434.91 847.89 432.69 847.32 430.82 C 846.72 430.56 845.50 430.04 844.89 429.79 C 843.80 430.13 842.72 430.48 841.64 430.83 M 783.70 439.62 C 784.21 439.71 785.23 439.89 785.74 439.98 C 785.23 438.44 784.74 436.85 785.17 435.23 C 786.30 435.35 787.43 435.49 788.57 435.63 C 788.65 437.93 787.36 439.58 785.44 440.78 C 789.32 441.49 790.69 436.79 788.42 434.44 C 787.14 434.43 785.87 434.49 784.61 434.62 C 784.57 433.68 784.49 431.81 784.45 430.87 C 782.87 433.52 783.88 436.71 783.70 439.62 M 796.06 430.81 C 796.55 433.77 796.05 436.78 796.38 439.75 C 796.79 440.00 797.61 440.50 798.02 440.74 C 797.85 437.44 797.55 434.14 797.64 430.84 C 797.24 430.83 796.45 430.82 796.06 430.81 M 803.59 433.91 C 802.92 433.81 801.57 433.62 800.90 433.53 C 800.50 434.07 799.70 435.15 799.30 435.70 C 799.58 436.96 799.56 438.39 800.34 439.50 C 802.04 439.67 803.76 439.58 805.48 439.61 C 805.31 436.45 805.02 433.30 804.38 430.20 C 804.08 431.42 803.81 432.66 803.59 433.91 M 824.84 430.46 C 824.85 433.39 824.81 436.33 825.12 439.26 C 826.52 439.39 827.20 438.63 827.17 436.97 C 829.00 436.29 831.94 435.62 831.15 432.97 C 830.80 429.85 827.01 430.74 824.84 430.46 M 833.24 430.45 C 833.31 433.26 833.36 436.08 833.35 438.90 C 833.66 438.86 834.27 438.79 834.58 438.75 C 834.56 437.79 834.52 435.87 834.50 434.91 C 836.21 436.18 837.68 437.74 839.19 439.25 C 838.72 438.12 838.25 437.00 837.76 435.89 C 838.16 434.67 839.10 433.46 838.72 432.12 C 838.14 429.65 835.04 430.89 833.24 430.45 M 765.72 441.35 C 766.41 441.25 767.15 441.18 767.86 441.10 C 766.16 439.68 765.48 436.97 767.48 435.49 C 766.68 434.59 765.80 433.68 765.05 432.78 C 764.04 435.63 765.23 438.52 765.72 441.35 M 807.82 433.78 C 807.31 435.29 807.29 436.90 807.14 438.48 L 808.81 438.57 C 808.04 439.51 807.28 440.46 806.52 441.41 C 808.49 442.12 810.71 442.77 812.54 441.30 C 812.85 438.66 812.68 436.00 812.76 433.36 C 811.10 433.49 809.44 433.48 807.82 433.78 M 815.40 433.25 C 815.39 435.24 814.86 437.38 815.78 439.26 C 817.27 439.88 818.74 439.23 820.11 438.62 C 820.20 437.37 820.31 436.14 820.45 434.91 C 819.18 433.34 817.27 433.19 815.40 433.25 M 770.21 440.85 C 771.99 442.29 774.02 440.68 775.29 439.37 C 773.34 440.06 771.54 439.87 769.90 438.79 C 771.67 438.44 773.47 438.17 775.27 437.89 C 774.44 436.54 773.91 434.31 771.96 434.33 C 768.76 434.39 767.65 439.08 770.21 440.85 M 776.52 435.69 C 776.10 437.16 776.29 438.74 776.78 440.18 C 778.27 440.83 779.93 440.51 781.51 440.51 C 781.44 438.68 782.15 436.60 781.05 434.99 C 779.63 434.06 777.46 434.14 776.52 435.69 M 790.98 434.24 C 791.09 436.47 791.20 438.70 791.34 440.93 C 791.75 440.73 792.57 440.34 792.98 440.14 C 792.92 438.83 792.87 437.53 792.84 436.24 C 793.76 435.43 794.68 434.62 795.60 433.81 C 794.05 433.94 792.51 434.09 790.98 434.24 M 746.50 435.70 C 746.68 438.04 746.35 440.58 747.56 442.71 C 747.74 440.63 747.73 438.53 747.73 436.45 C 748.40 436.50 749.74 436.59 750.41 436.64 C 750.50 438.65 750.62 440.66 750.92 442.66 C 751.95 440.72 751.58 438.49 751.63 436.40 C 752.31 436.45 753.68 436.55 754.37 436.60 C 754.37 438.30 754.38 440.02 754.40 441.74 C 754.72 441.72 755.35 441.68 755.67 441.66 C 755.54 439.63 755.43 437.61 755.29 435.59 C 752.36 435.72 749.42 435.76 746.50 435.70 M 759.38 441.68 C 761.00 442.43 762.39 440.75 763.32 439.64 C 761.52 440.28 759.85 440.13 758.29 439.20 C 759.67 438.32 763.27 439.50 763.05 436.99 C 762.36 435.61 760.63 433.99 759.04 435.01 C 756.23 436.11 756.51 440.88 759.38 441.68 M 823.51 452.67 C 824.29 452.27 825.85 451.47 826.64 451.07 C 826.75 453.55 826.30 456.26 827.53 458.56 C 827.91 455.39 827.76 452.19 827.48 449.03 C 826.07 450.14 824.71 451.33 823.51 452.67 M 832.36 449.52 C 829.24 451.45 830.07 457.56 833.95 457.96 C 839.37 457.67 837.66 446.87 832.36 449.52 M 839.81 449.76 C 838.68 452.53 838.90 456.01 841.48 457.90 C 842.56 457.28 844.19 457.14 844.67 455.81 C 846.09 453.82 844.68 451.50 844.27 449.43 C 842.77 449.43 841.23 449.22 839.81 449.76 M 800.01 453.55 C 801.13 453.08 802.24 452.60 803.36 452.11 C 803.33 454.34 803.34 456.58 803.34 458.82 C 803.66 458.82 804.31 458.81 804.63 458.81 C 804.51 455.93 804.45 453.05 804.28 450.18 C 802.70 451.11 801.22 452.18 800.01 453.55 M 806.03 453.25 C 806.76 453.03 808.24 452.58 808.98 452.36 C 809.38 454.67 808.10 458.05 810.77 459.35 C 810.91 456.17 810.76 453.00 810.50 449.84 C 808.66 450.48 807.12 451.63 806.03 453.25 M 812.79 452.87 C 814.46 451.97 816.19 451.07 818.19 451.38 C 816.93 454.04 814.87 456.13 812.88 458.25 C 815.03 458.27 817.18 458.27 819.34 458.27 L 819.33 457.17 C 818.22 457.25 816.00 457.42 814.89 457.51 C 816.80 455.51 819.29 453.53 818.73 450.42 C 816.36 450.20 813.49 449.98 812.79 452.87 M 774.84 453.23 C 774.93 453.63 775.13 454.43 775.22 454.83 C 775.73 454.49 776.73 453.82 777.24 453.49 C 777.62 455.93 776.37 459.37 779.12 460.78 C 779.29 457.57 779.05 454.36 778.61 451.19 C 777.34 451.86 776.08 452.54 774.84 453.23 M 791.44 451.45 C 788.20 453.12 789.50 460.17 793.53 459.41 C 796.37 458.66 795.88 455.26 795.56 453.04 C 795.28 451.16 792.89 451.00 791.44 451.45 M 748.46 455.70 C 749.27 455.31 750.90 454.54 751.71 454.16 C 751.68 456.35 751.69 458.56 751.68 460.76 C 752.12 460.73 753.00 460.66 753.45 460.63 C 753.06 457.83 752.72 455.03 752.42 452.23 C 751.03 453.31 749.68 454.44 748.46 455.70 M 756.98 452.94 C 753.04 455.38 758.56 459.83 761.20 456.56 C 761.86 461.05 757.62 458.96 755.43 459.38 C 757.34 460.96 761.73 461.53 761.73 458.04 C 762.81 455.09 760.21 450.75 756.98 452.94 M 764.96 452.88 C 763.70 455.36 763.89 458.83 766.33 460.55 C 766.95 460.53 768.20 460.48 768.83 460.46 C 769.59 459.20 770.29 457.89 770.93 456.56 C 769.52 455.92 768.09 455.30 766.63 454.84 C 767.61 455.68 768.62 456.49 769.65 457.29 C 768.85 458.83 767.51 459.63 765.77 459.54 C 765.60 457.45 765.48 455.38 765.44 453.30 C 767.16 453.38 768.86 453.53 770.59 453.60 C 769.04 452.30 766.75 451.70 764.96 452.88 M 782.51 451.41 C 780.68 454.22 780.67 459.89 785.00 460.12 C 789.50 459.12 788.98 451.54 784.41 450.87 C 785.76 453.58 787.26 456.65 784.86 459.31 C 783.49 457.56 781.82 454.34 784.48 452.86 C 783.82 452.36 783.16 451.88 782.51 451.41 M 821.39 456.57 C 820.93 458.21 821.50 458.74 823.11 458.16 C 823.57 456.52 823.00 455.99 821.39 456.57 M 797.80 457.46 C 797.31 459.09 797.88 459.62 799.50 459.06 C 799.97 457.43 799.41 456.89 797.80 457.46 M 772.19 458.50 C 771.65 460.11 772.20 460.67 773.85 460.15 C 774.37 458.53 773.81 457.98 772.19 458.50 Z" />
<path fill="#2a2e33" opacity="1.00" d=" M 875.17 403.99 C 878.75 403.37 884.60 402.49 886.19 406.81 C 886.90 411.16 886.50 415.61 886.72 420.00 C 887.19 434.18 887.45 448.35 887.82 462.53 C 887.92 464.93 887.40 467.83 884.97 468.95 C 882.20 470.05 879.14 470.59 876.17 470.45 C 874.02 469.54 873.40 467.12 873.49 465.02 C 873.34 446.67 873.24 428.32 873.01 409.97 C 872.99 407.82 872.97 405.16 875.17 403.99 M 878.38 412.33 C 876.39 413.50 877.06 416.16 876.86 418.07 C 877.02 430.39 876.75 442.73 876.98 455.04 C 876.63 457.00 879.06 459.14 880.81 457.90 C 882.74 457.10 882.24 454.74 882.44 453.08 C 882.29 440.41 882.54 427.73 882.33 415.07 C 882.69 412.96 880.20 411.08 878.38 412.33 Z" />
<path fill="#fefefe" opacity="1.00" d=" M 959.58 405.44 C 960.53 405.42 961.49 405.40 962.47 405.39 C 962.56 406.73 962.67 408.08 962.78 409.43 C 961.61 409.43 960.44 409.43 959.29 409.44 C 959.37 408.10 959.47 406.77 959.58 405.44 Z" />
<path fill="#797b7e" opacity="1.00" d=" M 878.38 412.33 C 880.20 411.08 882.69 412.96 882.33 415.07 C 882.54 427.73 882.29 440.41 882.44 453.08 C 882.24 454.74 882.74 457.10 880.81 457.90 C 879.06 459.14 876.63 457.00 876.98 455.04 C 876.75 442.73 877.02 430.39 876.86 418.07 C 877.06 416.16 876.39 413.50 878.38 412.33 Z" />
<path fill="#595958" opacity="1.00" d=" M 842.39 412.66 C 844.04 415.91 843.63 419.65 843.82 423.17 C 841.79 423.30 839.73 423.71 837.72 423.32 C 835.56 422.10 835.99 419.28 836.45 417.27 C 837.83 416.49 839.46 416.53 840.99 416.34 C 841.45 415.11 841.90 413.88 842.39 412.66 M 838.42 418.54 C 836.94 420.41 838.87 422.67 841.03 422.06 C 842.02 420.63 841.36 418.88 841.28 417.32 C 840.57 417.62 839.14 418.23 838.42 418.54 Z" />
<path fill="#808080" opacity="1.00" d=" M 957.58 412.80 L 959.54 412.82 C 959.53 413.97 959.53 415.14 959.55 416.31 C 962.53 416.24 965.52 416.22 968.51 416.20 L 968.45 418.44 C 965.46 418.41 962.47 418.39 959.49 418.37 C 959.51 419.19 959.57 420.84 959.59 421.66 L 957.54 421.60 C 957.56 418.66 957.57 415.73 957.58 412.80 Z" />
<path fill="#4f4f50" opacity="1.00" d=" M 812.74 414.71 C 813.25 414.56 814.29 414.26 814.81 414.11 C 815.11 417.41 815.39 420.72 815.66 424.03 C 813.65 424.20 811.62 424.71 809.61 424.36 C 807.11 423.56 806.67 420.05 808.05 418.11 C 809.30 416.85 811.20 417.51 812.78 417.41 C 812.77 416.73 812.75 415.38 812.74 414.71 M 808.74 419.96 C 809.70 421.24 810.53 423.77 812.60 422.63 C 813.16 421.53 813.19 420.42 812.67 419.31 C 811.39 418.44 809.98 419.67 808.74 419.96 Z" />
<path fill="#505051" opacity="1.00" d=" M 823.27 413.42 C 826.10 416.07 824.67 420.48 825.19 423.94 C 823.17 423.97 821.15 424.15 819.16 423.89 C 816.85 422.82 816.35 419.00 818.28 417.40 C 819.66 416.98 821.09 416.80 822.52 416.56 C 822.71 415.77 823.08 414.20 823.27 413.42 M 819.39 419.31 C 818.86 420.96 820.52 422.12 821.22 423.41 C 821.98 422.13 823.44 420.89 822.72 419.25 C 821.92 417.95 820.14 418.07 819.39 419.31 Z" />
<path fill="#505050" opacity="1.00" d=" M 789.06 414.35 C 789.88 415.41 790.72 416.46 791.54 417.54 C 793.07 417.93 794.87 417.81 796.21 418.77 C 797.12 420.22 797.18 422.13 796.60 423.72 C 794.87 425.92 791.70 424.75 789.31 425.04 C 788.92 421.49 788.72 417.91 789.06 414.35 M 792.33 419.37 C 791.15 420.26 791.28 421.92 790.85 423.19 C 792.16 423.12 793.48 422.99 794.80 422.83 C 795.07 421.24 794.42 418.73 792.33 419.37 Z" />
<path fill="#5b5a58" opacity="1.00" d=" M 783.58 415.98 C 784.61 416.71 785.65 417.45 786.69 418.20 C 786.30 419.43 785.88 420.64 785.64 421.91 C 786.25 423.08 787.02 424.17 787.76 425.28 C 786.62 425.06 785.50 424.80 784.40 424.51 C 783.51 422.73 783.04 420.79 782.45 418.91 C 782.82 417.93 783.20 416.95 783.58 415.98 Z" />
<path fill="#505050" opacity="1.00" d=" M 829.71 416.50 C 832.26 415.49 833.79 418.12 835.10 419.82 C 832.97 420.42 830.83 421.04 828.72 421.68 C 830.74 421.86 832.74 422.03 834.78 422.26 C 833.15 423.41 831.19 424.73 829.16 423.71 C 825.97 422.58 826.21 416.96 829.71 416.50 M 829.30 418.25 C 828.13 419.78 830.85 421.15 831.79 419.73 C 832.96 418.19 830.22 416.82 829.30 418.25 Z" />
<path fill="#2ba4b4" opacity="1.00" d=" M 244.38 418.28 C 246.94 416.85 249.86 418.30 252.52 418.64 C 256.88 421.62 258.97 427.37 256.47 432.25 C 258.83 434.66 261.99 437.16 261.69 440.93 C 262.44 447.01 257.92 451.99 253.42 455.38 C 245.03 461.16 235.15 464.24 225.31 466.49 C 225.47 466.13 225.79 465.40 225.95 465.04 C 234.32 460.83 242.73 456.07 248.94 448.92 C 251.42 446.25 252.50 442.66 252.56 439.07 C 248.05 440.97 244.33 444.35 239.66 445.94 C 234.15 447.94 228.54 450.89 222.52 450.42 C 228.71 446.71 235.31 443.53 240.70 438.63 C 243.90 435.68 247.28 432.42 248.28 428.01 C 248.69 426.02 247.67 423.91 245.99 422.85 C 244.26 422.65 242.53 422.69 240.81 422.64 C 241.74 421.01 242.43 418.96 244.38 418.28 Z" />
<path fill="#4d4d4e" opacity="1.00" d=" M 798.95 423.04 C 797.27 420.67 799.15 417.11 802.07 417.25 C 804.43 416.82 805.49 419.22 806.46 420.88 C 804.39 421.35 802.33 421.86 800.32 422.46 C 802.21 422.79 804.11 422.91 806.05 423.04 C 804.35 425.25 800.31 425.93 798.95 423.04 M 801.33 419.20 C 801.56 422.53 804.25 417.56 801.33 419.20 Z" />
<path fill="#4e4e4f" opacity="1.00" d=" M 766.70 420.48 C 767.88 418.97 769.65 417.57 771.69 418.35 C 774.78 419.30 773.80 423.19 774.20 425.64 C 771.48 425.53 766.41 426.84 766.92 422.49 C 768.70 421.74 770.49 420.99 772.28 420.23 C 770.41 420.32 768.56 420.43 766.70 420.48 M 769.50 423.11 C 769.68 424.52 770.34 424.75 771.47 423.78 C 771.28 422.36 770.62 422.13 769.50 423.11 Z" />
<path fill="#4e4e4f" opacity="1.00" d=" M 775.58 418.63 C 777.54 418.46 779.50 418.31 781.48 418.18 C 780.47 419.23 779.46 420.27 778.47 421.33 C 778.41 423.05 778.88 425.16 777.07 426.20 C 776.13 423.78 775.87 421.18 775.58 418.63 Z" />
<path fill="#2d3135" opacity="1.00" d=" M 819.39 419.31 C 820.14 418.07 821.92 417.95 822.72 419.25 C 823.44 420.89 821.98 422.13 821.22 423.41 C 820.52 422.12 818.86 420.96 819.39 419.31 Z" />
<path fill="#35383c" opacity="1.00" d=" M 829.30 418.25 C 830.22 416.82 832.96 418.19 831.79 419.73 C 830.85 421.15 828.13 419.78 829.30 418.25 Z" />
<path fill="#2a2e33" opacity="1.00" d=" M 838.42 418.54 C 839.14 418.23 840.57 417.62 841.28 417.32 C 841.36 418.88 842.02 420.63 841.03 422.06 C 838.87 422.67 836.94 420.41 838.42 418.54 Z" />
<path fill="#4e4e4e" opacity="1.00" d=" M 743.84 421.65 C 745.06 420.51 746.08 418.69 748.03 418.90 C 749.53 418.73 750.48 420.16 751.67 420.82 C 749.96 420.90 748.26 420.97 746.57 421.02 C 748.41 421.83 750.26 422.64 752.12 423.45 C 751.44 427.22 746.13 427.89 744.46 424.50 C 746.18 424.60 747.88 424.74 749.61 424.89 C 747.68 423.81 745.76 422.74 743.84 421.65 Z" />
<path fill="#5c5b5a" opacity="1.00" d=" M 753.33 419.33 C 756.92 419.42 760.51 419.15 764.10 419.07 C 765.34 421.03 766.42 425.03 763.69 426.21 C 762.92 424.22 764.11 419.87 760.99 420.14 C 759.82 421.78 760.56 423.92 760.50 425.79 C 759.99 425.78 758.98 425.75 758.48 425.73 C 758.41 423.90 758.33 422.07 758.28 420.26 C 754.66 419.91 755.73 423.56 755.48 425.90 C 755.00 425.89 754.02 425.87 753.53 425.87 C 753.47 423.69 753.40 421.50 753.33 419.33 Z" />
<path fill="#2e3136" opacity="1.00" d=" M 792.33 419.37 C 794.42 418.73 795.07 421.24 794.80 422.83 C 793.48 422.99 792.16 423.12 790.85 423.19 C 791.28 421.92 791.15 420.26 792.33 419.37 Z" />
<path fill="#22272d" opacity="1.00" d=" M 801.33 419.20 C 804.25 417.56 801.56 422.53 801.33 419.20 Z" />
<path fill="#2a2e33" opacity="1.00" d=" M 808.74 419.96 C 809.98 419.67 811.39 418.44 812.67 419.31 C 813.19 420.42 813.16 421.53 812.60 422.63 C 810.53 423.77 809.70 421.24 808.74 419.96 Z" />
<path fill="#000000" opacity="1.00" d=" M 1076.38 421.33 C 1077.50 421.30 1078.64 421.29 1079.79 421.29 C 1079.68 427.11 1079.74 432.93 1079.76 438.76 C 1078.52 438.45 1077.30 438.15 1076.09 437.85 C 1074.42 438.15 1072.76 438.98 1071.06 438.49 C 1065.91 436.79 1065.69 427.89 1070.83 426.07 C 1072.84 424.89 1074.77 426.48 1076.60 427.24 C 1076.48 425.26 1076.44 423.30 1076.38 421.33 M 1072.42 428.44 C 1068.93 430.16 1070.00 436.66 1074.17 436.44 C 1078.22 435.07 1077.12 427.06 1072.42 428.44 Z" />
<path fill="#93b621" opacity="1.00" d=" M 1031.37 422.23 C 1032.34 422.25 1033.32 422.28 1034.32 422.32 C 1034.09 424.64 1034.67 426.48 1037.37 426.70 C 1036.83 427.98 1035.59 428.48 1034.36 428.86 C 1034.43 430.87 1034.27 432.93 1034.74 434.91 C 1035.72 436.09 1036.83 437.18 1037.63 438.53 C 1035.66 438.25 1032.92 439.22 1031.50 437.48 C 1031.04 434.35 1031.15 431.16 1030.84 428.02 C 1028.83 428.55 1026.67 428.81 1024.92 429.98 C 1023.92 432.70 1024.34 435.69 1024.26 438.53 C 1023.39 438.53 1021.64 438.51 1020.76 438.50 C 1020.79 434.18 1020.75 429.85 1020.81 425.53 C 1022.19 425.86 1023.69 426.13 1024.63 427.36 C 1026.41 426.16 1028.37 424.92 1030.47 426.39 C 1030.76 425.00 1031.05 423.61 1031.37 422.23 Z" />
<path fill="#050505" opacity="1.00" d=" M 1038.73 421.27 C 1039.63 421.29 1041.43 421.34 1042.33 421.36 C 1042.22 423.43 1042.01 425.49 1041.74 427.54 C 1043.39 426.67 1045.02 425.14 1047.05 425.76 C 1052.28 427.28 1052.73 435.64 1048.21 438.22 C 1046.39 439.18 1044.33 438.48 1042.60 437.73 C 1041.35 438.18 1040.08 438.54 1038.80 438.83 C 1038.69 432.97 1038.81 427.12 1038.73 421.27 M 1045.01 436.87 C 1049.02 435.38 1048.99 427.40 1043.89 428.36 C 1040.91 430.51 1041.70 435.44 1045.01 436.87 Z" />
<path fill="#080808" opacity="1.00" d=" M 1091.60 421.25 C 1092.49 421.28 1094.28 421.34 1095.18 421.36 C 1095.17 427.12 1095.07 432.89 1095.19 438.65 C 1093.80 438.54 1092.38 438.47 1091.24 437.62 C 1089.51 438.53 1087.45 439.12 1085.58 438.28 C 1081.03 435.89 1081.11 427.88 1086.06 426.00 C 1088.03 424.98 1089.95 426.48 1091.77 427.14 C 1091.68 425.18 1091.62 423.21 1091.60 421.25 M 1085.85 433.94 C 1086.39 435.36 1087.94 435.93 1089.06 436.84 C 1092.19 435.27 1093.03 430.07 1089.65 428.36 C 1086.59 427.53 1084.59 431.46 1085.85 433.94 Z" />
<path fill="#000000" opacity="1.00" d=" M 1120.02 421.38 C 1120.89 421.35 1122.63 421.29 1123.49 421.26 C 1123.42 427.11 1123.49 432.97 1123.45 438.82 C 1122.15 438.61 1120.93 438.20 1119.80 437.60 C 1117.97 438.49 1115.66 439.26 1113.81 438.07 C 1109.27 435.55 1109.81 427.33 1114.97 425.86 C 1116.95 425.09 1118.66 426.56 1120.33 427.41 C 1120.19 425.40 1120.10 423.39 1120.02 421.38 M 1115.59 428.65 C 1113.01 430.72 1113.69 435.48 1116.94 436.54 C 1122.20 436.19 1120.87 426.19 1115.59 428.65 Z" />
<path fill="#282c32" opacity="1.00" d=" M 769.50 423.11 C 770.62 422.13 771.28 422.36 771.47 423.78 C 770.34 424.75 769.68 424.52 769.50 423.11 Z" />
<path fill="#92b520" opacity="1.00" d=" M 973.30 426.41 C 976.82 424.48 981.66 425.88 982.98 429.88 C 980.18 430.39 976.02 425.74 974.52 429.77 C 977.19 430.63 980.18 430.99 982.43 432.81 C 983.06 434.64 982.62 436.92 980.88 437.98 C 977.15 439.76 971.66 438.74 970.68 434.16 C 973.10 434.12 974.99 435.57 977.03 436.62 C 978.12 436.22 979.15 435.66 980.11 434.94 C 977.61 433.63 974.82 433.00 972.38 431.62 C 970.49 430.25 971.43 427.30 973.30 426.41 Z" />
<path fill="#96b828" opacity="1.00" d=" M 984.99 426.92 C 985.36 424.84 987.59 426.56 988.79 426.79 C 991.06 425.34 993.58 425.49 995.75 427.06 C 998.11 425.77 1001.62 424.60 1003.47 427.35 C 1004.99 430.85 1004.11 434.84 1004.34 438.56 C 1003.45 438.55 1001.68 438.53 1000.79 438.52 C 1000.76 435.47 1000.99 432.38 1000.49 429.37 C 999.48 427.95 997.51 428.07 996.60 429.50 C 996.07 432.48 996.28 435.53 996.25 438.55 C 995.36 438.54 993.59 438.53 992.70 438.53 C 992.70 435.41 992.91 432.28 992.51 429.19 C 991.28 427.90 989.80 428.91 988.47 429.34 C 988.42 432.42 988.37 435.50 988.38 438.58 C 987.50 438.56 985.74 438.51 984.86 438.48 C 984.94 434.62 984.61 430.76 984.99 426.92 Z" />
<path fill="#92b41e" opacity="1.00" d=" M 1005.92 429.67 C 1007.96 425.46 1013.56 424.36 1017.29 427.04 C 1018.21 430.77 1017.66 434.70 1018.22 438.50 C 1015.16 438.23 1012.11 438.57 1009.06 438.59 C 1006.31 438.39 1005.58 434.92 1006.79 432.86 C 1009.11 431.26 1012.08 431.23 1014.68 430.25 C 1014.64 426.40 1011.07 428.16 1009.30 429.68 C 1008.16 429.68 1007.03 429.67 1005.92 429.67 M 1009.66 433.80 C 1009.67 434.69 1009.70 435.58 1009.73 436.48 C 1010.87 436.44 1012.03 436.45 1013.19 436.29 C 1014.44 435.41 1014.42 433.70 1014.92 432.38 C 1013.15 432.83 1011.40 433.31 1009.66 433.80 Z" />
<path fill="#020202" opacity="1.00" d=" M 1056.91 438.18 C 1051.67 435.97 1052.45 427.16 1058.03 425.92 C 1062.41 424.39 1066.03 428.72 1065.98 432.81 C 1062.68 433.12 1059.36 433.15 1056.06 433.38 C 1057.10 434.53 1057.93 436.76 1059.84 436.34 C 1061.89 435.62 1063.78 434.40 1066.07 434.54 C 1064.42 437.95 1060.46 439.77 1056.91 438.18 M 1056.12 430.80 C 1058.36 430.89 1060.60 430.90 1062.86 430.85 C 1061.95 429.90 1061.39 428.15 1059.82 428.32 C 1058.06 427.98 1057.21 429.81 1056.12 430.80 Z" />
<path fill="#020202" opacity="1.00" d=" M 1100.04 437.94 C 1095.30 435.23 1096.44 426.79 1101.99 425.83 C 1106.32 424.64 1109.69 428.85 1109.59 432.88 C 1106.30 433.11 1103.02 433.15 1099.76 433.38 C 1100.75 434.48 1101.43 436.27 1103.12 436.44 C 1105.31 435.81 1107.27 434.45 1109.66 434.50 C 1108.10 438.20 1103.56 439.88 1100.04 437.94 M 1099.71 430.71 C 1102.00 430.88 1104.31 430.89 1106.63 430.78 C 1105.59 429.76 1104.82 427.99 1103.09 428.31 C 1101.54 428.18 1100.76 429.88 1099.71 430.71 Z" />
<path fill="#fdfdfd" opacity="1.00" d=" M 1056.12 430.80 C 1057.21 429.81 1058.06 427.98 1059.82 428.32 C 1061.39 428.15 1061.95 429.90 1062.86 430.85 C 1060.60 430.90 1058.36 430.89 1056.12 430.80 Z" />
<path fill="#ffffff" opacity="1.00" d=" M 1072.42 428.44 C 1077.12 427.06 1078.22 435.07 1074.17 436.44 C 1070.00 436.66 1068.93 430.16 1072.42 428.44 Z" />
<path fill="#ffffff" opacity="1.00" d=" M 1085.85 433.94 C 1084.59 431.46 1086.59 427.53 1089.65 428.36 C 1093.03 430.07 1092.19 435.27 1089.06 436.84 C 1087.94 435.93 1086.39 435.36 1085.85 433.94 Z" />
<path fill="#fdfdfd" opacity="1.00" d=" M 1099.71 430.71 C 1100.76 429.88 1101.54 428.18 1103.09 428.31 C 1104.82 427.99 1105.59 429.76 1106.63 430.78 C 1104.31 430.89 1102.00 430.88 1099.71 430.71 Z" />
<path fill="#ffffff" opacity="1.00" d=" M 1115.59 428.65 C 1120.87 426.19 1122.20 436.19 1116.94 436.54 C 1113.69 435.48 1113.01 430.72 1115.59 428.65 Z" />
<path fill="#ffffff" opacity="1.00" d=" M 1045.01 436.87 C 1041.70 435.44 1040.91 430.51 1043.89 428.36 C 1048.99 427.40 1049.02 435.38 1045.01 436.87 Z" />
<path fill="#ebebeb" opacity="1.00" d=" M 841.64 430.83 C 842.72 430.48 843.80 430.13 844.89 429.79 C 845.50 430.04 846.72 430.56 847.32 430.82 C 847.89 432.69 849.15 434.91 847.71 436.72 C 846.94 438.25 845.12 438.43 843.65 438.72 C 843.11 438.35 842.04 437.60 841.51 437.23 C 840.85 435.10 840.95 432.93 841.64 430.83 M 842.46 431.43 C 842.32 433.69 841.60 438.01 845.22 437.48 C 847.65 436.43 846.47 433.44 846.57 431.42 C 845.18 431.40 843.82 431.40 842.46 431.43 Z" />
<path fill="#ebebeb" opacity="1.00" d=" M 783.70 439.62 C 783.88 436.71 782.87 433.52 784.45 430.87 C 784.49 431.81 784.57 433.68 784.61 434.62 C 785.87 434.49 787.14 434.43 788.42 434.44 C 790.69 436.79 789.32 441.49 785.44 440.78 C 787.36 439.58 788.65 437.93 788.57 435.63 C 787.43 435.49 786.30 435.35 785.17 435.23 C 784.74 436.85 785.23 438.44 785.74 439.98 C 785.23 439.89 784.21 439.71 783.70 439.62 Z" />
<path fill="#a9abb1" opacity="1.00" d=" M 796.06 430.81 C 796.45 430.82 797.24 430.83 797.64 430.84 C 797.55 434.14 797.85 437.44 798.02 440.74 C 797.61 440.50 796.79 440.00 796.38 439.75 C 796.05 436.78 796.55 433.77 796.06 430.81 Z" />
<path fill="#ebebeb" opacity="1.00" d=" M 803.59 433.91 C 803.81 432.66 804.08 431.42 804.38 430.20 C 805.02 433.30 805.31 436.45 805.48 439.61 C 803.76 439.58 802.04 439.67 800.34 439.50 C 799.56 438.39 799.58 436.96 799.30 435.70 C 799.70 435.15 800.50 434.07 800.90 433.53 C 801.57 433.62 802.92 433.81 803.59 433.91 M 801.24 438.73 C 801.87 438.69 803.14 438.60 803.77 438.55 C 803.65 437.02 803.51 435.50 803.38 433.98 C 801.16 434.93 800.08 436.47 801.24 438.73 Z" />
<path fill="#a8a7a7" opacity="1.00" d=" M 824.84 430.46 C 827.01 430.74 830.80 429.85 831.15 432.97 C 831.94 435.62 829.00 436.29 827.17 436.97 C 827.20 438.63 826.52 439.39 825.12 439.26 C 824.81 436.33 824.85 433.39 824.84 430.46 M 826.64 432.21 C 826.66 432.92 826.70 434.32 826.71 435.02 C 828.10 434.74 829.48 434.31 829.98 432.81 C 828.86 432.60 827.74 432.40 826.64 432.21 Z" />
<path fill="#ebebeb" opacity="1.00" d=" M 833.24 430.45 C 835.04 430.89 838.14 429.65 838.72 432.12 C 839.10 433.46 838.16 434.67 837.76 435.89 C 838.25 437.00 838.72 438.12 839.19 439.25 C 837.68 437.74 836.21 436.18 834.50 434.91 C 834.52 435.87 834.56 437.79 834.58 438.75 C 834.27 438.79 833.66 438.86 833.35 438.90 C 833.36 436.08 833.31 433.26 833.24 430.45 M 834.40 432.05 C 834.41 432.68 834.44 433.96 834.45 434.59 C 835.46 434.54 836.48 434.50 837.51 434.47 C 837.53 433.90 837.59 432.76 837.61 432.19 C 836.53 432.13 835.46 432.09 834.40 432.05 Z" />
<path fill="#1c2026" opacity="1.00" d=" M 842.46 431.43 C 843.82 431.40 845.18 431.40 846.57 431.42 C 846.47 433.44 847.65 436.43 845.22 437.48 C 841.60 438.01 842.32 433.69 842.46 431.43 Z" />
<path fill="#080808" opacity="1.00" d=" M 826.64 432.21 C 827.74 432.40 828.86 432.60 829.98 432.81 C 829.48 434.31 828.10 434.74 826.71 435.02 C 826.70 434.32 826.66 432.92 826.64 432.21 Z" />
<path fill="#080808" opacity="1.00" d=" M 834.40 432.05 C 835.46 432.09 836.53 432.13 837.61 432.19 C 837.59 432.76 837.53 433.90 837.51 434.47 C 836.48 434.50 835.46 434.54 834.45 434.59 C 834.44 433.96 834.41 432.68 834.40 432.05 Z" />
<path fill="#ffffff" opacity="1.00" d=" M 1009.66 433.80 C 1011.40 433.31 1013.15 432.83 1014.92 432.38 C 1014.42 433.70 1014.44 435.41 1013.19 436.29 C 1012.03 436.45 1010.87 436.44 1009.73 436.48 C 1009.70 435.58 1009.67 434.69 1009.66 433.80 Z" />
<path fill="#525252" opacity="1.00" d=" M 717.15 433.20 C 718.48 432.03 720.19 433.66 720.66 434.94 C 720.22 436.24 719.35 437.07 718.04 437.44 C 716.13 437.07 715.15 434.09 717.15 433.20 Z" />
<path fill="#ebebeb" opacity="1.00" d=" M 765.72 441.35 C 765.23 438.52 764.04 435.63 765.05 432.78 C 765.80 433.68 766.68 434.59 767.48 435.49 C 765.48 436.97 766.16 439.68 767.86 441.10 C 767.15 441.18 766.41 441.25 765.72 441.35 Z" />
<path fill="#ebebeb" opacity="1.00" d=" M 807.82 433.78 C 809.44 433.48 811.10 433.49 812.76 433.36 C 812.68 436.00 812.85 438.66 812.54 441.30 C 810.71 442.77 808.49 442.12 806.52 441.41 C 807.28 440.46 808.04 439.51 808.81 438.57 L 807.14 438.48 C 807.29 436.90 807.31 435.29 807.82 433.78 M 810.05 437.84 C 811.88 437.87 811.76 434.87 810.02 434.86 C 808.24 434.90 808.22 437.88 810.05 437.84 M 809.34 440.86 C 809.89 440.83 811.00 440.76 811.56 440.73 C 813.07 437.90 808.31 438.36 809.34 440.86 Z" />
<path fill="#ebebeb" opacity="1.00" d=" M 815.40 433.25 C 817.27 433.19 819.18 433.34 820.45 434.91 C 820.31 436.14 820.20 437.37 820.11 438.62 C 818.74 439.23 817.27 439.88 815.78 439.26 C 814.86 437.38 815.39 435.24 815.40 433.25 M 817.07 434.26 L 816.60 434.94 C 817.33 437.36 819.68 433.65 817.07 434.26 M 816.88 437.05 C 817.08 440.38 820.01 435.48 816.88 437.05 Z" />
<path fill="#515151" opacity="1.00" d=" M 894.28 433.43 C 898.22 431.93 902.96 434.62 903.15 438.95 C 903.94 444.50 896.64 447.94 892.46 444.69 C 888.45 441.86 889.41 434.72 894.28 433.43 Z" />
<path fill="#a9abb1" opacity="1.00" d=" M 770.21 440.85 C 767.65 439.08 768.76 434.39 771.96 434.33 C 773.91 434.31 774.44 436.54 775.27 437.89 C 773.47 438.17 771.67 438.44 769.90 438.79 C 771.54 439.87 773.34 440.06 775.29 439.37 C 774.02 440.68 771.99 442.29 770.21 440.85 M 771.20 436.15 C 771.35 439.47 774.20 434.60 771.20 436.15 Z" />
<path fill="#ebebeb" opacity="1.00" d=" M 776.52 435.69 C 777.46 434.14 779.63 434.06 781.05 434.99 C 782.15 436.60 781.44 438.68 781.51 440.51 C 779.93 440.51 778.27 440.83 776.78 440.18 C 776.29 438.74 776.10 437.16 776.52 435.69 M 777.36 439.49 C 778.41 439.54 779.47 439.59 780.54 439.64 C 780.51 438.20 780.47 436.75 780.42 435.31 C 777.42 434.85 777.32 437.19 777.36 439.49 Z" />
<path fill="#a9abb1" opacity="1.00" d=" M 790.98 434.24 C 792.51 434.09 794.05 433.94 795.60 433.81 C 794.68 434.62 793.76 435.43 792.84 436.24 C 792.87 437.53 792.92 438.83 792.98 440.14 C 792.57 440.34 791.75 440.73 791.34 440.93 C 791.20 438.70 791.09 436.47 790.98 434.24 Z" />
<path fill="#000000" opacity="1.00" d=" M 817.07 434.26 C 819.68 433.65 817.33 437.36 816.60 434.94 L 817.07 434.26 Z" />
<path fill="#2ba4b4" opacity="1.00" d=" M 458.87 435.54 C 461.64 434.91 464.48 435.32 467.28 435.46 C 471.74 438.43 474.03 444.25 471.46 449.25 C 473.85 451.65 476.96 454.19 476.69 457.96 C 477.41 464.28 472.58 469.39 467.83 472.79 C 459.45 478.25 449.79 481.53 440.01 483.41 C 443.93 479.96 448.93 478.18 453.13 475.16 C 459.65 470.58 467.66 464.99 467.59 456.11 C 463.71 457.47 460.69 460.47 456.85 461.96 C 450.72 464.59 444.38 467.30 437.64 467.73 C 444.70 462.76 452.96 459.31 458.76 452.67 C 461.41 449.75 464.86 445.38 462.54 441.36 C 461.20 438.87 458.03 439.95 455.77 439.60 C 456.70 438.20 457.22 436.28 458.87 435.54 Z" />
<path fill="#ebebeb" opacity="1.00" d=" M 746.50 435.70 C 749.42 435.76 752.36 435.72 755.29 435.59 C 755.43 437.61 755.54 439.63 755.67 441.66 C 755.35 441.68 754.72 441.72 754.40 441.74 C 754.38 440.02 754.37 438.30 754.37 436.60 C 753.68 436.55 752.31 436.45 751.63 436.40 C 751.58 438.49 751.95 440.72 750.92 442.66 C 750.62 440.66 750.50 438.65 750.41 436.64 C 749.74 436.59 748.40 436.50 747.73 436.45 C 747.73 438.53 747.74 440.63 747.56 442.71 C 746.35 440.58 746.68 438.04 746.50 435.70 Z" />
<path fill="#a9abb1" opacity="1.00" d=" M 759.38 441.68 C 756.51 440.88 756.23 436.11 759.04 435.01 C 760.63 433.99 762.36 435.61 763.05 436.99 C 763.27 439.50 759.67 438.32 758.29 439.20 C 759.85 440.13 761.52 440.28 763.32 439.64 C 762.39 440.75 761.00 442.43 759.38 441.68 M 759.23 436.17 C 758.76 437.80 759.33 438.33 760.96 437.76 C 761.42 436.13 760.84 435.59 759.23 436.17 Z" />
<path fill="#080808" opacity="1.00" d=" M 801.24 438.73 C 800.08 436.47 801.16 434.93 803.38 433.98 C 803.51 435.50 803.65 437.02 803.77 438.55 C 803.14 438.60 801.87 438.69 801.24 438.73 Z" />
<path fill="#080808" opacity="1.00" d=" M 810.05 437.84 C 808.22 437.88 808.24 434.90 810.02 434.86 C 811.76 434.87 811.88 437.87 810.05 437.84 Z" />
<path fill="#3e3d3d" opacity="1.00" d=" M 759.23 436.17 C 760.84 435.59 761.42 436.13 760.96 437.76 C 759.33 438.33 758.76 437.80 759.23 436.17 Z" />
<path fill="#25292e" opacity="1.00" d=" M 771.20 436.15 C 774.20 434.60 771.35 439.47 771.20 436.15 Z" />
<path fill="#1c2026" opacity="1.00" d=" M 777.36 439.49 C 777.32 437.19 777.42 434.85 780.42 435.31 C 780.47 436.75 780.51 438.20 780.54 439.64 C 779.47 439.59 778.41 439.54 777.36 439.49 Z" />
<path fill="#000000" opacity="1.00" d=" M 816.88 437.05 C 820.01 435.48 817.08 440.38 816.88 437.05 Z" />
<path fill="#1c2026" opacity="1.00" d=" M 809.34 440.86 C 808.31 438.36 813.07 437.90 811.56 440.73 C 811.00 440.76 809.89 440.83 809.34 440.86 Z" />
<path fill="#f16d4f" opacity="1.00" d=" M 717.17 442.09 C 718.98 440.59 722.03 444.11 719.71 445.55 C 717.55 448.06 714.22 443.47 717.17 442.09 Z" />
<path fill="#515151" opacity="1.00" d=" M 700.40 447.41 C 704.49 444.94 710.81 447.86 710.50 452.96 C 710.87 458.09 704.39 461.17 700.31 458.50 C 696.25 456.25 696.30 449.59 700.40 447.41 Z" />
<path fill="#ebebeb" opacity="1.00" d=" M 823.51 452.67 C 824.71 451.33 826.07 450.14 827.48 449.03 C 827.76 452.19 827.91 455.39 827.53 458.56 C 826.30 456.26 826.75 453.55 826.64 451.07 C 825.85 451.47 824.29 452.27 823.51 452.67 Z" />
<path fill="#a9abb1" opacity="1.00" d=" M 832.36 449.52 C 837.66 446.87 839.37 457.67 833.95 457.96 C 830.07 457.56 829.24 451.45 832.36 449.52 M 832.96 451.18 C 831.79 452.52 832.39 454.49 832.94 455.96 C 834.76 457.76 835.79 454.54 835.50 453.15 C 835.34 452.09 834.06 448.61 832.96 451.18 Z" />
<path fill="#ebebeb" opacity="1.00" d=" M 839.81 449.76 C 841.23 449.22 842.77 449.43 844.27 449.43 C 844.68 451.50 846.09 453.82 844.67 455.81 C 844.19 457.14 842.56 457.28 841.48 457.90 C 838.90 456.01 838.68 452.53 839.81 449.76 M 840.41 450.44 C 840.50 452.94 839.60 456.99 843.45 456.73 C 843.62 454.62 843.65 452.50 843.58 450.39 C 842.51 450.40 841.46 450.41 840.41 450.44 Z" />
<path fill="#ebebeb" opacity="1.00" d=" M 800.01 453.55 C 801.22 452.18 802.70 451.11 804.28 450.18 C 804.45 453.05 804.51 455.93 804.63 458.81 C 804.31 458.81 803.66 458.82 803.34 458.82 C 803.34 456.58 803.33 454.34 803.36 452.11 C 802.24 452.60 801.13 453.08 800.01 453.55 Z" />
<path fill="#a9abb1" opacity="1.00" d=" M 806.03 453.25 C 807.12 451.63 808.66 450.48 810.50 449.84 C 810.76 453.00 810.91 456.17 810.77 459.35 C 808.10 458.05 809.38 454.67 808.98 452.36 C 808.24 452.58 806.76 453.03 806.03 453.25 Z" />
<path fill="#ebebeb" opacity="1.00" d=" M 812.79 452.87 C 813.49 449.98 816.36 450.20 818.73 450.42 C 819.29 453.53 816.80 455.51 814.89 457.51 C 816.00 457.42 818.22 457.25 819.33 457.17 L 819.34 458.27 C 817.18 458.27 815.03 458.27 812.88 458.25 C 814.87 456.13 816.93 454.04 818.19 451.38 C 816.19 451.07 814.46 451.97 812.79 452.87 Z" />
<path fill="#1b2025" opacity="1.00" d=" M 840.41 450.44 C 841.46 450.41 842.51 450.40 843.58 450.39 C 843.65 452.50 843.62 454.62 843.45 456.73 C 839.60 456.99 840.50 452.94 840.41 450.44 Z" />
<path fill="#525251" opacity="1.00" d=" M 717.18 451.04 C 719.66 449.22 722.08 454.35 718.96 454.85 C 716.50 456.22 714.84 451.96 717.18 451.04 Z" />
<path fill="#a9abb1" opacity="1.00" d=" M 774.84 453.23 C 776.08 452.54 777.34 451.86 778.61 451.19 C 779.05 454.36 779.29 457.57 779.12 460.78 C 776.37 459.37 777.62 455.93 777.24 453.49 C 776.73 453.82 775.73 454.49 775.22 454.83 C 775.13 454.43 774.93 453.63 774.84 453.23 Z" />
<path fill="#ebebeb" opacity="1.00" d=" M 791.44 451.45 C 792.89 451.00 795.28 451.16 795.56 453.04 C 795.88 455.26 796.37 458.66 793.53 459.41 C 789.50 460.17 788.20 453.12 791.44 451.45 M 791.30 452.37 C 791.29 454.47 791.39 456.58 791.59 458.68 C 795.49 459.07 794.42 454.93 794.49 452.46 C 793.42 452.42 792.36 452.39 791.30 452.37 Z" />
<path fill="#1c2026" opacity="1.00" d=" M 832.96 451.18 C 834.06 448.61 835.34 452.09 835.50 453.15 C 835.79 454.54 834.76 457.76 832.94 455.96 C 832.39 454.49 831.79 452.52 832.96 451.18 Z" />
<path fill="#969696" opacity="1.00" d=" M 1136.80 450.65 C 1138.84 450.66 1140.89 450.67 1142.95 450.69 C 1142.85 461.29 1142.81 471.89 1142.98 482.49 C 1140.91 482.52 1138.85 482.54 1136.80 482.56 C 1136.81 471.92 1136.81 461.29 1136.80 450.65 Z" />
<path fill="#ebebeb" opacity="1.00" d=" M 748.46 455.70 C 749.68 454.44 751.03 453.31 752.42 452.23 C 752.72 455.03 753.06 457.83 753.45 460.63 C 753.00 460.66 752.12 460.73 751.68 460.76 C 751.69 458.56 751.68 456.35 751.71 454.16 C 750.90 454.54 749.27 455.31 748.46 455.70 Z" />
<path fill="#ebebeb" opacity="1.00" d=" M 756.98 452.94 C 760.21 450.75 762.81 455.09 761.73 458.04 C 761.73 461.53 757.34 460.96 755.43 459.38 C 757.62 458.96 761.86 461.05 761.20 456.56 C 758.56 459.83 753.04 455.38 756.98 452.94 M 757.55 454.26 C 756.39 455.71 758.85 457.50 759.87 455.93 C 760.99 454.52 758.50 452.69 757.55 454.26 Z" />
<path fill="#ebebeb" opacity="1.00" d=" M 764.96 452.88 C 766.75 451.70 769.04 452.30 770.59 453.60 C 768.86 453.53 767.16 453.38 765.44 453.30 C 765.48 455.38 765.60 457.45 765.77 459.54 C 767.51 459.63 768.85 458.83 769.65 457.29 C 768.62 456.49 767.61 455.68 766.63 454.84 C 768.09 455.30 769.52 455.92 770.93 456.56 C 770.29 457.89 769.59 459.20 768.83 460.46 C 768.20 460.48 766.95 460.53 766.33 460.55 C 763.89 458.83 763.70 455.36 764.96 452.88 Z" />
<path fill="#a9a8a8" opacity="1.00" d=" M 782.51 451.41 C 783.16 451.88 783.82 452.36 784.48 452.86 C 781.82 454.34 783.49 457.56 784.86 459.31 C 787.26 456.65 785.76 453.58 784.41 450.87 C 788.98 451.54 789.50 459.12 785.00 460.12 C 780.67 459.89 780.68 454.22 782.51 451.41 Z" />
<path fill="#1b2025" opacity="1.00" d=" M 791.30 452.37 C 792.36 452.39 793.42 452.42 794.49 452.46 C 794.42 454.93 795.49 459.07 791.59 458.68 C 791.39 456.58 791.29 454.47 791.30 452.37 Z" />
<path fill="#080808" opacity="1.00" d=" M 757.55 454.26 C 758.50 452.69 760.99 454.52 759.87 455.93 C 758.85 457.50 756.39 455.71 757.55 454.26 Z" />
<path fill="#ebebeb" opacity="1.00" d=" M 821.39 456.57 C 823.00 455.99 823.57 456.52 823.11 458.16 C 821.50 458.74 820.93 458.21 821.39 456.57 Z" />
<path fill="#ebebeb" opacity="1.00" d=" M 797.80 457.46 C 799.41 456.89 799.97 457.43 799.50 459.06 C 797.88 459.62 797.31 459.09 797.80 457.46 Z" />
<path fill="#a9abb1" opacity="1.00" d=" M 772.19 458.50 C 773.81 457.98 774.37 458.53 773.85 460.15 C 772.20 460.67 771.65 460.11 772.19 458.50 Z" />
<path fill="#99af2d" opacity="1.00" d=" M 717.11 459.95 C 719.22 458.29 721.94 462.03 719.67 463.51 C 717.47 465.87 714.09 461.29 717.11 459.95 Z" />
<path fill="#5e4648" opacity="1.00" d=" M 717.29 468.41 C 718.59 466.96 720.89 469.21 719.45 470.54 C 718.13 472.03 715.79 469.74 717.29 468.41 Z" />
<path fill="#2ba4b4" opacity="1.00" d=" M 178.66 493.26 C 223.21 493.26 267.77 493.27 312.33 493.25 C 312.34 502.32 312.44 511.54 312.31 520.51 C 290.26 520.57 268.09 519.64 245.99 519.59 C 233.66 519.32 221.30 519.74 208.99 518.75 C 198.89 518.60 188.78 518.57 178.67 518.56 C 178.65 510.13 178.66 501.69 178.66 493.26 Z" />
<path fill="#9aba2f" opacity="1.00" d=" M 982.07 504.26 C 1007.77 504.33 1033.47 504.33 1059.16 504.26 C 1059.18 507.47 1059.19 510.69 1059.18 513.91 C 1033.47 513.84 1007.76 513.87 982.05 513.89 C 982.05 510.68 982.05 507.46 982.07 504.26 Z" />
<path fill="#9aba2f" opacity="1.00" d=" M 1062.23 504.26 C 1077.78 504.33 1093.34 504.32 1108.90 504.27 C 1108.88 507.30 1108.89 510.34 1108.97 513.38 C 1093.36 513.40 1077.75 513.43 1062.15 513.37 C 1062.22 510.33 1062.22 507.29 1062.23 504.26 Z" />
<path fill="#f6f6f6" opacity="1.00" d=" M 398.84 508.32 C 401.02 516.98 401.87 526.05 400.98 534.95 C 400.55 539.70 400.62 544.48 400.89 549.24 C 431.27 548.94 461.64 549.09 492.02 549.04 C 498.88 549.16 505.76 548.72 512.60 549.46 C 510.74 549.83 508.88 550.19 506.99 550.32 C 471.97 550.43 436.93 550.12 401.91 550.43 L 401.51 550.40 L 400.40 549.56 C 400.05 546.71 400.05 543.83 399.92 540.97 C 399.66 530.08 399.29 519.19 398.84 508.32 Z" />
<path fill="#848588" opacity="1.00" d=" M 954.89 517.95 C 1016.43 517.88 1077.97 517.71 1139.51 518.05 C 1135.46 519.39 1131.15 518.83 1126.97 518.99 C 1082.33 519.02 1037.69 518.99 993.05 519.00 C 979.86 518.69 966.61 519.65 953.48 518.47 L 954.89 517.95 Z" />
<path fill="#ffffff" opacity="1.00" d=" M 169.61 523.75 C 171.33 521.58 173.69 520.11 176.01 518.66 C 176.67 518.64 178.00 518.59 178.67 518.56 C 188.78 518.57 198.89 518.60 208.99 518.75 C 221.30 519.74 233.66 519.32 245.99 519.59 C 268.09 519.64 290.26 520.57 312.31 520.51 L 312.68 520.42 C 312.59 520.81 312.40 521.61 312.31 522.01 C 313.85 523.39 315.22 524.97 316.51 526.60 C 316.54 527.32 316.61 528.76 316.64 529.47 L 317.26 529.41 C 317.77 531.58 318.36 533.75 319.05 535.89 C 319.64 537.98 320.37 540.03 320.93 542.14 C 321.93 545.46 322.95 548.78 323.93 552.11 C 324.64 554.21 325.23 556.35 325.75 558.51 L 326.32 558.53 C 326.42 559.86 326.52 561.20 326.62 562.55 L 327.25 562.40 C 327.70 564.60 328.33 566.77 328.99 568.92 C 329.61 570.99 330.32 573.04 330.88 575.14 C 331.58 577.25 332.18 579.39 332.70 581.56 L 333.31 581.55 C 333.40 582.89 333.50 584.24 333.59 585.60 L 334.21 585.46 C 334.64 587.68 335.25 589.87 336.10 591.98 C 336.32 593.15 336.52 594.33 336.71 595.51 L 337.21 595.34 C 338.07 599.71 339.69 603.89 340.80 608.20 C 341.95 611.60 343.05 615.03 343.75 618.56 L 344.33 618.50 C 344.48 619.65 344.65 620.81 344.85 621.98 C 345.78 624.21 346.33 626.58 347.14 628.87 C 348.07 632.23 349.07 635.57 350.21 638.86 C 350.33 639.44 350.56 640.59 350.67 641.17 C 351.19 642.45 351.60 643.76 352.04 645.09 C 352.66 647.24 353.26 649.40 353.77 651.60 L 354.38 651.48 C 354.46 652.83 354.55 654.18 354.65 655.54 L 355.28 655.42 C 355.82 657.94 356.45 660.45 357.29 662.90 C 357.36 665.31 357.36 667.73 357.34 670.15 C 356.22 674.53 352.89 678.50 348.01 678.25 C 272.65 678.51 197.28 678.74 121.92 679.00 C 120.22 679.07 118.55 678.69 117.16 677.69 L 116.87 677.36 C 116.54 677.01 115.88 676.32 115.54 675.98 C 115.47 675.76 115.32 675.33 115.25 675.11 C 113.06 671.27 114.28 666.64 114.59 662.49 L 115.34 662.60 C 115.41 661.94 115.55 660.62 115.62 659.96 C 116.11 658.97 116.58 657.98 117.03 656.98 C 117.40 656.02 117.77 655.06 118.14 654.12 C 118.69 652.69 119.26 651.29 119.78 649.87 C 120.48 648.23 121.11 646.57 121.78 644.93 C 122.17 643.80 122.53 642.67 122.86 641.53 L 123.25 641.54 C 123.97 639.28 124.84 637.08 125.67 634.86 C 126.10 633.87 126.51 632.87 126.91 631.88 C 127.67 629.96 128.39 628.04 129.20 626.16 C 130.38 623.06 131.64 619.99 132.77 616.88 C 133.30 615.64 133.84 614.40 134.34 613.16 C 135.12 611.04 135.95 608.94 136.77 606.84 C 137.57 604.95 138.30 603.04 139.04 601.13 C 139.44 600.13 139.85 599.13 140.28 598.16 C 141.06 596.03 141.91 593.93 142.68 591.81 C 143.21 590.54 143.74 589.29 144.27 588.03 C 144.88 586.38 145.50 584.74 146.18 583.12 C 146.71 581.69 147.31 580.29 147.83 578.86 C 148.60 576.95 149.34 575.02 150.16 573.13 C 150.53 572.10 150.93 571.09 151.34 570.08 C 152.12 567.99 152.97 565.94 153.74 563.85 C 155.00 560.99 155.99 558.02 157.25 555.17 C 158.03 553.07 158.87 551.00 159.65 548.91 C 160.05 547.91 160.45 546.90 160.85 545.90 C 161.25 544.94 161.64 543.97 162.01 543.01 C 162.39 542.05 162.78 541.10 163.17 540.15 C 163.70 538.71 164.29 537.30 164.81 535.86 C 165.50 534.23 166.14 532.57 166.82 530.93 C 167.19 529.81 167.55 528.68 167.87 527.56 L 168.30 527.57 C 168.71 526.28 169.17 525.02 169.61 523.75 M 193.13 559.87 C 190.89 560.68 189.39 562.67 188.54 564.83 C 177.31 590.91 165.98 616.96 154.73 643.04 C 153.51 646.17 152.22 650.43 154.93 653.16 C 156.11 654.73 158.20 654.59 159.95 654.68 C 189.97 654.64 219.99 654.83 250.02 654.79 C 270.02 655.44 290.03 654.99 310.03 655.16 C 313.53 655.60 316.77 652.50 316.57 649.02 C 316.49 644.43 314.40 640.24 313.04 635.95 C 305.07 612.56 297.03 589.20 289.11 565.80 C 288.27 563.14 285.97 560.65 283.02 560.64 C 268.69 560.14 254.32 560.92 240.02 559.73 C 226.32 559.52 212.62 559.58 198.93 559.37 C 196.99 559.40 194.99 559.24 193.13 559.87 Z" />
<path fill="#a9abb1" opacity="1.00" d=" M 400.98 534.95 C 438.39 535.03 475.79 534.97 513.19 535.02 C 513.30 539.74 513.35 544.47 513.25 549.20 C 512.87 549.65 512.09 550.54 511.70 550.99 C 505.52 550.21 499.28 550.78 493.07 550.63 C 462.68 550.50 432.29 550.90 401.91 550.43 C 436.93 550.12 471.97 550.43 506.99 550.32 C 508.88 550.19 510.74 549.83 512.60 549.46 C 505.76 548.72 498.88 549.16 492.02 549.04 C 461.64 549.09 431.27 548.94 400.89 549.24 C 400.62 544.48 400.55 539.70 400.98 534.95 Z" />
<path fill="#0a0a0a" opacity="0.08" d=" M 399.92 540.97 C 400.05 543.83 400.05 546.71 400.40 549.56 C 398.55 548.15 396.51 546.75 394.08 546.84 C 387.73 546.63 381.36 546.81 375.01 547.15 C 371.52 547.30 368.17 548.44 365.09 550.04 C 376.40 553.24 388.27 551.82 399.86 552.12 C 400.27 551.69 401.10 550.83 401.51 550.40 L 401.91 550.43 C 432.29 550.90 462.68 550.50 493.07 550.63 C 499.28 550.78 505.52 550.21 511.70 550.99 C 517.66 552.64 523.87 552.11 529.97 552.10 C 536.68 551.98 543.57 551.67 549.83 549.00 C 542.60 545.86 534.62 547.05 526.98 546.79 C 522.48 546.77 517.62 546.25 513.63 548.76 C 513.68 547.49 513.71 546.22 513.72 544.95 C 515.15 543.50 516.62 541.70 518.91 541.97 C 529.92 541.59 540.94 542.22 551.96 542.12 C 557.97 542.13 563.87 543.41 569.78 544.33 C 569.85 547.48 569.84 550.64 569.78 553.79 C 566.58 554.49 563.33 554.93 560.06 555.10 C 552.36 555.50 544.73 556.95 537.00 556.87 C 483.01 556.78 429.02 556.99 375.03 556.89 C 368.07 557.03 361.06 557.08 354.22 555.64 C 353.91 551.53 353.89 547.41 354.18 543.30 C 366.75 541.97 379.38 541.89 392.01 542.16 C 394.70 542.31 397.40 541.95 399.92 540.97 Z" />
<path fill="#111111" opacity="0.14" d=" M 365.09 550.04 C 368.17 548.44 371.52 547.30 375.01 547.15 C 381.36 546.81 387.73 546.63 394.08 546.84 C 396.51 546.75 398.55 548.15 400.40 549.56 L 401.51 550.40 C 401.10 550.83 400.27 551.69 399.86 552.12 C 388.27 551.82 376.40 553.24 365.09 550.04 Z" />
<path fill="#111111" opacity="0.14" d=" M 513.63 548.76 C 517.62 546.25 522.48 546.77 526.98 546.79 C 534.62 547.05 542.60 545.86 549.83 549.00 C 543.57 551.67 536.68 551.98 529.97 552.10 C 523.87 552.11 517.66 552.64 511.70 550.99 C 512.09 550.54 512.87 549.65 513.25 549.20 L 513.63 548.76 Z" />
<path fill="#a9abb1" opacity="1.00" d=" M 193.13 559.87 C 194.99 559.24 196.99 559.40 198.93 559.37 C 212.62 559.58 226.32 559.52 240.02 559.73 C 254.32 560.92 268.69 560.14 283.02 560.64 C 285.97 560.65 288.27 563.14 289.11 565.80 C 297.03 589.20 305.07 612.56 313.04 635.95 C 314.40 640.24 316.49 644.43 316.57 649.02 C 316.77 652.50 313.53 655.60 310.03 655.16 C 290.03 654.99 270.02 655.44 250.02 654.79 C 219.99 654.83 189.97 654.64 159.95 654.68 C 158.20 654.59 156.11 654.73 154.93 653.16 C 152.22 650.43 153.51 646.17 154.73 643.04 C 165.98 616.96 177.31 590.91 188.54 564.83 C 189.39 562.67 190.89 560.68 193.13 559.87 Z" />
<path fill="#a1a1a1" opacity="1.00" d=" M 540.01 570.24 C 545.26 570.26 550.52 570.23 555.78 570.27 C 558.88 581.82 561.87 593.41 565.05 604.95 C 568.06 593.38 571.13 581.82 574.15 570.25 C 579.43 570.24 584.71 570.25 589.99 570.24 C 590.01 587.49 590.00 604.75 590.00 622.00 C 586.66 622.00 583.33 622.00 580.00 622.00 C 579.79 609.14 580.44 596.24 579.64 583.40 C 576.83 596.35 573.30 609.14 570.12 622.00 C 566.69 622.00 563.25 621.99 559.82 622.00 C 556.68 609.20 553.23 596.46 550.24 583.62 C 549.71 596.40 550.14 609.21 550.00 622.00 C 546.66 622.00 543.33 622.00 540.00 622.00 C 540.00 604.75 539.99 587.49 540.01 570.24 Z" />
<path fill="#9aba2f" opacity="1.00" d=" M 747.76 570.24 C 751.08 570.25 754.41 570.24 757.75 570.25 C 757.73 576.30 757.79 582.36 757.72 588.41 C 760.76 585.58 764.64 583.33 768.95 583.71 C 776.02 583.55 782.25 589.18 783.61 595.97 C 784.73 602.02 784.77 608.62 782.13 614.30 C 779.48 619.92 773.16 623.85 766.89 622.88 C 762.93 622.45 759.60 619.99 756.98 617.16 C 756.98 618.77 756.99 620.38 757.01 622.00 C 753.92 622.00 750.83 622.00 747.75 622.00 C 747.75 604.75 747.75 587.50 747.76 570.24 M 762.35 592.33 C 758.32 594.62 757.42 599.67 757.73 603.93 C 757.74 608.04 759.38 612.78 763.52 614.40 C 767.23 616.08 771.66 613.61 772.93 609.93 C 774.46 605.55 774.41 600.58 772.76 596.25 C 771.32 592.21 766.09 590.20 762.35 592.33 Z" />
<path fill="#9aba2f" opacity="1.00" d=" M 820.01 570.24 C 823.43 570.25 826.85 570.24 830.27 570.27 C 830.24 573.41 830.24 576.57 830.28 579.72 C 826.85 579.75 823.43 579.75 820.00 579.76 C 819.99 576.58 819.99 573.41 820.01 570.24 Z" />
<path fill="#a1a1a1" opacity="1.00" d=" M 640.47 577.17 C 643.88 575.15 647.31 573.17 650.75 571.19 C 650.75 575.62 650.75 580.06 650.75 584.50 C 653.00 584.49 655.25 584.50 657.50 584.50 C 657.49 587.25 657.49 589.99 657.50 592.75 C 655.25 592.75 653.00 592.75 650.75 592.75 C 650.86 599.52 650.52 606.30 650.91 613.05 C 652.48 615.38 655.24 614.10 657.43 613.67 C 657.67 616.31 657.98 618.95 658.30 621.59 C 653.66 623.06 648.20 623.99 643.83 621.27 C 641.05 619.53 640.73 615.95 640.56 613.00 C 640.39 606.24 640.57 599.49 640.49 592.74 C 638.98 592.74 637.49 592.75 636.00 592.77 C 635.99 589.99 635.99 587.22 636.05 584.45 C 637.52 584.47 639.01 584.50 640.50 584.53 C 640.50 582.07 640.49 579.62 640.47 577.17 Z" />
<path fill="#9aba2f" opacity="1.00" d=" M 864.50 570.25 C 867.83 570.24 871.16 570.24 874.50 570.25 C 874.50 587.50 874.50 604.75 874.50 622.00 C 871.40 622.00 868.30 622.00 865.21 621.99 C 865.23 620.36 865.27 618.73 865.33 617.12 C 862.96 619.52 860.27 621.81 856.90 622.57 C 850.84 624.25 844.21 621.12 841.00 615.88 C 837.31 609.87 837.23 602.29 838.71 595.59 C 840.08 589.37 845.51 584.19 851.97 583.76 C 856.68 583.04 861.02 585.33 864.51 588.27 C 864.49 582.26 864.50 576.26 864.50 570.25 M 853.19 592.24 C 849.52 593.92 848.20 598.24 848.22 601.99 C 848.11 606.14 848.51 611.22 852.32 613.75 C 855.60 616.04 860.44 614.79 862.49 611.44 C 865.10 607.14 864.90 601.65 863.55 596.97 C 862.36 592.77 857.17 590.02 853.19 592.24 Z" />
<path fill="#a1a1a1" opacity="1.00" d=" M 601.11 589.98 C 607.50 581.32 622.44 581.58 628.59 590.37 C 631.83 594.96 632.26 600.80 632.32 606.24 C 623.96 606.29 615.61 606.16 607.25 606.32 C 607.64 610.85 610.95 615.97 616.10 615.28 C 619.20 615.31 620.76 612.41 621.83 609.96 C 625.19 610.53 628.56 611.08 631.92 611.68 C 630.29 616.01 627.27 620.06 622.79 621.69 C 617.47 623.66 611.28 623.47 606.13 621.08 C 600.16 618.22 597.23 611.35 597.22 605.01 C 596.93 599.77 597.82 594.22 601.11 589.98 M 607.53 599.96 C 612.49 600.03 617.46 600.00 622.43 599.98 C 622.03 595.98 619.60 591.42 615.03 591.46 C 610.43 591.34 607.62 595.80 607.53 599.96 Z" />
<path fill="#a1a1a1" opacity="1.00" d=" M 665.13 589.98 C 671.53 581.30 686.52 581.58 692.64 590.42 C 695.82 595.02 696.30 600.81 696.32 606.25 C 687.96 606.30 679.60 606.15 671.24 606.33 C 671.65 610.82 674.88 615.86 679.98 615.28 C 683.10 615.42 684.76 612.49 685.78 610.00 C 689.19 610.51 692.59 611.09 696.00 611.68 C 694.43 615.25 692.31 618.86 688.75 620.76 C 683.32 623.68 676.54 623.68 670.89 621.42 C 665.19 619.06 661.86 613.03 661.36 607.09 C 660.83 601.22 661.34 594.77 665.13 589.98 M 671.51 599.96 C 676.48 600.03 681.46 600.01 686.45 599.97 C 686.04 595.96 683.62 591.41 679.03 591.46 C 674.38 591.33 671.72 595.82 671.51 599.96 Z" />
<path fill="#a1a1a1" opacity="1.00" d=" M 716.08 584.22 C 722.17 582.96 729.14 583.81 733.93 588.08 C 742.81 595.36 742.85 610.75 734.21 618.24 C 725.53 626.27 709.04 623.98 703.81 613.07 C 700.92 606.62 700.96 598.73 704.52 592.55 C 706.98 588.31 711.29 585.26 716.08 584.22 M 718.36 592.48 C 712.23 594.76 711.22 602.61 712.85 608.15 C 714.11 613.16 720.22 616.32 724.91 613.81 C 730.14 611.15 730.95 604.20 729.66 599.06 C 728.67 594.17 723.18 590.55 718.36 592.48 Z" />
<path fill="#9aba2f" opacity="1.00" d=" M 800.99 589.32 C 802.66 587.25 804.23 584.72 806.96 583.98 C 810.06 583.18 813.20 584.22 816.10 585.26 C 815.20 588.32 814.11 591.33 813.02 594.33 C 810.83 593.61 808.48 592.04 806.16 593.15 C 803.61 594.28 802.59 597.21 802.25 599.79 C 801.36 607.15 801.88 614.59 801.76 621.99 C 798.33 622.00 794.90 622.00 791.48 621.97 C 791.53 609.48 791.48 596.99 791.51 584.50 C 794.66 584.50 797.83 584.50 801.00 584.50 C 800.99 586.10 800.98 587.70 800.99 589.32 Z" />
<path fill="#9aba2f" opacity="1.00" d=" M 820.04 584.47 C 823.44 584.50 826.85 584.49 830.26 584.53 C 830.23 597.02 830.26 609.51 830.25 622.00 C 826.83 622.00 823.41 622.00 820.00 622.00 C 820.02 609.49 819.95 596.98 820.04 584.47 Z" />
<path fill="#9aba2f" opacity="1.00" d=" M 882.71 595.56 C 884.01 590.05 888.41 585.33 893.98 584.08 C 899.56 582.60 905.46 584.85 909.04 589.27 C 909.01 587.67 908.99 586.08 908.98 584.50 C 912.15 584.49 915.32 584.49 918.50 584.50 C 918.51 595.68 918.48 606.86 918.51 618.05 C 918.51 623.13 918.35 628.79 914.82 632.83 C 911.05 636.77 905.19 637.29 900.04 637.28 C 894.94 637.17 889.05 636.66 885.50 632.53 C 883.40 630.32 883.21 627.15 882.80 624.31 C 886.58 624.71 890.36 625.16 894.15 625.63 C 895.89 630.49 902.21 630.22 906.05 628.22 C 909.54 625.55 907.97 620.46 908.56 616.69 C 905.64 619.36 902.29 622.23 898.07 622.04 C 893.29 622.50 888.46 620.26 885.70 616.36 C 881.37 610.44 881.04 602.47 882.71 595.56 M 897.17 592.16 C 891.67 594.94 891.66 602.33 892.75 607.56 C 893.61 612.13 898.83 615.41 903.21 613.23 C 908.82 610.62 909.22 603.30 908.01 598.02 C 907.15 593.31 901.62 589.95 897.17 592.16 Z" />
<path fill="#9aba2f" opacity="1.00" d=" M 929.10 589.99 C 935.50 581.30 950.49 581.58 956.63 590.43 C 959.85 595.01 960.25 600.82 960.32 606.24 C 951.95 606.30 943.58 606.14 935.22 606.34 C 935.68 610.84 938.93 615.97 944.08 615.28 C 947.21 615.33 948.72 612.36 949.89 609.95 C 953.23 610.55 956.59 611.10 959.96 611.66 C 958.53 615.03 956.60 618.37 953.41 620.35 C 948.12 623.63 941.28 623.68 935.51 621.70 C 929.82 619.62 926.24 613.94 925.47 608.11 C 924.76 601.94 925.15 595.09 929.10 589.99 M 935.51 599.96 C 940.48 600.03 945.46 600.00 950.44 599.98 C 950.02 595.99 947.63 591.42 943.05 591.46 C 938.42 591.32 935.68 595.80 935.51 599.96 Z" />
<path fill="#2ba4b4" opacity="1.00" d=" M 1038.25 628.21 C 1042.51 615.35 1055.62 606.40 1069.05 606.44 C 1074.09 606.50 1078.99 608.11 1083.50 610.28 C 1091.17 614.12 1096.78 621.24 1099.51 629.30 C 1097.26 627.68 1095.23 628.73 1093.60 630.54 C 1095.03 632.89 1097.08 635.13 1097.29 638.01 C 1097.24 640.81 1095.36 643.10 1094.17 645.50 C 1095.09 646.21 1096.06 646.89 1097.05 647.55 C 1098.19 647.04 1099.30 646.47 1100.38 645.82 C 1097.84 654.84 1092.11 663.17 1083.56 667.40 C 1074.85 672.01 1063.84 672.32 1054.96 667.99 C 1040.40 661.55 1032.37 643.15 1038.25 628.21 M 1066.02 623.07 C 1068.71 621.14 1069.58 617.26 1066.90 614.91 C 1062.63 615.05 1063.34 621.09 1066.02 623.07 M 1050.45 621.47 C 1048.30 624.03 1052.89 628.87 1055.68 626.77 C 1057.27 623.99 1053.21 619.47 1050.45 621.47 M 1075.65 625.90 C 1076.25 626.25 1077.45 626.95 1078.05 627.30 C 1080.67 627.32 1081.76 624.54 1083.20 622.83 C 1082.44 622.15 1081.67 621.51 1080.89 620.91 C 1077.95 620.78 1076.83 623.79 1075.65 625.90 M 1062.40 625.51 C 1056.82 627.26 1053.03 633.20 1053.95 639.01 C 1054.59 645.27 1060.72 650.38 1067.03 649.61 C 1074.57 649.59 1080.38 641.14 1078.07 634.05 C 1076.53 627.46 1068.78 623.19 1062.40 625.51 M 1045.40 635.37 C 1045.07 635.58 1044.40 636.01 1044.07 636.23 C 1042.35 640.93 1052.91 640.74 1050.95 636.19 C 1049.47 634.85 1047.20 634.69 1045.40 635.37 M 1080.39 637.85 C 1081.90 638.54 1083.34 639.68 1085.08 639.78 C 1086.62 639.47 1087.88 638.46 1089.25 637.71 C 1087.39 634.14 1082.07 634.07 1080.39 637.85 M 1049.55 653.28 C 1051.29 653.39 1053.03 653.23 1054.76 652.92 C 1055.32 651.23 1055.86 649.54 1056.39 647.85 C 1052.76 646.24 1049.51 649.75 1049.55 653.28 M 1075.67 648.89 C 1076.71 650.52 1077.34 652.90 1079.52 653.35 C 1080.81 654.01 1082.35 653.18 1082.76 651.83 C 1082.12 648.68 1078.21 645.74 1075.67 648.89 M 1063.90 657.03 C 1064.00 658.48 1065.69 660.84 1067.18 659.38 C 1069.73 657.12 1068.50 653.29 1065.88 651.68 C 1064.79 653.25 1063.26 654.93 1063.90 657.03 Z" />
<path fill="#9aba2f" opacity="1.00" d=" M 1083.50 610.28 C 1091.02 606.44 1100.03 605.06 1108.07 608.16 C 1118.88 611.49 1127.45 620.93 1129.81 631.98 C 1130.17 636.33 1130.07 640.73 1129.89 645.09 C 1128.15 654.57 1121.74 663.05 1113.17 667.44 C 1104.12 672.25 1092.58 672.30 1083.56 667.40 C 1092.11 663.17 1097.84 654.84 1100.38 645.82 C 1101.39 643.31 1102.53 640.74 1102.46 637.98 C 1102.54 634.81 1100.80 632.06 1099.51 629.30 C 1096.78 621.24 1091.17 614.12 1083.50 610.28 M 1110.49 615.57 C 1107.50 617.17 1109.96 619.92 1111.56 621.52 C 1117.63 627.93 1119.32 637.57 1116.99 645.93 C 1115.82 650.05 1113.11 653.40 1110.72 656.86 C 1109.14 658.96 1112.86 661.81 1114.60 659.83 C 1120.23 654.46 1123.02 646.62 1123.43 638.96 C 1123.36 630.50 1120.01 621.92 1113.73 616.14 C 1112.89 615.31 1111.50 614.67 1110.49 615.57 M 1103.34 622.41 C 1100.12 624.29 1103.17 627.39 1104.67 629.29 C 1108.12 633.91 1108.60 640.59 1105.56 645.54 C 1104.57 647.41 1102.96 648.98 1102.39 651.05 C 1103.06 652.77 1104.97 653.84 1106.71 652.80 C 1114.43 645.56 1114.77 632.11 1107.61 624.37 C 1106.47 623.26 1105.12 621.50 1103.34 622.41 Z" />
<path fill="#fdf9f9" opacity="1.00" d=" M 1066.02 623.07 C 1063.34 621.09 1062.63 615.05 1066.90 614.91 C 1069.58 617.26 1068.71 621.14 1066.02 623.07 Z" />
<path fill="#f7f7f7" opacity="1.00" d=" M 1110.49 615.57 C 1111.50 614.67 1112.89 615.31 1113.73 616.14 C 1120.01 621.92 1123.36 630.50 1123.43 638.96 C 1123.02 646.62 1120.23 654.46 1114.60 659.83 C 1112.86 661.81 1109.14 658.96 1110.72 656.86 C 1113.11 653.40 1115.82 650.05 1116.99 645.93 C 1119.32 637.57 1117.63 627.93 1111.56 621.52 C 1109.96 619.92 1107.50 617.17 1110.49 615.57 Z" />
<path fill="#faf7f7" opacity="1.00" d=" M 1050.45 621.47 C 1053.21 619.47 1057.27 623.99 1055.68 626.77 C 1052.89 628.87 1048.30 624.03 1050.45 621.47 Z" />
<path fill="#f7f7f7" opacity="1.00" d=" M 1075.65 625.90 C 1076.83 623.79 1077.95 620.78 1080.89 620.91 C 1081.67 621.51 1082.44 622.15 1083.20 622.83 C 1081.76 624.54 1080.67 627.32 1078.05 627.30 C 1077.45 626.95 1076.25 626.25 1075.65 625.90 Z" />
<path fill="#f7f7f7" opacity="1.00" d=" M 1103.34 622.41 C 1105.12 621.50 1106.47 623.26 1107.61 624.37 C 1114.77 632.11 1114.43 645.56 1106.71 652.80 C 1104.97 653.84 1103.06 652.77 1102.39 651.05 C 1102.96 648.98 1104.57 647.41 1105.56 645.54 C 1108.60 640.59 1108.12 633.91 1104.67 629.29 C 1103.17 627.39 1100.12 624.29 1103.34 622.41 Z" />
<path fill="#f8f7f7" opacity="1.00" d=" M 1062.40 625.51 C 1068.78 623.19 1076.53 627.46 1078.07 634.05 C 1080.38 641.14 1074.57 649.59 1067.03 649.61 C 1060.72 650.38 1054.59 645.27 1053.95 639.01 C 1053.03 633.20 1056.82 627.26 1062.40 625.51 M 1063.33 630.42 C 1060.68 631.52 1058.69 634.15 1058.51 637.04 C 1058.39 641.42 1062.67 645.46 1067.06 644.92 C 1070.43 644.34 1073.33 641.47 1073.85 638.07 C 1074.43 632.77 1068.24 628.04 1063.33 630.42 Z" />
<path fill="#f7f7f7" opacity="1.00" d=" M 1093.60 630.54 C 1095.23 628.73 1097.26 627.68 1099.51 629.30 C 1100.80 632.06 1102.54 634.81 1102.46 637.98 C 1102.53 640.74 1101.39 643.31 1100.38 645.82 C 1099.30 646.47 1098.19 647.04 1097.05 647.55 C 1096.06 646.89 1095.09 646.21 1094.17 645.50 C 1095.36 643.10 1097.24 640.81 1097.29 638.01 C 1097.08 635.13 1095.03 632.89 1093.60 630.54 Z" />
<path fill="#2ba4b4" opacity="1.00" d=" M 1063.33 630.42 C 1068.24 628.04 1074.43 632.77 1073.85 638.07 C 1073.33 641.47 1070.43 644.34 1067.06 644.92 C 1062.67 645.46 1058.39 641.42 1058.51 637.04 C 1058.69 634.15 1060.68 631.52 1063.33 630.42 Z" />
<path fill="#fffafa" opacity="1.00" d=" M 1045.40 635.37 C 1047.20 634.69 1049.47 634.85 1050.95 636.19 C 1052.91 640.74 1042.35 640.93 1044.07 636.23 C 1044.40 636.01 1045.07 635.58 1045.40 635.37 Z" />
<path fill="#fffbfa" opacity="1.00" d=" M 1080.39 637.85 C 1082.07 634.07 1087.39 634.14 1089.25 637.71 C 1087.88 638.46 1086.62 639.47 1085.08 639.78 C 1083.34 639.68 1081.90 638.54 1080.39 637.85 Z" />
<path fill="#f6f6f6" opacity="1.00" d=" M 1049.55 653.28 C 1049.51 649.75 1052.76 646.24 1056.39 647.85 C 1055.86 649.54 1055.32 651.23 1054.76 652.92 C 1053.03 653.23 1051.29 653.39 1049.55 653.28 Z" />
<path fill="#fcf9f8" opacity="1.00" d=" M 1075.67 648.89 C 1078.21 645.74 1082.12 648.68 1082.76 651.83 C 1082.35 653.18 1080.81 654.01 1079.52 653.35 C 1077.34 652.90 1076.71 650.52 1075.67 648.89 Z" />
<path fill="#fbf8f8" opacity="1.00" d=" M 1063.90 657.03 C 1063.26 654.93 1064.79 653.25 1065.88 651.68 C 1068.50 653.29 1069.73 657.12 1067.18 659.38 C 1065.69 660.84 1064.00 658.48 1063.90 657.03 Z" />
</svg>
