<?xml version="1.0" encoding="UTF-8" ?>
<!DOCTYPE svg PUBLIC "-//W3C//DTD SVG 1.1//EN" "http://www.w3.org/Graphics/SVG/1.1/DTD/svg11.dtd">
<svg id="weather34 weatherflow hardware graphic" width="590pt" height="759pt" viewBox="0 0 590 759" version="1.1" xmlns="http://www.w3.org/2000/svg">
<path fill="#fdfdfd" opacity="1.00" d=" M 210.69 56.39 C 210.63 56.23 210.50 55.90 210.43 55.73 C 214.52 55.66 218.61 55.36 222.71 55.31 L 222.32 54.65 C 237.77 53.98 253.26 53.97 268.71 54.67 L 268.27 55.31 C 272.07 55.38 275.85 55.64 279.65 55.69 L 279.31 56.33 C 281.85 56.44 284.40 56.59 286.92 56.98 C 289.22 57.41 291.58 57.54 293.85 58.17 C 295.44 58.35 297.03 58.49 298.63 58.60 C 298.61 58.76 298.58 59.08 298.56 59.23 C 305.38 59.45 311.84 61.97 318.58 62.79 L 318.42 63.33 C 319.63 63.49 320.84 63.67 322.05 63.86 C 323.22 64.20 324.39 64.52 325.58 64.81 L 325.58 65.25 C 326.93 65.37 328.28 65.50 329.64 65.62 L 329.36 66.19 C 331.61 66.59 333.79 67.27 336.01 67.84 C 337.30 68.33 338.61 68.81 339.88 69.37 C 340.55 69.45 341.88 69.61 342.55 69.68 L 342.43 70.25 C 343.57 70.53 344.71 70.82 345.84 71.13 C 348.30 72.00 350.73 72.94 353.19 73.82 C 355.11 74.64 357.08 75.37 358.97 76.31 C 359.29 76.37 359.93 76.48 360.25 76.53 C 360.18 93.24 360.23 109.94 360.22 126.65 C 352.91 126.59 345.61 126.80 338.31 126.66 L 338.24 127.61 L 336.80 127.28 C 329.27 125.98 321.53 126.79 313.94 127.21 C 298.59 127.19 283.23 127.41 267.89 127.17 L 267.21 126.70 L 266.86 125.83 C 264.62 125.68 262.39 125.60 260.15 125.57 C 250.94 125.41 241.73 125.40 232.52 125.60 C 229.54 125.62 226.55 125.60 223.57 125.61 L 223.62 127.27 C 208.80 127.23 193.98 127.34 179.16 127.14 C 171.14 126.75 163.04 126.17 155.05 127.20 L 153.66 127.41 L 153.68 126.67 C 145.62 126.83 137.57 126.53 129.52 126.70 C 129.52 110.59 129.44 94.48 129.57 78.37 C 130.49 77.56 131.30 76.63 132.12 75.72 L 132.58 75.71 C 134.78 74.93 136.97 74.08 139.18 73.30 C 140.18 72.88 141.19 72.48 142.21 72.09 C 144.27 71.39 146.34 70.72 148.45 70.16 L 148.43 69.55 C 149.21 69.53 150.78 69.47 151.56 69.44 L 151.41 68.83 C 153.63 68.29 155.84 67.68 157.96 66.81 C 159.15 66.62 160.34 66.44 161.54 66.28 L 161.29 65.78 C 163.86 65.29 166.38 64.61 168.86 63.79 C 170.09 63.63 171.32 63.47 172.55 63.32 L 172.40 62.68 C 173.64 62.56 174.88 62.43 176.12 62.29 C 179.16 61.25 182.35 60.72 185.53 60.27 L 185.48 59.71 C 187.54 59.59 189.59 59.44 191.66 59.33 L 191.35 58.68 C 193.28 58.55 195.21 58.37 197.13 58.14 C 199.35 57.54 201.66 57.38 203.90 56.88 C 206.16 56.64 208.42 56.49 210.69 56.39 Z" />
<path fill="#2f9ba9" opacity="1.00" d=" M 223.57 125.61 C 226.55 125.60 229.54 125.62 232.52 125.60 C 235.44 130.38 241.38 128.67 246.01 128.98 C 250.86 128.68 256.96 130.39 260.15 125.57 C 262.39 125.60 264.62 125.68 266.86 125.83 L 267.21 126.70 C 267.54 131.39 267.08 136.10 267.37 140.79 C 252.80 140.80 238.22 140.78 223.65 140.80 C 223.80 136.29 223.77 131.78 223.62 127.27 L 223.57 125.61 Z" />
<path fill="#a9abb1" opacity="1.00" d=" M 232.52 125.60 C 241.73 125.40 250.94 125.41 260.15 125.57 C 256.96 130.39 250.86 128.68 246.01 128.98 C 241.38 128.67 235.44 130.38 232.52 125.60 Z" />
<path fill="#a9abb1" opacity="1.00" d=" M 155.05 127.20 C 163.04 126.17 171.14 126.75 179.16 127.14 C 178.41 128.63 177.60 130.08 176.66 131.44 C 169.64 130.80 162.28 132.57 155.50 130.37 C 155.35 129.31 155.20 128.26 155.05 127.20 Z" />
<path fill="#a9abb1" opacity="1.00" d=" M 313.94 127.21 C 321.53 126.79 329.27 125.98 336.80 127.28 C 337.11 127.72 337.72 128.59 338.02 129.03 C 336.73 129.76 335.78 131.40 334.15 131.33 C 328.32 131.52 322.49 131.31 316.66 131.41 C 316.12 131.09 315.05 130.44 314.51 130.11 C 314.32 129.14 314.13 128.17 313.94 127.21 Z" />
<path fill="#a9abb1" opacity="1.00" d=" M 213.96 142.95 C 218.30 142.48 222.54 141.09 226.95 141.35 C 241.44 141.51 255.94 141.11 270.43 141.57 L 270.47 142.05 C 272.68 142.20 274.87 142.57 277.05 142.98 C 280.65 143.90 284.39 144.15 287.96 145.17 C 289.79 145.37 291.64 145.54 293.49 145.67 L 293.52 146.26 C 299.39 146.87 305.23 147.92 310.99 149.18 C 312.96 149.44 314.94 149.68 316.92 149.98 C 320.56 150.87 324.31 151.21 327.96 152.10 C 330.23 152.40 332.52 152.68 334.76 153.24 C 339.82 154.06 344.87 155.01 349.93 155.84 C 352.23 156.55 354.68 156.63 357.07 156.87 C 358.56 157.45 360.05 158.00 361.52 158.65 C 361.40 159.31 361.14 160.63 361.02 161.28 L 360.65 160.23 C 360.52 159.85 360.27 159.08 360.14 158.70 C 354.00 157.04 347.71 156.17 341.44 155.24 C 324.85 152.01 308.12 149.55 291.56 146.19 C 284.65 145.47 277.90 143.71 271.01 142.96 C 255.65 142.94 240.28 143.16 224.92 142.89 C 217.48 142.22 210.36 144.89 203.05 145.73 C 187.39 148.52 171.71 151.23 156.02 153.91 C 147.27 155.82 138.27 156.40 129.66 158.96 C 133.89 166.82 137.22 175.10 141.20 183.08 C 141.10 183.22 140.88 183.51 140.77 183.65 C 138.70 181.64 138.40 177.73 136.78 175.13 C 135.58 172.46 134.34 169.80 133.07 167.16 C 131.92 164.82 130.84 162.45 129.54 160.18 C 129.51 159.74 129.44 158.85 129.40 158.41 C 130.89 157.87 132.39 157.36 133.89 156.84 C 135.61 156.67 137.34 156.48 139.07 156.29 C 144.71 154.93 150.48 154.19 156.19 153.19 C 169.78 150.63 183.47 148.59 197.03 145.91 C 202.69 145.01 208.36 144.14 213.96 142.95 Z" />
<path fill="#fdfdfd" opacity="1.00" d=" M 203.05 145.73 C 210.36 144.89 217.48 142.22 224.92 142.89 C 240.28 143.16 255.65 142.94 271.01 142.96 C 277.90 143.71 284.65 145.47 291.56 146.19 C 308.12 149.55 324.85 152.01 341.44 155.24 C 347.71 156.17 354.00 157.04 360.14 158.70 C 360.27 159.08 360.52 159.85 360.65 160.23 C 359.94 162.64 358.67 164.82 357.45 167.00 C 357.42 167.25 357.35 167.75 357.31 168.00 C 356.40 169.59 355.61 171.24 354.78 172.88 C 353.64 175.63 352.43 178.36 351.35 181.13 C 350.86 182.11 350.38 183.10 349.92 184.10 C 349.39 185.56 348.77 186.98 348.29 188.46 L 347.91 188.48 C 347.53 189.64 347.11 190.79 346.64 191.92 C 345.78 194.30 344.82 196.66 343.70 198.93 C 341.52 204.17 339.94 209.63 337.73 214.85 C 337.63 215.52 337.43 216.85 337.34 217.52 L 336.58 217.44 C 336.49 218.12 336.30 219.48 336.21 220.16 C 335.37 222.26 334.73 224.43 334.22 226.63 L 333.64 226.46 C 333.53 227.81 333.42 229.16 333.32 230.52 L 332.76 230.49 C 332.22 232.66 331.61 234.83 330.73 236.89 C 330.56 238.10 330.41 239.31 330.27 240.53 L 329.61 240.38 C 329.47 241.62 329.33 242.86 329.19 244.11 C 328.69 245.34 328.24 246.59 327.76 247.84 C 327.62 249.10 327.48 250.37 327.36 251.64 L 326.69 251.43 C 326.55 252.66 326.41 253.89 326.26 255.12 C 325.05 258.27 324.79 261.69 323.73 264.89 C 323.55 266.44 323.41 267.99 323.28 269.55 L 322.71 269.36 C 322.38 272.57 321.65 275.73 320.79 278.84 C 320.60 280.76 320.44 282.69 320.32 284.61 L 319.68 284.36 C 319.58 286.29 319.43 288.23 319.25 290.17 C 317.62 297.88 316.49 305.75 316.30 313.64 L 315.65 313.32 C 315.51 316.25 315.34 319.18 315.12 322.10 C 314.40 326.51 314.47 331.00 314.25 335.45 L 313.73 335.50 C 313.41 350.58 313.22 365.66 313.33 380.74 L 312.65 380.26 C 312.66 417.93 312.16 455.59 312.33 493.27 C 267.77 493.29 223.21 493.27 178.65 493.27 C 178.70 459.96 178.20 426.65 178.30 393.33 L 177.61 393.76 C 177.70 375.00 177.49 356.24 177.27 337.49 L 176.69 337.55 C 176.49 333.39 176.57 329.20 175.88 325.09 C 175.62 321.56 175.47 318.02 175.30 314.49 L 174.66 314.64 C 174.60 307.18 172.93 299.88 172.26 292.48 L 171.72 292.54 C 171.55 289.55 171.39 286.57 171.40 283.59 C 171.24 285.01 171.09 286.43 170.93 287.86 C 170.65 285.21 170.43 282.55 170.16 279.90 C 169.35 276.77 168.63 273.60 168.28 270.38 L 167.66 270.54 C 167.57 268.85 167.44 267.15 167.36 265.46 C 167.21 265.46 166.93 265.45 166.78 265.45 C 166.38 262.28 165.87 259.08 164.75 256.07 C 164.60 254.84 164.46 253.60 164.33 252.37 L 163.69 252.57 C 163.53 251.34 163.36 250.11 163.18 248.89 C 162.33 246.43 161.69 243.89 161.28 241.32 L 160.83 241.54 C 160.49 238.06 159.12 234.82 158.31 231.44 L 157.70 231.44 C 157.60 230.10 157.50 228.76 157.40 227.42 L 156.81 227.63 C 156.31 225.43 155.69 223.26 155.05 221.11 C 154.31 218.76 153.48 216.45 152.65 214.15 C 152.06 212.46 151.45 210.78 150.69 209.16 C 150.60 208.49 150.41 207.16 150.32 206.49 L 149.78 206.65 C 149.24 204.78 148.67 202.94 148.05 201.11 C 147.44 199.68 146.65 198.34 146.08 196.91 C 145.30 194.99 144.61 193.04 143.78 191.15 C 142.85 188.67 141.80 186.24 140.58 183.90 L 140.77 183.65 C 140.88 183.51 141.10 183.22 141.20 183.08 C 137.22 175.10 133.89 166.82 129.66 158.96 C 138.27 156.40 147.27 155.82 156.02 153.91 C 171.71 151.23 187.39 148.52 203.05 145.73 M 244.37 418.39 C 242.37 418.99 241.73 421.14 240.74 422.73 C 242.61 422.70 244.48 422.65 246.35 422.58 C 247.22 424.27 248.86 425.92 248.29 427.99 C 247.32 432.44 243.91 435.73 240.68 438.69 C 235.29 443.54 228.73 446.74 222.56 450.44 C 226.35 450.89 229.95 449.38 233.50 448.27 C 239.61 446.15 245.71 443.61 250.77 439.49 C 251.25 439.52 252.20 439.56 252.68 439.58 C 252.30 442.72 251.56 445.96 249.39 448.39 C 243.05 456.55 233.28 460.57 225.01 466.29 C 234.80 464.53 244.44 461.23 252.81 455.79 C 257.59 452.38 262.43 447.22 261.67 440.87 C 261.85 437.17 258.81 434.64 256.46 432.26 C 258.92 427.36 256.85 421.61 252.49 418.64 C 249.82 418.28 246.94 416.96 244.37 418.39 Z" />
<path fill="#fdfdfd" opacity="1.00" d=" M 427.08 289.11 C 436.64 287.58 446.36 287.12 456.04 287.18 C 468.72 287.05 481.47 287.85 493.94 290.21 C 495.34 290.42 496.75 290.61 498.16 290.81 C 502.38 291.99 506.74 292.66 510.89 294.13 C 511.46 294.26 512.60 294.53 513.17 294.67 C 514.17 295.10 515.19 295.52 516.21 295.94 C 518.50 296.83 520.78 297.75 523.06 298.69 C 523.60 299.02 524.68 299.68 525.22 300.01 C 524.10 312.66 523.76 325.37 523.21 338.06 C 522.16 346.61 523.09 355.31 521.76 363.82 C 521.55 370.71 521.25 377.60 521.27 384.50 L 520.72 384.49 C 520.26 402.78 518.85 421.03 518.38 439.32 C 517.53 448.02 517.53 456.78 517.29 465.52 L 516.73 465.50 C 516.43 490.68 513.85 515.78 513.76 540.98 C 513.72 543.94 513.82 546.91 513.53 549.87 C 513.29 544.92 513.21 539.97 513.16 535.02 C 475.69 534.98 438.21 535.02 400.74 534.96 C 400.57 539.75 400.51 544.54 400.75 549.33 C 430.49 549.00 460.24 549.19 489.99 549.13 C 497.60 549.25 505.23 548.77 512.82 549.58 C 510.56 549.93 508.29 550.19 506.01 550.29 C 471.18 550.37 436.34 550.07 401.52 550.41 L 400.58 550.42 C 399.15 537.68 400.04 524.77 398.89 512.01 C 398.62 506.50 398.37 500.99 398.27 495.48 L 397.73 495.49 C 397.80 488.14 397.29 480.81 397.29 473.47 L 396.73 473.45 C 396.58 466.60 396.42 459.75 396.15 452.90 C 395.09 443.64 395.57 434.28 394.68 425.00 C 394.16 406.46 392.44 388.00 392.28 369.46 L 391.73 369.50 C 391.59 362.29 391.35 355.08 391.14 347.87 C 390.23 341.64 390.48 335.30 390.19 329.01 C 389.51 319.24 389.24 309.44 388.78 299.66 C 392.08 297.93 395.59 296.65 399.06 295.31 C 404.19 293.25 409.69 292.44 414.96 290.86 C 416.80 290.60 418.64 290.40 420.49 290.24 L 420.48 289.69 C 422.68 289.55 424.88 289.35 427.08 289.11 M 458.78 435.57 C 457.20 436.41 456.67 438.31 455.75 439.74 C 457.61 439.70 459.46 439.64 461.33 439.58 C 463.18 441.89 464.12 444.90 462.41 447.61 C 457.09 457.33 446.40 461.83 437.60 467.70 C 441.82 467.59 445.84 466.18 449.79 464.82 C 455.43 462.76 461.05 460.35 465.73 456.52 C 466.22 456.53 467.19 456.55 467.68 456.56 C 467.28 459.42 466.77 462.43 464.88 464.74 C 458.58 473.29 448.51 477.46 440.00 483.28 C 449.79 481.58 459.41 478.23 467.78 472.81 C 472.56 469.41 477.41 464.27 476.68 457.93 C 476.88 454.20 473.83 451.65 471.46 449.26 C 473.99 444.25 471.73 438.48 467.31 435.47 C 464.47 435.33 461.59 434.93 458.78 435.57 Z" />
<path fill="#2f9ba9" opacity="1.00" d=" M 244.37 418.39 C 246.94 416.96 249.82 418.28 252.49 418.64 C 256.85 421.61 258.92 427.36 256.46 432.26 C 258.81 434.64 261.85 437.17 261.67 440.87 C 262.43 447.22 257.59 452.38 252.81 455.79 C 244.44 461.23 234.80 464.53 225.01 466.29 C 233.28 460.57 243.05 456.55 249.39 448.39 C 251.56 445.96 252.30 442.72 252.68 439.58 C 252.20 439.56 251.25 439.52 250.77 439.49 C 245.71 443.61 239.61 446.15 233.50 448.27 C 229.95 449.38 226.35 450.89 222.56 450.44 C 228.73 446.74 235.29 443.54 240.68 438.69 C 243.91 435.73 247.32 432.44 248.29 427.99 C 248.86 425.92 247.22 424.27 246.35 422.58 C 244.48 422.65 242.61 422.70 240.74 422.73 C 241.73 421.14 242.37 418.99 244.37 418.39 Z" />
<path fill="#2f9ba9" opacity="1.00" d=" M 458.78 435.57 C 461.59 434.93 464.47 435.33 467.31 435.47 C 471.73 438.48 473.99 444.25 471.46 449.26 C 473.83 451.65 476.88 454.20 476.68 457.93 C 477.41 464.27 472.56 469.41 467.78 472.81 C 459.41 478.23 449.79 481.58 440.00 483.28 C 448.51 477.46 458.58 473.29 464.88 464.74 C 466.77 462.43 467.28 459.42 467.68 456.56 C 467.19 456.55 466.22 456.53 465.73 456.52 C 461.05 460.35 455.43 462.76 449.79 464.82 C 445.84 466.18 441.82 467.59 437.60 467.70 C 446.40 461.83 457.09 457.33 462.41 447.61 C 464.12 444.90 463.18 441.89 461.33 439.58 C 459.46 439.64 457.61 439.70 455.75 439.74 C 456.67 438.31 457.20 436.41 458.78 435.57 Z" />
<path fill="#2f9ba9" opacity="1.00" d=" M 178.65 493.27 C 223.21 493.27 267.77 493.29 312.33 493.27 C 312.31 502.18 312.56 511.11 312.21 520.01 C 312.17 520.39 312.10 521.14 312.07 521.51 C 303.52 519.45 294.64 520.72 285.94 520.24 C 259.98 519.18 233.95 520.14 208.00 518.67 C 198.22 518.65 188.44 518.54 178.66 518.51 C 178.64 510.10 178.64 501.68 178.65 493.27 Z" />
<path fill="#fdfdfd" opacity="1.00" d=" M 168.28 527.12 C 169.60 522.51 173.81 518.72 178.66 518.51 C 188.44 518.54 198.22 518.65 208.00 518.67 C 233.95 520.14 259.98 519.18 285.94 520.24 C 294.64 520.72 303.52 519.45 312.07 521.51 C 312.10 521.14 312.17 520.39 312.21 520.01 C 312.27 520.54 312.39 521.59 312.45 522.12 C 313.91 523.49 315.22 525.01 316.50 526.56 C 316.54 527.29 316.61 528.76 316.65 529.49 L 317.30 529.37 C 317.54 530.55 317.79 531.73 318.08 532.92 C 318.40 533.89 318.74 534.86 319.10 535.83 C 319.63 537.97 320.37 540.04 320.95 542.17 C 321.94 545.49 322.95 548.81 323.96 552.13 C 324.65 554.24 325.24 556.38 325.76 558.55 L 326.31 558.49 C 326.42 559.84 326.52 561.19 326.64 562.56 L 327.23 562.37 C 327.70 564.56 328.33 566.72 328.97 568.87 C 329.61 570.98 330.33 573.06 330.91 575.19 C 331.60 577.29 332.19 579.42 332.71 581.58 L 333.31 581.53 C 333.40 582.87 333.50 584.23 333.60 585.59 L 334.19 585.43 C 334.65 587.65 335.26 589.85 336.09 591.97 C 336.31 593.14 336.53 594.33 336.73 595.52 L 337.37 595.33 C 337.45 596.04 337.61 597.46 337.70 598.18 C 338.94 601.46 339.86 604.85 340.82 608.23 C 341.97 611.62 343.04 615.06 343.77 618.58 L 344.31 618.47 C 344.48 619.63 344.66 620.79 344.86 621.96 C 345.77 624.20 346.34 626.56 347.14 628.85 C 348.08 632.21 349.04 635.57 350.26 638.85 C 350.35 639.56 350.52 640.98 350.60 641.69 L 351.26 641.51 C 351.44 642.69 351.64 643.88 351.85 645.07 C 352.70 647.19 353.29 649.40 353.80 651.63 L 354.37 651.46 C 354.46 652.81 354.56 654.17 354.66 655.54 L 355.27 655.40 C 355.82 657.92 356.45 660.43 357.29 662.88 C 357.37 665.31 357.36 667.75 357.34 670.20 C 356.14 673.71 354.11 677.57 350.00 678.05 C 337.02 678.57 324.00 678.17 311.00 678.40 C 247.98 678.56 184.97 678.81 121.95 679.00 C 120.03 679.16 118.24 678.52 116.75 677.35 C 116.45 677.00 115.85 676.29 115.54 675.94 C 115.47 675.75 115.32 675.38 115.25 675.19 C 113.10 671.28 114.24 666.65 114.60 662.45 L 115.40 662.63 C 115.43 661.84 115.50 660.27 115.53 659.48 L 116.20 659.51 C 116.54 658.36 116.90 657.23 117.28 656.11 C 117.49 655.62 117.92 654.64 118.13 654.16 C 118.67 652.69 119.28 651.25 119.81 649.79 C 120.47 648.17 121.14 646.56 121.75 644.94 C 122.16 643.80 122.53 642.66 122.87 641.52 L 123.24 641.53 C 123.96 639.27 124.85 637.08 125.66 634.87 C 126.10 633.85 126.52 632.84 126.92 631.83 C 127.68 629.94 128.38 628.04 129.18 626.17 C 129.98 624.05 130.85 621.97 131.67 619.86 C 132.08 618.71 132.46 617.55 132.81 616.39 L 133.17 616.53 C 133.52 615.37 133.90 614.23 134.31 613.10 C 135.10 610.99 135.99 608.92 136.78 606.82 C 137.49 605.21 138.06 603.55 138.70 601.93 C 139.23 600.66 139.72 599.37 140.29 598.13 C 141.06 596.03 141.89 593.96 142.67 591.87 C 143.09 590.85 143.51 589.83 143.91 588.81 C 144.67 586.93 145.38 585.04 146.16 583.18 C 146.67 581.70 147.34 580.29 147.85 578.82 C 148.50 577.20 149.15 575.57 149.74 573.93 C 150.30 572.65 150.81 571.37 151.35 570.10 C 152.12 568.00 152.97 565.94 153.73 563.84 C 155.01 560.99 155.98 558.01 157.25 555.16 C 158.01 553.05 158.88 550.99 159.65 548.90 C 160.06 547.89 160.46 546.88 160.84 545.88 C 161.38 544.64 161.86 543.38 162.36 542.14 C 162.56 541.65 162.94 540.66 163.14 540.16 C 163.68 538.70 164.30 537.28 164.84 535.83 C 165.51 534.20 166.14 532.56 166.74 530.92 C 167.26 529.65 167.75 528.38 168.28 527.12 M 193.05 559.90 C 189.55 561.22 188.49 565.11 187.08 568.19 C 176.47 592.88 165.76 617.54 155.07 642.20 C 153.86 645.00 152.92 648.10 153.60 651.17 C 154.50 653.29 156.56 654.90 158.95 654.63 C 208.33 654.70 257.69 654.85 307.06 655.20 C 309.80 655.05 313.32 655.65 315.14 653.05 C 317.40 650.48 316.53 646.74 315.70 643.77 C 306.91 617.98 298.04 592.21 289.29 566.40 C 288.46 563.56 286.26 560.72 283.07 560.66 C 268.71 560.15 254.30 560.91 239.96 559.75 C 226.31 559.52 212.65 559.60 199.00 559.38 C 197.01 559.42 194.96 559.25 193.05 559.90 Z" />
<path fill="#a9abb1" opacity="1.00" d=" M 400.74 534.96 C 438.21 535.02 475.69 534.98 513.16 535.02 C 513.21 539.97 513.29 544.92 513.53 549.87 C 512.69 550.18 511.83 550.44 510.96 550.65 C 478.98 550.67 446.99 550.66 415.00 550.66 C 410.51 550.60 406.00 550.84 401.52 550.41 C 436.34 550.07 471.18 550.37 506.01 550.29 C 508.29 550.19 510.56 549.93 512.82 549.58 C 505.23 548.77 497.60 549.25 489.99 549.13 C 460.24 549.19 430.49 549.00 400.75 549.33 C 400.51 544.54 400.57 539.75 400.74 534.96 Z" />
<path fill="#a9abb1" opacity="1.00" d=" M 193.05 559.90 C 194.96 559.25 197.01 559.42 199.00 559.38 C 212.65 559.60 226.31 559.52 239.96 559.75 C 254.30 560.91 268.71 560.15 283.07 560.66 C 286.26 560.72 288.46 563.56 289.29 566.40 C 298.04 592.21 306.91 617.98 315.70 643.77 C 316.53 646.74 317.40 650.48 315.14 653.05 C 313.32 655.65 309.80 655.05 307.06 655.20 C 257.69 654.85 208.33 654.70 158.95 654.63 C 156.56 654.90 154.50 653.29 153.60 651.17 C 152.92 648.10 153.86 645.00 155.07 642.20 C 165.76 617.54 176.47 592.88 187.08 568.19 C 188.49 565.11 189.55 561.22 193.05 559.90 Z" />
</svg>
